<mxfile host="Electron" agent="Mozilla/5.0 (Windows NT 10.0; Win64; x64) AppleWebKit/537.36 (KHTML, like Gecko) draw.io/26.0.16 Chrome/132.0.6834.196 Electron/34.2.0 Safari/537.36" version="26.0.16">
  <diagram id="C5RBs43oDa-KdzZeNtuy" name="Page-1">
    <mxGraphModel dx="1434" dy="844" grid="1" gridSize="10" guides="1" tooltips="1" connect="1" arrows="1" fold="1" page="1" pageScale="1" pageWidth="827" pageHeight="1169" math="0" shadow="0">
      <root>
        <mxCell id="WIyWlLk6GJQsqaUBKTNV-0" />
        <mxCell id="WIyWlLk6GJQsqaUBKTNV-1" parent="WIyWlLk6GJQsqaUBKTNV-0" />
        <mxCell id="2Djhh7RtMC3YNrcOC2Sl-0" value="" style="shape=image;verticalLabelPosition=bottom;labelBackgroundColor=default;verticalAlign=top;aspect=fixed;imageAspect=0;image=data:image/png,iVBORw0KGgoAAAANSUhEUgAAA1kAAAMiCAYAAACc5AkxAAAAAXNSR0IArs4c6QAAAARnQU1BAACxjwv8YQUAAAAJcEhZcwAADsMAAA7DAcdvqGQAAP+lSURBVHhe7J0HYJRF+v+/m14gjRKaJEDoHUWKQEBEISKCCljulBMPPPQQ7ux3ev70f3YFUfFAVCynJ6AgIkU60hSpgVASIKGHlt7L/ueZfd/Nu5vdzbubTdhsnk8Y9n3nLdPeMt93Zp4xGAVgGIZhGIZhGIZh3IKP8sswDMMwDMMwDMO4ARZZDMMwDMMwDMMwbsSiu+D2DT/g6LrZ8MlOEWtV9SI0oDwsDh1vmYGBN9+p+DEMwzAMwzAMw9RvzCKLBJZh8yQMaJkpN+hlx9kIGOMXstBiGIZhGIZhGIYRmLsLHlk7S7/ACowCEn4Gmsejf4tMHPr5PWUDwzAMwzAMwzBM/cYssnxyTqDE6IfyBm2AEd8D8Z8B/mHKVg1BTYDRG4Fmg2D0DUJWWTjKc04rGxmGYRiGYRiGYeo3vi8JaGHnig/RprEv/AbPgTErGb5BkUCD1kD6NrmjJKipEFgbgPA4GH8eh6zUnSg2BuLwxQDccPt0ZSctJ7F+/mKs270bu6U7CZ+2XdA8WNmsl4y9WPLlNhS5cqwznFyP+YvXKXHNRNT1bRFZI2FTvqxHljPndEM8Tq6fj8Xr1LKocCd92qJLjWasNdbXxW5kRl2PtuKSuza4UB52yNi7BF8mBeN6c2IysHfJl/hxq5LWkz5o26U57AZD1+Aegzg+00ac3BdPhziMA1FL8agpzOkzlZEssx+3mq/F3ZlRmvJzD3Tv7TFor3EbeWgVL314VllQOtdn1fbzpObRPju1z0vLa0d5Z8gtVsh3y0n72xmGYRivo6IlC0YE+RTAUHQFZRFdpVELRHZWtgqCo4E7hMAKawfjhvuRm3VFCqyqiULf8VMwZcoUjO8L7Fq/V1Q7nSSyN+6Zcg96u/R2okrIEuytKlASMWuBESKeFNcp46OQeVL4Vyvs6mAVbzfEo81wJW1TRqCdplzuqf3ECSrCJze8jeJdlxHX0Prj7TBeTQxdU0JMXr2+Ip1ThgOpdF3ZRAiy3Rno2+daZoYnxEGLzvtXN5bpo0ry4l2RFfe9cCOwFvPX2y0kl2jTth2On9CcMyNTxOQqjqdWJCwjMwNRURHKWt2kzfDxaHd8vRvLywMQ93FmW/X6GIHIXRXpy7x6Fe1GqNuGo/JdQx9Z5mP+CYhnLsMwDFOfMIusQJ8ihPnmwPDr0yg5twNl53eIt8JEoNOfhcBSWrAatpUCC10eQ8iYFYBfMNkYhL+hRDmLYyJ7X492V49DU6/wHDKv4mpUFMxVHCFqentKPZOpE2SkHhf3TKzypVpUrtbvQqSogFkISEfXVUYqjkdefw0EvQZPiENNok0fiWIpsCwrxyQU+mbsdq9QiIhClBRWJuhaiezbF7iqjoPNgOnyqesZH4ne10di1x73itRrisU9GyGEsLIoEeXqUBeL/LhHCLDhbZV1hmEYpr5g7i6456f30CM6BwWlfihMT4Tv2dUIuLQNKEgHbvkWCKsQWGg+BNnrp6P8ahIi/DJx6GIIeiX8TZ7Qkkyc3H0ewV3VrizadVM3l5OZSVi37ryma96P2Kp026noQmbVJcZiP20XDfpqWNE1K1O8DU8uXovjKMC5JOFH3YAMezB/fVblLluRBmRu/QVJlbrOacNWlqOKsG2xKXyKY2RqRZeRiq4kVnG2WLfMF4tufLKrEnXTsoq3ddetqvLK5zx+/NHU9bFyd0A1/Oa48NOXSArWdGOibi0yfwqx3SqtFuexWQbW+W+vC6D1dUGYjt1WpIRhjoepnCrnEZ3YhfKwmR6r+LiUtgwc2XYSUX2uV85xBNt2B6PrLXa6B1mlj8g4sg2ZzW9Szmsrj7R+duJjM+6mtFfca5FItZOWquNAWPrXXNlcEP7W94E4dzWufYv0XUjCVkNb3GI6WEMwCs9vxSF5LVIcxDlt3se0bqscbPg1D0KRSENmc1PZ0bUS3EdUvLeegEGW0QUkbS1E80HK9VJFGrVlmWEuC9q2GOtkPsFGvOzlsyl/bJcj4cy1RmThZJJIi6NusfbQnPOkjw/O/7hNyWvrfHexHNQkWaB3P0JbTkIY79mNXTL9la81S+ieyUCkOY8YhmEYr4dMuBMf/aWdMf2DpmZ36YNGxrKFjY3Gy/uMxpJ8Y/mascby02uN5aVFxoyVk4zZG/9uLJjXwHjlw0jjJ9NaK2ex5oRx3bzFxj1XTWtX9yw2zlu8x2hapW3zjIvVjcr6uhPK6tU9xsXmY7XnsTyn8cQ65RxXjXsWa8+nUnn/ijhYYzrHPG08KoUttqvH07m0aZDr68RecsUy3Ern0W5TcbSP9TZHeSXiqG60iJOK5ly0vSKxYlU9r3IeNa12y4NWlTKwOpd9lHObnTbPaFn9tYU2bOU8ustDT3q0y7SqN210nCbOdH6715mAzmex3ep463hINH4242Mn7tLfKl9spsVWHLTlpHXWcSO04SvHurVsCNO+5ug7de3T9op1+TyyU6a0rSLvrMNX1+08c+zkr8W9paT1xDrlXBbHmNJhXrWRxoow1fiY4lJxCltxMB1rO5+1qOekZf3PVcs4afNdL6b4qdGW5WORbm1cdcTRTjlUQu9+AirDynlBWMfPGlfzhGEYhqmrmLsL+hnKEGQokI66ABoDIlGWsB4I72jRgpX181QEth6GBvFvoei6u1Fq9EexcPa5il2L52P+/PmmsQ/39NZ8yYuq6B4ju9K0Q1u1W0Zkb1zf7mpFbxoVZSyDes75a4/jKu1E3YCutsP1VfVzajMcUyzioEXp2jG+LzLWzoftYRlR6DtcOb5NWzm2yZwGuZ6BTGe7GVGrBqVFfrXXQZV5JeKojqmpKk60/fgJmJJ6Eicy+qJiOI4mrdow7JUBdYk6vhZLdPWz0o7JUrtrtcHwEcBakQ8YYTW+wW4eOVMedtKjxS1pU7h6FdanN2N9HZ48gYy+fWyM6bCDrfjYi7tEky/20mIzDtpyUh2N6dNQW2VDVOfat0pfZIQ5913D3jPHTv6ax2WJeByPjJBpFbvKcVkW47F0pNGcjwrH1y/G8XbjK7qm2r1eHeSzrXK0l0aH1xp1qbPxzKFWKnl+cuuVZ44GOmdUxfNHdi83LTrGmXKwFQe7eaWFWrvmY3fUeDtjWNugrchL7Rg7hmEYpn5jFlk0rirML0c66gIY2vMRoKQAZT/fjZLIG1Di0xBZa6bANyAUAVFxyN32IopOrJLHGuT/9tBW0mwNDHaFdhYD1ae422qCqHwM7xtlOVC9pqCXvtngxniIYGuZNujTNwO7RQUjY+9uZJjHFFljXWmyUQYi3+4Ry8Nhqqy5zXZAjeSRjUqgGTekLTIW7aKOQ98lJCpwu0W12qLibD32QyArtpGQ2sBufHTcGzaPtRUHHdR62biKjfTJyrX6gUFLNcdH2SsbCk+U4UmRuHaKgoqMFTLiamo1x2NdFS5KI3IEuq5XTT67VI72rrVMERflOtWixMm0v7veBQ6wlQe24lBlXpHAWg8Mr9pIULWFO8MwDOM1mEWWGYMf/Dv9EQFZ+1G2PB45qduQ+dscZC4dg5KTP8E/eQEyvh+Dgv3z5e6y9cunUC5XC/llV1MpFS/93cc1X3NVlP1IFFigVGor+VtDX2uX2LBweHKvZqA7VbKuVtPSF1WStV+JT1h95VfQGtyQX2Slr2P05pVOZEXv+B7sqVTR03yZVb4WyzDslYFCZO97MF7U0ujrvHOcxHpZ0aPmLM2XblfyyCZ20qPF5bRZf70nAwDtcNy6RVSU1V5a116HFJdKxiaoknrVwhrnyT27cLVdW4vKqUV8qoi7NRbH2oyDDmqzbAhXr31b6ROV6+vbHcdai+cBVagXY5d5Xwf3cRXPnErXCu2PXVi7S0gi9dFC6Tm+C7u0osTpNEah3fB7pFVE69aYyternXy2V4720ujoWpMtUhojQnqhc17dBdVmBn30qXhmurEc7GB3v5N7NNeDHWQZCREtE03jxdxpEZNhGIapi5gNX+xfOQu9orOBro8J6eUPn8jOKEBD+La7Bz4hjeFjLEHD3lNREt4d5fBFaL/nEFBwCqGFx7D/YrhOwxdarLdFom1bH+z5URlInVSIbuNHo7Pcpt3XtF/S2rXmQeGmQdrN0bxLFM6L49X5l0wDmCNhyNyKX2hQM+0XmYHd54PRtZLhi0IkfanO3ZSEcy1G4I8Dm4sN2rCt4+xoPVjuv26tMu+WQVSEMgorn6d5JHyS1mItxe9CMFoEi33kYG6reLcVr27zufXmla11wsovWOTF+XX4PXgQRndRaxK0TyaCg09i3bqtIoxzaDFiPPrIzXbKgIyKKPOMJZ1rgUGju4g9bUHnPoSDZMxAOf6kTxSKtq3FuW634KbmzRHpswc/bisyGYYQZWg7j6pKq3bdUXq0+7matmAEFSWJfZtXDH6PbCvKTVNO5C60xE03iTRlnjRfh4UWxiYqiGzbtiLd4tgThr4YP7qz6bolkVYpPvbuDe21Y/tY2IyDdX6qaPztXr/Wxzpap2X715rlfdDGpWs/iD4W2cxj8Ywo2obF5rmOxL1fEIW+t9yknMPRfSy22XrmZNoqG9O5gopOIqmwHW66Xn3+UPpE2UbdoDHA4dr93blLW3EPLcaPST5oG5yELyvFwUE+273H7KRR7G/7WhMnI4Mihc0xyDqzq0ScM6oiry+07IYW5zIq8tpt5WCFzXupgozUPUg6eMgUruIqDLMo7wyZl3+EfGVUKiOC/NjwBcMwTH3CQAOzaOHT54bi4TabgR5PwliSA2O7+5Gz/3MExo1B6ZUkBF74GaWd/oKcDTPgGxaDsBufgPHUauQeW46lp3pg8uub5AlrBvoyeAJta6OLST2FLIudaDtFY26c8nw3osZfiznCaoJaSE/GXsheRXbH/NlCxGtJJvo4dYy7udZxqOmycTJ9VI6Ld+Gq7OrsLdc/UQv3gGwJlDeBG8KojfgyDMMwTM1g7i7YacRM7DgbAWPSRygMjkNR1lkUn96I0jObEBwAZGdelfNnBff4s5xTy5h3HrmXT2HX2YbofOtM5Sw1BHUNcaX7CaMP6upiYfDCXVAlSR1kbjXY3BuJ7I3h7Y5jse0BMHZo46Qoqwk8IQ41iZPpM4/b4cq9s5xcr+1qyTAMwzD1F3NLFrF9ww84vHYOSrNPkWl36UcGMah7YJliiJCMXAT6FKLIGAxDwzbodutjGHjznXKb2/HaL8qegjL+5Kqt/PW2r8j8Vdxz4bKpHepaPvN1wTAMw9RdLEQWwzAMwzAMwzAMUz0qWxdkGIZhGIZhGIZhXIZFFsMwDMMwDMMwjBthkcUwDMMwDMMwDONGWGQxDMMwDMMwDMO4ERZZDMMwDMMwDMMwboRFFsMwDMMwDMMwjBthkcUwDMMwDMMwDONGWGQxDMMwDMMwDMO4keqJrKz9+OGH/chSVq8ZnhIPhvFk6uJ9wvd27cN5zjAMwzDVxmAUKMuVoZftsn3IVFZNtMHQseHYtwkYOhTYRL939kS4stWt2Aw/Ar3G3ome2gBpP+v4qH7uiFuleIg8eGgIYpQ1XWjjY29Z2VUX7kyfM1jkhQv5oBd3ps8izkQ1y0/x0oXb0pGF/T8swz7Lm0ES0Wss7rS4Iezgzjy1hVU+y3jFplYvTD1x1u5T02m0R6VwqbyEx/WxSN19DeKjYis/qsqja5WHDMMwDONFVC2yruXLWO/5be3nzrhZnyttCz7fF46xrp67pvOtpqmN+Hty+TlDTeSVq+es0XJLw5bP9yHc/AFErG8BhgyppgTXE+caTZdeFFE1VEm/R8RJYCseVcXNU+LOMAzDMHUY35cEynJlitJxNBWI7dQMQYqXhF7Ca9LRPBZIVbeT37dr8Ov+/di/Pw2GNp3QzOIgF7AXPqEN78gFFAY1Q6fm6VhD8eoUjKNrNiE18wKOiO1phjboVJ3IWMcjAsj+NR1BvWIQYZHubESSn9gla/8P+HbNr8JP+KcZ0MZe3IqKcXT3ZeFvnYfKuZS8Lrq4Bms2kf9+ZEf2QozB5N9cOW+l7aZIaM6nxMNWXjqLNj/sxU+EXykPKqVRuU6KtOegdEcgrTbKr00mNluEa6c8SZSJWqfDNMgTk9D4AZukP+VDG2TudGM6VKzz3zq+tI8tf81xRbbKRp7cVbKQtr8Izfop4Yv/Y0wXgeY6PYaLRzdh069K3mz+FmvksuZ6VuOhHqd5xljE2ZzvQty4434yRboaBCG46Cj2ZTY3lXH6MRwN6oSewUcr0mURH8trv2L7MQTLMiTR9huKOqn56SLW1z5h9/pR4gRlu1WZuS+vGIZhGMb7qVpk7duHffIFrDpRWekUhAv0EjZXgIrw27fp6PTQnYjv1Qu92hTh102aCpOr2ApfVggpvJ0IHvoQ7oyn8AxIs4hPDGKaC78LzTBy4m3oWd2KrVVFJWv/ZuwsbIZeVvFoY9iH1ceC0SsiTVTgDOiv5EfkxWMoFHGQeWYdt4aXlXPbOVezQpkHhl5KWiOzsWlfJtqoaaVfW9vt5VF1y4TQ5odSRpXCFxW0TdZ5EAMcsHWdWKSBKpVBaFYb5VcpXCGSbJVBz56a/LN3rQvx/MNqFPVX8kFsi4lwczpUzOmxc83EZNlOB11LdJzNsqlmZZ6OzhaVcRIu2ZEiDsrZ1LjKvL6AZiMn4rZm4hrZdKRiWXs9q9en9jjFP7xZJ5mv0kVexJqjEOFEW+axq/eTG+6LoKKL+DU9SKY97cAmFDXrh5ggbVnZuG56CjmlfLAxHP0VWcHBQl6JZ0REOo6J9FX7flXuT4tnqPpRyl6c1DzXllk/Ja82pVUIeYZhGIZh7FK14YuIXhj70EN4yOxsjGXJykQGTmLT55/jc3I0LiMzy2oslYtYh09dWCg84d+zRgYD2SFzH5Yp6VuWGmvqamYVj3BRK4k4mYa08AhEyvzYIqrtQMwQHeN/7J2LVrRpjQivXMGxtb0288hW+LbywNF1UtNxtVV+5K8N11EZqNhLQ1YqUlFL+a1iL75VpcOV61MHMUOUezQmzZQ3WyxyTuR1LGIp0+ka0S7LjTqgVhc13zedBDIyhSCxg6M80Ja5M+FXhRCqbWQY4nrIaEOrFdi7bkhQtckQ14+4RLMiEdMzHBlpIpa0f2SEe7rrifRaPEPH9qp4Rti7H1XUciIofeIIiivDMAzDMI5xnwl36xd5TRlEuFZo01flWIUYDJH7xiBNVmBMldlaxbqyVOvYyYNrdZ04VX5VUOev9Rq+PmOGiHMPVQSHmyCBtSwVsWOVPFeFgkehCKY0IbgjxbLia8bOdSN0ntA7Iq8yhOALF6ImQyyL+zfSQqXVEHX+WmYYhmEYz8Q9Iou+jGfuw/7aUhIyPFGRUb6oZqWm2hYUNS00rNIt49FGVK5EhXDLfoocVWbHoleEqHjlmPYxYx03e+cyrToPfXXW5FGtYysPRLXYqeuktoWinjKwd61T5Rh20lZT6bAX36rSYatsqnudkAjStlzJliQnW4k0+STjrCyb0bSqVNpe0/eTTmJiIrFv077KAsnedSOgVjbs24cM8Rsu/miVGrPEITWLgzjZRETqpLZli2EYhmEYu7hm+KLSeImO6NjGgH2r1QHUwrljML2t8QSiRmBo0w/9ml3EmtWbpN+F4OYIKgyyGL8RFNQMwcoYEbcbTjATgRhNuo9caC4tckUEFSFtzWrFAMIRFHYaifjozIpzaOOGSCDXr1Iems9lHbZ13mvTrN1O56NxK0oeVYzDsE6Dk8gWhX3ILCRDA5rxedbh94xAunUexERb5Jf5OrFOA1Eb5VfJ3055Wuxr71oXFfjmlv7SSEC0G9OhYicuFfG1kw6HZVPNeAUFo2jfamnIwnS9FaLTyHghapQwtWWszXdznHoilsZNKYYtKt3TYnvExTVYTWO+tNvpHO64n8zXQDURF0v2fgNi5Bg/gfn89q4bir94Xvx6Ac3695QGVIKK0rApNRz9e7ohTrbSV1WctM8W7fM3NRJDJ/ZDtHIahmEYhmHs49iEO+M9kIW8tBg8VF2T2vWV2jT7zjCeAH1QYVPuDMMwDOMSLLK8mLQtn4PsA5iowYmDvRoyy74JJ2FjEmyG8WZYZDEMwzCMy7DIYhiGYRiGYRiGcSPusy7IMAzDMAzDMAzDwJCdnc0tWQzDMAzDMAzDMG6CuwsyDCP5+eefceuttyprDMMQfF8wngpfmwzj2RgyMzNZZDEMg19//VW+sLOyrtXkagzjefB9wXgqfG0yjGfDIothGAm/sBmmMnxfMJ6KM9fmwiMBylLtM6lTsbLEMPULC5EVEhIif/Pz8+UvwzD1B+sXNj8PGIbvC8ZzcebaJJHVq3GZslZ77LvsyyKLqbdUsi54/vx57Ny5U1ljGKY+w88DhqkM3xeMp8LXJsN4DpW6C6o3Z//+/eWvOyg3luPDXz7EJ/s+QXZQNiKaRKCosAjZp7PRMrglno1/FmN7jFX2di/eGnZpaSlctVliMBjg5+enrNUNduzYgb2798jlBmER6NV3AAxG577KlcOAtSuWyq99Pr4+GHPnnWjRooWy1T1snjMH+z/5BME5OWgcIcq7uBins7MR3LIlhjzzDHqMdf1aKysrQ0FBgbKmj+DgYPj6+iprjrHV9cTV54GPj4+8Pp25RimelEZvIDAwUN5nWgoLC5UlprYoLy+X12J1cOd9wTDuxJlrs661ZBmuXEFYu3ZyOXfDBpT16SOX3UFZWTneeWc24uMHo1evHvJ57QnQ86q83CjqZ7546OtSfH5/3aqn1WWKRV2N3tn+/v6Kj3uo9pisQ4cO2X6JichSFaO4rBizds/Cmrw1GHHrCNzT8h4EiT9KTHpJOj47+BnSdqbhsY6PYcaoGaZjdVJfw6bKWmpqKsLCw2VYEiVcM9brGjIyMhAbG4ugoCDFp2rOnT2LXbt+F2k2IEA8kJo2vw7lJPSU7TIsClMsUBrlL/ma/sllHz8fnDmVhuKiIrnPgIED0ahRIzqyShYvWoSvv/4aXTp3QY8+1yPhzolOVZ4oDqXlpXjp6Sek8CDuu/8+dOveXS5XRVXlXSZu0N3vvIM8svY0ciRa3n0XfENDIHQ2ii9cwPnPPkOKeIAahLAb+cQTpmOdZO/evTLueh8CJSUluHz5MgYNGqT4OMbWC9tVfvjhB7Rt2xbddebv/v37cfz4cdx1112Kj37og8Hu3buVNYFSJnqgl9oV8TIfPny44uM8ubm55jxTRSV11wkNDZVxI+GYLYQ2rdN1T9AvrUcIIe61GIuEyxWKW989XhNcEPcePeeqk8/uui/o+JLSMnFtFMBo8EGgvx8CAvwQFRmp7FFzcNi1H/aVK1fluzq/sEg8F8oRJN6bweJabNQoyql3lyOcuTY9SWT5L16MkD//GcawMMXHRNmAAcj79lu5HPDxx/BfuhTlPXrAIN5j+QsWSP/At95C4Pvvy2UVg3i+Fk+ejALxDtYDPZO/+WYROnXqiKSkI7juupa44Ybr0bBhA2WPa8POnb+Lyn4JhgwZgEX7yjGhlw8WbjyDYV2jENPU1BXUm0jPLMaaPVdQKu5RS8R7VPyj1+XtN0ajaUTNjiekRouNGzfKD73x8fG6P0zrodpjsqhOUVhUKCsN9OAwVbAr3MtrXsZnpz/FwBEDMTBioHzo3Bl5J07nnkaiIVEe882pb3Bu7Tl8c9c3GNhmoHLmqqmvYefl5eGsED0dO3Uyha8Jl5C/tC7XlHUNiYmJaN68uazk6eXnNWuwccNGnD13FkPih2HCg39GgyDN1x8KUvNripMpbKHLRHoNyMkvwvwPZuPM6VO0JxJuT8DgIUPksj22b9uGPXv2IPlYMq6LaYsht9wGH/HC8vMloWG+dB3j64Ofln0vHqChOJOWihCRbhIgzoisqsp7zb/+hbMLF+KWwYPQ6OZBImZlMJaK48S7hWJJeZL+3/9ihaj03f3NN4gVLxNn2SbyIiEhQVnTx48//ige2I7zWMX6hV2dsSeXLl2SeVwkBHWbNm0UX9tQ9xYSjiRESJg5Cx2bk5snr7FKZUM7WC1rIf8N69fLB6srzJ8/HwcPHhQVtwApgEeNGoWmTZviyJEj4nprKP3phU75QYKT8nLJkiWyRZLyhlpSn332WeVsXkR5Bnzy3kZ54BhRW+qneNY+R48eFfeuEU2aNNH9Qcea6t4XJORTU9NwNa8UhWV+MPoGw+DjK54PBQgwFCMiCIhp3cqpj1564bBrP2x67h0/cRL5xUbklQXB6B8i34dlJQUIMuYjNMCI1q1aIiysoXKE6zhzbeoRWZRv5WWl8BWPyTLxxPQReUbP1OpgS2T5rVuH0AkTUDJ+PIoef1zxFe9K8W4uV94BPseOIXTErfL+LXrnbbkvYRDvUB/xPFXxW7sWgR99hOKHHkLhP/+p+DqG0rlo0XfieW0yf3/mzDkcOpQk6kQNcOON14vnRWPpX5tQnBYv/gFdunQU74ouKCs3iqqLAd9sPY+IUD+M6t1E2dN7+GTVcWQX5SGmufVHD1Pd7kx6JqJCGuIPtziuQ1SXLVu2yIYHgj7M3XjjjXLZHVS6e5ztz2tQKjbSiQeJ+Ve4Uxmn8L/Eb1DerRwR/hFIykvCgUsH0LphawT7BONQ1iEczjuMDpEdkN01G9O/na6cVR/1LewS8Xw8fqkcKRfLkF1Qbg5PW6mkeMhfq3Vr5yz0oKPKIn1lMYqHgZ94Cl/MzEG6cPR7MUMsk7tq+j2fkY3zYvn81WycvZKNM5ezSOuI85TL85ArJ+VSBSQm14lKcIMGDdC8ZUu079AZcR27Ijaug3Adq3Rt2gvXrj0uXzqP9PPn4C8qva58pXBU3hmnTuHQokXoJrI1rFcrNHngDwjt2hr5R5JQkHkIocPjETR4MEI6dEBX8TJcNN25a00LvcD1QvtW94uMq/37qVJ7+PBhREZGOuziKK8DcT1RZbgqMeYIX3Fxaa99s1PLzMr5Ko6WqwM9nKmbAX20oDQfOHBAppvuFxKN1JJILcfUokX+9IGD9lO7qdL+7qLo3DnsGjgQx/72N3mP2oO20T60Lx3jdkpT4ZP/Bnz96EOI+74IugIJcLoGr169Kp8l7sKZ+2Lv/gM4n21EcYNYNGzaFtEtWqJly+Zo1DwWvpFtcbmkAQ4ePio/nrkbDtsUdrNaCpueZ/v2J+JqoT8KG7RFWNNYNGvWDC1bNEOT5jHwbdQeWeUNcSz5ODIzM5Wj3Iurz2x6DhcXFaJpsBGD2oUjsCwfhQX5QnTVTOtXebt2KL3+evj/+CPKuneXThVYRLl4X674LhHzZ+8wCyzCKPJT3d9H3NMkxkpGjlS26ofejfRcpt+YmOuQkHCbFDjbt+/EsmU/4vTpM8qetcPJk2lo3DjKXD97+H+mfA/wM8DfzxeXs6tvPKSkpFS8jwuFCC+Q135OTq54T+UIkZ5tdrROLjc3T77HapLS4kIh5UsREOyvOD/FmdZhLENebq6yd82QnJxsHlahulOiTucuLGoY9PWDKgLOICs1SmXFQE6sy1/htqRsRmaDTJSElGDnuZ3Yd24fDp4+KLtt5eTnYP/Z/dJvz8U9MDQ14IrfFZzL0v/Sr29hbz5ajCW/F2JNUrHYv9wUpg0n42TDX3WE+qsXutnoIdxKCB0aa+YnREeb5hFoK5z6K12LSPEbiXbSRcjfOOHXplmEOI4e5KbzkBMnVc7umK6duyhL4hDhCotLNa7EoSsiZeoGKL/slffxzZvRUIinBgHFyEjbiCsnEhF124MoHdYVDcf9EU0GDMbJHeuRe2g/morjfEXFO8vFym1hYbEUulVB+9C+1cGV54EWajkICwuTXVvtQQ849QuSs9ekGSoLq/JRl205VVypyxcvXpRiR+uWL1+unNwxJGRvuukmzJw5E48//jiuu+46KaDsuVatWmG6ENl/EyLn7rvvdko0O4LE0u7RoxHZsydy9u7F4b/+1abQIr8kEc9MUQmLHjZMHuNOoWUs3gO/ovni94B4P9ZMJdIZ6LlFXUHoxUm9CU6cOKFscR1n7os9e/aiyNAApQ1F5d7Hjy5VlJSWI7+oDKVl4mlGHiFNUBzQFPv27VeOcg8ctils8arCsQv52Hk8y/Rhr4bDLvGLQEkDIajspTu0GYqCmiEx8aDbK7HVeWbTB1ApqkoK8PXX/0X7RqKiS0KrsMD0vq4BiqdMgTEoCIFz5ig+lpQ0jEBW0+uUNUv8tm6F/1dfoeA//1F8nIOe/5cKAs1Ci1yLFs1xxx0JuPXW4bhw4SIWL16KY8dSaiz9KnQdUDjUbZGeV8TtXUzV8zJx/XRpHYl9qdV/nl65kqGIqSwh8rOFy8LVq5nylz4WUjpzcnKk+CKRSb81SXmpEHx5+SI+JPTIUdd7k8sWjq5n2qemoLRSHYTqKtSzhBx9lDsmhDuF7Q4qfcalwZLODOaVlU3FWXxBFi75SjIKIwpReKEQrzV9DR91+AifDfwMjYMbI75NPOZ3ny/9Hih5AOXF5SgKKcKBs/q/7Na3sEtKjYiO8EVMYz80CBJhaSqL5NT4ENplQl0nd/RCKT5Yn4c5a/OReMZ0Q1eFKrLIUUXN19eAAD8fs/MXzo+cuKLopSaOkC+0krIyIXZKUVRMLxnqimA6hzyPky8YOi3lb3hokMYFW61buobB7unLq80/6/K+LF5q4UUF8A0uREhxMkqWjkXa1iXo9sd/oOVNCVj3+kw02PL/4OuXBoNId4i4kc+60ILx22+/yRufvkQVFhbJhzGJVhVaJj/aZvpalS+PqQ7OPg+0dO3aVY616tKli2yCt4ZaeKh7YFJSEnoKceAq8rpQrn9ZJrSsuS+kU/ytHR0THR2NXr17Wzi9rWp0PL2cVWj95MmTUliqLi0tTTr6OkYvN9pHxlWJQ3UpFCLpVyGWmvfvLvP6+j89hOLTyTgoxJRWaNFy4mOPoTjtCG548A/oEBODNneNksfSOapN0TpRKVuO0oLtMJZepsxQNlwb1GcW5THdF7ROZUVdOauLnvvi1KnTKCwDcv1bgAbaGwxG5IvnYF4RVbrLUSCWi0vIHI+4fkObIjCskbxf3AGHXRF2QUkZLucbcT7bIMOtqbDPiXuoWDyOc/2bVZlu39AmCAlvggOJiaaD3Yirz2y6V6glq7iwEOnp6XjppX+hx3Xh8C3JQ1ENCq2iv/2Nxq0g4JNPFB/gSLoB3+7xwb4zwNks0/Ivxyuelb579yLwnXeQL0SWK9DzN8+3KRYnNsDqlDAptKhrNzl6RlBX7759++C224bLj3DffvuduE4SzQLI3Zw6dQbh4WEybDWf7+5BV4oQWcYyRDYMRHZ+mXDV/ShnRFRUBBo3biTee9SjohliYlohLq4tAiJa4UhOM+QFxyG2bZwcO0j71yTlpUWyRU1tPdO6LOEKCwpQVlIzIoveB+vXr0fr1q3lBzito9Znqjs5W0e1hcUbnvrzqn169WKuMNAvVVo0zhgqIkjdjk3XSpWUh4jKd4D+G7k+hl0kHtIFQpiJZ7g5DrYcYW890B9oKsRaYKABp6/qa+mhCrzaza9UuOLSMqSczbBwx+n3nPhV3InzGTh5PhOpF7KQmp4pRKI4ttx0DlM3MecvYDqCwtbrSiij3ICad7bKO1g8FMMoGGo4Er+ZuUbhLw+T+AUYEdzCiIDmpvUgsX+gCy8sEk3UhK+6vLwC2RWPBJXJUReAAot9qvM1xpXngRbqqkXd5egFRg8r7QuK1klkUTdQEiX0Wx1k2SjlIQWVppxUMSMd+dtwtE3tQkjOFeg8NCbrnnvusemo5WrcuHEW4bqDX8W5Kf4tmrVF7pUrKD6Ris4Jd6Iw9Qg2Tp4sxRW5zWK58PghdByegNILF5EtKoVNgqPQ9p7R+FXTHccVDAX/g3/ZWpTkrBL3gHLNiZvVp2Q1fPLfFtu/BkrTTP41CD1XSMzS18mUlBQ55obyhqDrj+4R8qPWSldfoHrviytXLqPMECDHBBlEZuQWlZkq2+KXKtxFpdTl29QdKMjfIJ4TDaSxBHfAYfvB31c8ksXzXwSHnGJfXCmiliV6/xkQGuTr9rCpm57Rp4Fl2GX03hSO7kGxjzZsn6BwXLpYMbbIHVTrmS3uB/oISvcQQd1rX/6/l9AnNhKGolwpwGpKaBW++CJ8jx2Dv2L0YosQVOuP+eK6SCO6Ny/HrlO++HKX6WMWdQ8MfuYZ5C1dKtddga6D0+gong1ATISppZuc9llBjvKyX7++GDt2tEz7kiXL8Ouvv8vniDs5eDAJ7dq1kc8k9bmkdhekj9P0gb1rm8bYc7z6rVnyPahxUtgZDdh3FugZnY+ogHxsOlqGC0XhsvdRTZKZW4K8/GLZalXZ5Yj6SxEyqy0sbbN9+3YhNhvL3iRqK5bqyI8sTtJ46+pSqTbh9Jgs4cwVGvGrVnDIDWg7AP7iD+HAvSn3YuhvQzF0zVBcyLuA1SmrMXSrWBd+rxe+Ls8VGBqIVo1ayWU91MewTSJLiBTxrKNwVUdof62X1XWCjiWhViRuXL3QjU8PGXK0TIKpUViQcMGKC0KUsh5FrmEwIqULMrkGQfIY9RzqeZxGHFNQVGLlROWpkp/JUSuaO3BU3u1vugnlQkjkinf1pct+iLr3G7QeeA+Off8ULu5bgqF/m42IhL/CKN59ReI8DUUlL6qV/mtNhR7s1NSvNufTr/XXH+022re6LwNX+/er9OrVS1Z227VrJ39VqNsWtbrQF9O4uDjF13Vk2SjlYRZWyrp0SrnZcoS2CyE5sUH660U9j/ac6jLFp1A8uMkV0JeyIlOXz379++PzL76QlS+xo4UjYaqXCHGeTFEhunLpvHgxZUmXczQFccNvw7lTx/D9Aw9g8f3340raUbQbOgL5p8+a9ysMDcbpX7Yhop+rxilE7PM/gG/pVpTkbjStEyINpQW/obxgg9BcP8KYNw9+Ba/DkPdvGMvSTfu4GbISSS2HqtVG6qpKZUn3gFqu9Nwhca8KLXqhuoKe+4K64JT5hiK/RFTYRLi5BaKyJCqwBaLWT4PaqSJOvQAC/X1EpdsHAaFhcsoHd1Dfwy4S75rtxzKw4Jer+Oy3fOw654NTuQH4+NdCLNiWha+2n0dogHvDpudtkU+IKeyjl7Bgczo+35WLz/eV48sDPvji93ws2HoZX/1yWoYd3KCh/GDpbqrzzBZVfPmnQi3wr/77/+GGdo3EvZxdo0Kr4I034Ld5M/xXroS4LHBHt3JM7GNykweUokkDI3xE2kIeegi5P/+sHOU66SWNkFNgRLfmZfLZoD63SWRS3UR9ZpCjFq4ePbrhnnvGIjIyHCtXrsHmzVtlmVeX9PSL4vz+4plEhsRM9SzC3F1QVNho2EOzyBAcv5Ar6lHVy3/1vaSmjd41h9J90SqUPo4Z0SCgHH1bFSJM1Nl2pTfGhRyTuCUOX/TDmSxfzRVSPTLyxHNBvA+zqS6jOnN9Jlc8n8uQ7f4hm/IDAhmjIoFp3YqlOoJ64NB+1cFCZNFXb6f781KBiYKShaYUnnTCb0TsrSZz2VR2FBLVG8h6Nl3LtEw9ueiXSkykiZroukV2Eys6qYdhkzAqlC1ZRnOYhK1f62XV0bFSZAnBphetyKIWKLrRC4SAKRCVRZMzjZEiwVMxXsrSUatSxTlcE1mU1xE2ugXa6zboru6CIuPslnfr226T5Z0r3tWGyAg0juuGI5/MRMnqt3Fh9n24smcJSpvdhIyTsrhleUd2q7q8yUjC6tWr8csvv0gT5ZRn9FCnigQ5WtYKLHLW2+kYOpbOQeeic+rFpeeBFaoBDKrMkpiiCi6dl74g0cuM4uaKRUFrqBxkuWh/lfIiJ/dRlq2d+rLROtMR+qBzqL/Wy+ToOle7eNIXstJS4coquq9RPlg7at3TS4+330b0uHE4tGktcrMvI1+IJ3I5h44iflA80k4fw7kzKeg3cBDyUk6at5cEGrBvydfwb9tJnsN5yuGT+7IQWPukoDJDeWAU6ShOQVnhHuH2S1eU9Y14gG2BT87fYSw5quzsHuhlSGIqKipKji0gp36RpHtAhbqm0PVHL05qaaWpGSi/nUHvfUHGWHypaVuEfzm3VFa+pb/IHn/xn7/Y7keCQyyTFbFAX1G91cS1OtT3sOl81JsgMsQHjUOpm6Cpq1V0AyC6oQHRYdQtzL1h03OD0ifDFvdAZIgvGoX6oFEIEBVUjqZiObqBL6LDTWEH+RlEFrlXZLnjmW0NfRx78/XXcGNcY3Gf17DQmjtXtmb5pNv4ECPCDL31VuTu2KF4uE5WAcT72l8+g0nwq89tWrd+F2gdPa/bt4/DXXfdKVueSGitWrUWF6vRIvn773vQsWN7uezn52/OW3N3QWrJEnUuahntHNMYu5Kr1/KqTQ8JrIJSXxw7XyKuTxKXpmop5UPLMCPi25XifI4PNqQEIrvQdL9sO+mL1UcCRD3SdD49UGvuH/+1DLfPXIKRM7/HyL8txa0zl2FnciEK8ouRk5WL3Jx85OWqvXHykSNEVn5hMbYnF2DEjKUY+cR3wi1Cwoxv8dbnm5UzOw+9E8hcO70r1JYre45as6iOQse4ioXIIpztz2tR4SSnFqBYDiwLwH0t74N/mL+4e8TOJDpEwew8vxNHMo6YPuuTn4g/Ncv+vf3fRYQqRcku9TFsbXdBFQpf/bXlCLppVEciq1CcxzmRJcJUKoBqd8GzV3Is3eUcnFOWz13JxXlyV3NxgVxGrjjGJK7U89A5nYXiTy9MvY5az9yBo/KmgbstJk5EA1FpO7X0MtbG98H5L2Yj5zJw8PNSrOl3H3bF/wF+4t1H5d26eXM5n1ZVnDlzRjxscmXlkW5yssBHTdxkyv2XX7Zg06ZN4mGxARs2mBwtkx9to31oAmc6ho6lc9C56JzO4Gr/fi09evQwdwkkkUXduUhoUsWYDEFUF225yHJSykXrT856X0dOL3Q9EtrjrJcJ0wutwnpRJSe2a9edgdJ7wwcfoOGgW3F451YU52cIQZMlXeHBo0jo2w+jru+LgsPHpV+JqIgFtGyCxLVr4N+hB65//315DufxgdG3Ewy+GtPClF4SWCWnxW/lVqLS/F9RVrADvgXvie05im/1oGuKXoiUb+oXSFuo4kuFvk6T0FLLyBn03Bc0gDrItxQhgdSCJipzolhpTI6fqGCTyKDxqyQ0qGWHDGn5lBUiJNT17rla6nvYQQEGtBbq5pZOoRjW1h+RgcXy+Xdfr0Dc1zcCd9/QWMbLrWFHRSLYp9AUdpOGuKVLOOLbBOC2OOCOjkbc3TME9/VrhLtvbGYKW9wfNWFC3h3PbGtIuM1+9x30j2sihFZOjQqt/M8/h48Iz6AdJyqesz7i3ZXjpjFspeUGFJQYkZ1XiOXLfxJuBX744UfhVmDp0uXSff/9D/juu2XSLVmyFIsXfy/HZv3vf4vF7xLxnt0m36tpaaekPy07C1mYpGcSjceiCj2NgyorM/W+qeguaEQRfRQXLqZZOPYcr77IomclCSx6/q0/akDP6AL5LqM6mfpOI3zFvdqrpRED2pRj5+lAXBCCa2zXElF/NGLNUXHz6oReL0eTT6BlRD7aNhauUR7iGueid8ss8ZwgewOUTnIG0KgCciUiDF9xj/Runi33bdMkX7gixDQqxffrXLfKSx+b6SOvttVKfTeoTvWnjxaUT1SfchWR9AqoAkjOWeglpVZqtJUb+ro/u9dsDAwdiOC2wabWGyEs7t10L15Pet0kQEQ5hXQKwUTDRExoNkGezxnqW9h5heXILhDiQdx4aniE+ktol+lBqPYvpso2ORJXNIiSzqUXo3hZ0rlUkUQtWSEB/pYu0B/BgX5i2U/+Bolf1dEkkCR46IuGeh7tzawXOiRfaT2jX0tXWslRC5u7oHy1V959REU1TLzY2omXZkFKAY5vEQJrqUlL54u87yFcuLi3DEKMtV66FKE6TM7SDU7npnuSKoRkoOHnn+mF8L148C/CokXf4Jtv/ouvv/5SOlomP9pG+6xZs0IeQ8fSOehczrwIXH0eWENW9ahrFj28qIsgxYGWaf6zjh07KntVD1kW4kmuLRvVX/2152xtdxbr82iX6U9+YdeIKPmiU1521gKLnLNQ2vt9+CHCBt+GIwf2obw0FyUkqIQrTzyGskPJ8G/UCH7XXQe0jsbvSxejwY1DcKMQZ64JLBPG4Iko9b0Jfg0SRCQC5A1aXioqR+LlaDAEweDXRJzfcoCqsewKyosPi4fZp4pP9aCB6VRZpWec+mwhR3lPeUl5Tajmummd5jKjZyHNXaZu14ve+4Kue5QUICrUBy0iA+RveIgfGgrx0SDQF6HiN0RUyGl8DlVmyKobfXxwBxy2D6LD/REWZJDhkV9Rfg4ChboJFuEG+rk/7NiYGJQXZsvWK23YISK8EBFukHjnq2H7+IiKc06mtNbrTtz1zLYFGQj58P330E8IreL8bJQUF8n7rCYoHToUfhs2wFcxUhPy8MMop2eXmwgJoN48ogzKA6Q1wTvuuB2jbh+NO+8cjXHjxkhHrVV33z0W99wzDuPH34UJE+7Gvffeg/vumyB+x8vfiRPvxqOPTsZf//qofL86y6+/7kLXrp2l2KFuziRy1DxVuwvSOrUGF1MvppIytG3ZCLuTr8htzrItNQDbTvjI8MidzfKVc0yGBSqtWFZOJTTQgIQuRrRu5IPFBwJwU5tS/HJclJMQq3qgZ/F9N7fDQfEeOp9+FecvXMWVjHxk5pCooSEsPuJcvigz+gjnK5Z9UCKWi0T1LSO3EFcy8+VxFy5ehcFYgkGd6J3iPDTGiupVal3Y1vWr+tEv7aP2fiADXa5QaTJi6s9LXy30fgkh9U0tG7JiI15W2sonOaLAWIBHjz6KlVErUZopKr8F+TCUGhDQJAARpRF4qugp3FRwk9MVrvoU9tP/O4tzGaVIzyIzm6VoFGJEiybhcluly1x6iP/EXaIKGa2gOX85G1cKRJx9/NA0zB8to/zx5r2OH/ZLv1+Kn1askMtRjZpg2OhxyLNp3rMiHDVI+qHw6SHy8/JFyM8xfcEeP2E8bqtCbCxetAj79u6Ty1179Mbt4yYgUFMJrQhNpbJPsSinl56dgZBg08uHKmT0lcKZyYj1lLdR3IhHp05F1OrVyBA3ZwHdzGLfpkLklIeHo/Cpp1AwaJCu8qavWbl5uQgOqnhwU9emyqlzDMWMrPypFBQWoEFoQ5sVeVsTWzr7PLAHtWRRmNRlkB5W9OCia4LGbFUXKhs6l71y0S4T2mVi1apVMt1aaExDNx1dOicK0Tx27Fjcf//9DsPMFemlyrzZ0XZNfMV/ym0r/hdpOX78uDQH7yzUVWnrtGm4umkVYltcB0OZEG2iHA3ims8UFZaSwkxc9fNF4+GjMWjuXBkHd2As2gK/0hUoyf5OiijCP/QWIKC3SFe58EsVwoq6DyqW3AyBCAy7C6UN3hbL+idFt4ZaQ9WWcYLyUm0dINFF/lSZoO6BdF3TV0ky10sv0A4dOsj9qqI698WhpMMICBH3W3grWUkqKjHKSrbqZHkL/EqycPzoIQwY4L4WCA7bFHaxCHtXahZOXy7CX25uISpxpv1qIux9+w+gQUQT+IQ1d5hu//JcHD6wB0MGD5LrruLMtVnVZMQkmi5fvICYCF9s/flH2cXcFjRlxcNTHsXO5MsIahAO/4BAed/Zw95kxMHPPYecXbsUH0s+2ymeUQ2A+6b2h0E8O3ct/gVfHo3Ev0fb/mgaTFNWREfrmoz4u/3lWH6oHKXFgQgK8EFBaSHeG+eL/+0PRMrFUrw7thTLEo1yn0/v9XVq+fP76Yu6PugdSPNxjRlzu+zlQe8FMsKSmHgI8fGDZI8j6k77wY9HEH99O/iJ7VSnIiMqG35PxhN3VkxtUxV03IebgdkbgQ7RBmx+KlS+j99YVYg7OmTIjx4UvvwYSO8l+Sv8xD6+omzlPKHil475ZLsRd3UvxKyNfvhTvzK0jNBXK6Fn7t2PvCDqnn5oGBGFICFKAwKD5Pvbz5+60PqZ30f0HqM6UIlQYP6+RjQOD0ZxQQHyc3Nw6uQRfP/pawgKdG4oCN0ji0R9kroJUlrpXWBKs6kuRMsExZMc1SnUBgqCtg8bNkyO93UGC5FFqAMmnRFZVOjWlQb1ptP+Hrt6DIvPL8aJwhMIMAagn/gbG0cDCSOxS9xsrgid+hL2tC8uYPzA5lLZU+H7+QhHfS8cYefap0HI5fILhKn7xt6TmXjqNpNgs8f3332HFct/VNbcwwRRQR2ZMEpZs41WZNGN2KV7DxQXOjdY3V/cyLt2/GKufLkqsvSW99Vjx1AycybONm0KoxBY6NcPvUT++a1cqbu8acwOTQIZrAhD4t1333Xa2g0JBZqTSaVACH16qNADzRrrFzbh7PPAHpTfW7dulabRKY9IRNDL2h1fXals6FKnh6CtctEuax+gqt868cK3JbK04tQetkSW6gjTrwF5+Xmml5dw8vpR40rr9Gve1wRZx3OlKyW9nDZLkbUScWHixXTMcmxDQMdmSMksQNSwUYh3o8gijMV74Vs4H6V5P0uh5d9gBMpDnhGB3iDeXBmiVvEefMqE0MtdLff3b3Cr2P5XsX2wXHcFMqBCX5CpuyBBH3Ko+6DsNibucxJhdI1RF1V6qVJlhvydmfi6uvcFlWVIeCOEisp3biFde9QNx1TWckxSeR4OJe5F7149QRNY0/VM8XcHHLYpbHpA0DgoNQ41FTY9V3bv2YtmLVujQVR0pXTT/JK+pdk4cvAAunfvKr+QVydsZ65Nd4ksgiqbD0yajF+l0ApzKLSqJbIeGwTDlSvYtfw3fJkUVm2RtfMk8PspH9zSSTwnkw3YctwXHaPpA50vesf4o0i8p+7uaT+P3MmmTVtk98DOnTuZK/rU9ZBcfPxgPPR1qRRt7/2QhJtviBMvCPGsNpLYEXmafB49Y0LQLZbMrFfNCysMOHwBOCMewyUiee9ODEZkiAGHUjMwtG2hqAdSnUAIDlEhpGvVV+SHj/w1CS0/2iZ+D54HfjtegvG9y/B/q3ww5SYj2jQSF7hOzl24jNvuewotO/ZGQ3HdBIlnc6hw1GU3SNSVqE5L6aNuxsbyMpSWFOPK1UwcTjmDnKxM5F44hBVfvYVOcTHKGfVB9+VXX31lFlb0Sz18aJnSRb9a1HoCQcdSzxuCPtqRhWC1vPRQSWQ5S6B4YVFlUFYexE2m/hL2fgntMkE26Z0WOvUo7GlfXsJ10Y2RXWAqfBqAGBJkX8nThMH0YjEVrmlBLWhphKJcXFQiLmTlKF08xD78o2ZchQ2+W7IEP/6gb4JWvUy8916Muj1BWbONVmTRxa5Wjp2FykfFJZFVy+VdIh4uAeLFpQpD4l//+hf27TPlBUHW0+hBoYUeBlRpUKGWov/7v/9T1kjsUFe9Evl13xpbL2x3QNfrK6+8gmeeeQa///677DJI3bWeffZZvPDCC7KSUR3U49UysXYE/dIDkroqUsVGfWgGiGN3/bYLCVZin8az6RFZEyZMkA/dBx54oFJ45ChOdM3mi3BpWRVaMq70a3WMCo2lc1ZkkcDaKATWlc2r0U1UKOUbVUDVEjqz+bVwXSMcFG/aRkJoDfvwQ/cKrZJk+BbMQln+JvgGda0QWSr5nwilvwhlBb/CL2QQjMEPihqS8121VSifSDiRyCKxRQKLWqjoJUqQCKN7ncqdxBbNf+NsvrrjvqD5m3xEnEKoFdlfXK+iwmQsLREV20JkZWagQWiwnACT4kjXJk3QLbu+uQEOu3bDpgriseQUeY83jm4mw6bu9jRWMVuEe/XqZTSOipTXZnXDdubadKfIIm677TaMnXA/9pzKQWhDmuPJdiuOqyKr+Q//xe1/7IEy8b5IGzkJ8x/7Ev++w3b89YqsV1YZ8NNBqh9R100jggN90aWFL66L8hH1IiN6Nz4DP6opiQemeDLLX6r0q8v0iKZnthaapiArvxy339BU8aka6oZG47qoO6L6Dic/ElhkbXDIkEFYtK8cE3r54N3vD6F7h+vgrzzTaGwjWU4+euI0Hh9T9TuKuJhrQESQEXfMM+Ct8SGYv7lYdhGccv0VOcepr3Cq0LL+JUFBIgsGX/x7VSliI0qEQBWvlywD/nFbOU5nGnBPL/31sh9/3ooXZy9G09jusg4TEtJA3iP+/kL0KOKF3tV0PVJ9pYC66+Xl4Mrpg5h2/82Y/MCdch9n2LJli7zX6b1Ajuo/lO+0LNOn5K0KtV5ReZCVZqov0PuF3iPUC6JTp04YOHCgsmfVWLxd6YYn5wxqZUJ1KuqyvV+qeFFGklMVo7PQubSO+P77783L2t8lQiSo6zUVNqEu2/t1NezwYBrnFIAQ4UKDA0WFQiwLkWXLBQf5i191H3/TmCjqEx7oLy4munF8xTmCEEr7iP3DxLmrgiqKFF93OmcFE+WhWkF11lUXClvrVNRle7+UTpeuNVEhIKs2mzdvNjuqPNJcS6rr16+f7H6ndeSn3YeO0Z5j9+49FDklEMe48jywBX1ZpYcWVYappYG6s1BeULM9ddVzB5TfWqeF1in/6YFJ3cbIfCuZJiZz33v27RcPzY4Oj3cETbhtjfW5yNm6Js0tW8p27f7OQgJr/WOP4fLmNbhB3N8NhcBqKPxp9rH81o2Rd11juUx+DU9fwQ0B/ri0aQ3WW01YXF0M/u1RHvpP+IbcLN7JNr6yBv9RVHzbipdpI3H/F4vLXP8XQXvQtUT5R0KKulhavzDVMYl0vbnD0Ior90Xr1tchMjwMZaKCn30lHZmXzqEwP1uaMY9r10aOC6LuwFRppvTQ9UmVcHfAYddu2NQC0KljeyGamiEn8yrOnTqOc2nHkXEpHaEhQejVo7u8DmsibHc9s/VAHzXogx1NVOzqx097kCn30vh4KbCI/E8+gc/p03K5OvxjpBH33QAUlABX8oT4yC6XRhzyhQYM8y9A80ZhiG4cgZZNI9G6WSTatIxCu1aN0SGmEbrENkGPttHoFReNGzo2Q8+4prJ3zYHUHDnWzhkSEw/KsViqwKJrgN6R6nuAUK0L0vOZhBB1bSQXKJYbhwWJh60vjp/TZ0K+aQMjcosNaB5uwOD2fhjcwQ8DWuWIZ6V495CQUt5Flr+m95JszRK/P+wvx+A2JbhLCKpjF404frEcf/vOIC12OsMdtw7CkD6x8DEWICAoFAHBoaJu0BANGjZAmHANG4aioagrNGgo/BoIESaWfQ1F6BwbhofvH6OcxTmoBxGlQdv1jxzlO9UNyJ+W1XIgP4I+ylErs+roGGcs/xK+zz777EvKslR3VAGir+V6X0bqF3FtRUFd1y6rvxR5UoikCkkd0lccMu19WVR+yOKHM1iHTaZGFyxYIC220OzrNJPzaXFjUnq+/fZbXL16VfrRA6G6YdOXo2XLlsnBoJQeulmoAkkzSJPypUKlZSokCpte/KSCXU333lNliAinfrui0iDqEA0CDWgYSkYlDJWdeInQpIeBmuUGwf7iZhHCprxMCivaJidGDBQ3kajs3BRnv1WMOHTwEA4nJcm8U92Mv/9NtkQNvXmYdPHDhmLoMLGsuPihQ6Xf+QvnRT4dkHMgpIqXCaWXju/WvRs6VNGqkyReRNTlR0tOXi4ahjWUXz3oAWH69RUVNmodENeacr39snWrfHFRZVoEaO6SQWVBNxINem8aHS39qqK2r/OiwiJ5rZKjiiM5almh7n+qu/766+UXFa0jP+0+dIx6fGZmhkhzDxGfYnN6tJD4oPmsKL6EK88Dayjd8+bNk3lB57nrrrtkK9ZHH30k71HqxnXjjTdatNg5C5WnWg7WToXKgVo5qBsR5VOLFs1x5tx5xIqKGJmQVx+29EvX5pkzZ2U8q+LbRYtkyxxZULQOm64TcmJFXm/yxSWuU624sucuiuskPNxxF14VegmvFWLpshBN8eKl3/D0JTlLBLnMNi3w98ISbIAPRjaKQGRmjvQPzspHy8aNkHQ8GRcOH0XbUaNkuO7AaGgAo/8AGIp/RZlPJxh9tOM9xX1qvARjyT74BrQBAm8Xbzxllm4XUA25UJlR+VGZadNBopquwebNm8v7zpU0Vue+uOPUHZh2fhpev/w6jpQfwYPN/4ivy/+LezLvxgeF72NWziw82/hZuS89j8g6KKGGRa3Seq7DqqD302GfJCw3/oDUwJNoHX4dmodU5HtNhL00eynaBbRDcECweDeGSAtqEeKabtAgVLY+r8ldgyghxG/scWONpttW2Co1necUZhNx3TVp0li8fyIQojGOoA2bnk+Es2E7c21Si1KzEPtiiHpq5It3a0SQD04dPyafzfagLtLxw2/Fqu0HlPE1IeKZZvuDyYV8n0otaD7ivewv6kfFU6YoPhWETJ6MXQPvRXBsC3Rsaorv5QJf7M8Jx9h7e6H40UelnxZ/+lgnKuOlQ4YoPrah27+/eOw0CinFhiMG5Ipso0mxafzTXwYbEBLoJ+tK0oX4IyxYPE/Fr3TKsp8QOclnM/FL4lm0jArA6L7N0aaZ/nGl9I7ZuHELhg2Llx+86ZlEzy56J1DdkeaHatriOrywWtTTxOvjzPkLaNsiCsGB/pDTH4j4kugiQ2N7j51Dn/aOeyGpiEckNqX4CpHlj483ZuOe7qahA2pXQOtfbWtWbpEBX/9Wggf7lYv3FxAaYMSh88AXDwE9XagaDOnfG1/+bwkat+oghVRoSLC4N4JE3TRI1E0DRPqULnyivMrLi3E2aTP+++H/ie0V965e6N1A83HSe4Dymuoi9N6g+4QMg1Hdg54JdL/S/UPhUp2CyuSIYniFUPejOhUdpxcLkaVWhAhnRBYlwrrSQFgvU0WDEkciiBJ94UI6MrOycVpcRC2im8ovI85gHTZVosli2YwZM+RDh0QQiZ17770Xe/fuxRRxQ9PDzB1hf/nll7KZvnPnzrLwqJWAKms///yzqUIlLk4qDGpZe+SRR/Cf//wHPXv2dDnsg2fLhLoPks26ASSaguyLLCmgyEmBJS4OsezrKyohpWXiQglAUKCvsi99FREXgbiIb4itXOnWkph4QAitg/IBobqBg26SD/m9Is/lVzhRFiFCaNLFqTq6pugr3TmxH024V1hUiDAhPOn47qJi2rFTJyUE21iLLCrnySI/VRFBLyqto8ouOcpruimCxE1BFawz586iRXNTdwxXRZar1/l5Uc5UaU49fQbXtWyhq7xpbgwyOUznomuZ8pmuZ7q+yVErFznqfqc61U/dh655supHTfJ0PZLICggIkmmhPLDG+oXtyvNAhb7S0gcO6nanvvRpbBi1JhB038yePVvOo0XjsyiOZF6evi6reakXP3owKmVgy9G1RoOMqTxIaMXGxuA38VxoFBllTi9Vbqili/KcnhHnxTVHQqwq/vfNN1Jk0fWmhkfQdaI6Qr5E6YVFfuLXupugtaM8Uz8KVMXGv/8dJ7/4Anc2aYTItPNmgZXbrjX+LATWHd16oXVEI3x45QrGNopEeGa23B4qfmNE5e/wmTSkH0tBm9tuo9M5DeUvpY+uVbpm5HKZH4pwo6i8BInlQPN2+vU1HhYXF4msdigL+INIr+utWfTSo+evej1Ta6n6fKKwaBtdWzRYWfWn+5icmtdVUZ374oecHzAidAQ+bfkp7mh4B0J9QtEpsBP+FPEnDAodJLc/0/gZuS+lgVqiaZoG6jpGz1RK3+XLl+UzTE9c7bGrYBeeuPAExoePF9eeD3bk78CgkAqjC+4O+9Hzj+KNK29getR0BJDVSSueT38e/3fp/zAhbAKig6JrLN1VUZN5XhXasFu2bOlS2M5cm3pEFnXNChd1C0ci65ZbbsHw20bhu7U7EdmkOSIiG0sDBvbi64zICp4+HaUJCfg9ui9CxGVjFll5Bhw474shf0tAqNhe/PDD0l9Fr8hSadmwBNmZ53AiKwxnM4y4q2cxWoaX08OY/sm00DOaWnNMyz7Iyi3EziMXsPPgObQQ4mpo96aIjnD+4+CxY8nygzy1tNK56VlE0LsiL49EVjb8w1uj2BiEonJ/pOQ0kkZTyLIfdRUkoUXCsFFYMPYlX0BsdAMh/irfY9bQlAki6jCW5GL3aR+0iiiXc8bZ7iJo6ffmz2WY0KtUjpMjOjUz4N4bDGjiZCuWSoC/H7p1iME33y9D2469pVGyEBJaISRkyAiGEJ9iP/G0xsFff8RL0+9Dl47tTAc7CeUx1Tdo6ETv3r3Rp08f+TGaJq+nPKf6GN2LJLLoV31v0/uK6is03pqOo3ol1TmdEVjihVN5ciYaLOnsIHd5c5HTIP0UaJleeFR5uXTpMg4mHcIpUQGjMSf54uHQKNzUJOcK2rApY2idMooqPfTQooxVK8hXr2bg0OEkt4Q9atQo/Pe//8Wnn34qx9hQRZEE1kjFWh4NrKYvUvSwpMKj9Fcn3WEhQlAF+QhhZUB4A3I+CA/1RYSVI7/wUNM2068PQsVzwM9QJiobgeI4X4SJc4QJf/oNEg9UOndVUOWELjqtozwl4bXs+6XSHT5sUv20L1Vu6KuMWmklgUeO+qarx9N+zkLlS8cd2H8Aq35aKd25s+ekn7VTr0A6xt/PsYjUg/ZaU5F+CrSsvc4TDx5CcspxERfqjlCEFk3pa6a+8qbzXL58VbaYkiOx9I2o0D/33HPSPf/88/jHP/6Bf/7zn3JcEzlaJkf+tJ3c119/LY81nSdbvsCdmQDT2ecBXRMvv/yyHGRKlnxozAy1JNILn7ozqtBLZtCgQbL1ma6RhQsXYvHixXKcFl07zmBZIrah/KQKCH3JXr9xE6JEOdB9S2VFD1u1VY26AqQcPylEMhnfrxq6ztSXpIp6TdCvdtksBKWPCXUfcnQuiic563M64tzOneLlF4xGV7LknOfkiuJi8XhBMRK6dMdfRTk8vXQp4tu2x4ySMhS1jTHv1+hKBqKMQtT9+qtYcw6KJ5UVOcpbdZnylFxRsS8KixvKZfroQBVBWRksOwu/oBtRZBwoLb+58iyg/KHw6VlPL2QSUvRRhZ45alzol8QVCS9aJkdh0XEUnnbZWfTeF6KagpiAGLT2b40mfqYvzg19Gsp1cqFWlhXpXfGXv/xFfnCgCjhZiaMeGGQ0huLqKr8X/o5bQm9BQoME3Bd2n7n1TIs7w34j+g10CrD8gDYybSSuKJYnn2vynBSZKjWVbj14W9jOPrPNyOeQ+BF/dE9RvcnWB7n27dtjx94jQmA1Q1STaASKSio9v6pLkHhflYl4l4wZgxJxS/540Aff7/c1u0u54hkp3iMFH3+sawoUR9DTNTq0EPMfMOK2zmW44boyXMwqwqlLeeK3GFn5NCWMeFaK5+WZS7lYvi0F63enIqZRAO6Nj0HHlmGmE7nAgQMHRf3UNBZcfc6rFXtyxHWRRrSLzMPxS2VoIuptR66E4p2NAUi9Sh/W6eO5r3R9O1+Hjfv0z315W2chWi6F4LlbSrDrTADe2BCMLGlpWu15Yfo1fQw0ia3D6UYUiud2R422oA5DNMdddbi+Z2eM6B2L0yd3S0uBJLKom2BD8Y6mFl8SW+dP70fvmHAMH+LC9VwFdI3TtU3XuPwgr3HqdW997TtLgKgHWYis6vTnpVvM+kbTrtMDg74UU0WmVYtWuGX4cOQVFQgREIqWLgz41KINmzKOxBV11SMLOPQlnSpR9DDbtes3NG3c1C1h0xfxhx56SF6QtExdnigsGhSnolacTIPnCqqV7vBguvDFhR0ohFEgtWbRlwma4LGyI5OX/n40k7kRvgZRGTGWIyiExmr5yGO1jm4qOndVlJeJSglVUjSOHhDSXxFNZKxBFVZaR5UsdR/6WqYeT+LDWdSH0sX0dFkhJkf56yzUiuYKzlznzZs3w+0Jo8QLowxNI6OcvtaoBY+uXXIECZXBg4dg2bKfsGrVz1i3jiYj/gWbN2+TjpbJj7bRPrSv+jWTzkFdV8+fJ2tzlvG3h7PPAyobap0iQUfiicJUf0n4WUMtzlQZJiFGeUYDU6kS/uKLLzpVwdBzFdF9SrPpnzp3Hl07d0bnzl1kGPTVkMKlr1R0D1O3yvMXzmGwEIB6sFdB114TtGx2Ih4W64qjfKA8IBF84sRJNG2qrwsIMXbJEmQ3bY6t7WJRLp4rWXFt8WJBEW7s1AVPCIFl6kbrg+eWLUOH2LZ4tbgEWe3aoFy80La2aY3TBl/cKQSuM1DekaP0068qYshRWlRBpQou1c9Qngo//6bIL41DAUbLY50VO/K5I/ZVHQksOj9d3yTmKp5HSquasqyGo/ppz0FOL87cF49GPYphIcOUNUta+bXCO83eUdYqoGuV3i1U4b7jjjvk/UH30MaNG2U6XYFa0VbkrsB9Z+7D55mfo8RYomyxxF1hh/uEw89gWUEZGzYWwT6mVnwSmqIKI5dVaiLdevGWsJ19Zmuh55CvqFyeu5KFP056GP+Z/zE+mjcfCz//Qn5U1kLjZMIjGyM4hEyBm7prV4egV19FeWwsiu+/X64PbFOOQW3LkXLFB7tPG3BdhBET+5jeCWXi+V34yisIHT9erruCqe5iapl5fKhR1JtMXfDIFQthlVtQir3Jl/D1z4dwMOUcBnaKxPjBMbLVqDqcPk29NaJl6wmVe2GpD747GIxTWX6mng7CUV6KahVmbS7H2aslOJ1RjgvZ5Th6wYhHvizH5mOi7uZvcjQu7OSFXGTm2p+EXUuvVkYMFvm6IS0c/duH4LGhviKcIHy83Q/lRkVgibwwm3AX6y//WIy/DKle+drj+b/9GekHtyAz57wQNn6yyyAJLFrOzbuEtN9X462Xn1b2di8koCh9pA3IUSsyOVpWBRaJrepQSWQR1E1FNQGqC6uby/pmo3V6gdFLLjMzS/aRj2oUhd/37gVNYEtNpi5jI6yHH35YdlWiF+6YMWPw+OOPy8kqR44chaSkwwiPCHdL2BGRkdJSHFnYoeZDcsOFgKI49O3bV1bW6OVP4z8o3fTVvDrpbhjkK2fFlohaZVFJOTJyiyq5THJ5RcgSv9nil77GwEe8zGReVb5R6Jx07qqg1o8SqqxoHFVWSkpNlRdyVJmyFljkaHyRug+ZQadjh958s1sH3DvLaQf9zW1i41rTYn2d033UKKoRft39OxqGBDld3nSz06DiU6fOSkfdCOjc7dt3QJs2McLFym5vtBwb21o607JpGy3HxbWXx9Cx6nlonb4Q6cWZ5wF9jU1MTJSV6ffff1+GRV9lBw8eLLvSWkP36KRJk6SwoK58c+bMka0OVMGgAeF6KRPXE3ULpvuRjqP4klOXyf+guPcPJ6dgeHy8FJ70kqV40kcB6kpIZUfdG2kc36233KKcuWpo7jRd0PUinPaqoWuGHOUTPczpeUHCOjMrQ+RDQ2WvqmkgxPvdK1bgWFYeNrZtjU+F0GjWsTP+TsZ+xEtEhZZfXL4cwW3j8KVI+2+9uuFYdr48ls6hF8o7W47yUBVL8tkg0kV5TBVFWjaWXUWI/2nkFLRAnvFe83Hac+rB1nF0vxDUQkphqUJKPnPEsrofxU09Vou6XS9674shIUNk90BbRPqKiluY7YoiXRdkuIambKDxL/Sxgt6dNN0AXa/OQoJuV5td+Hujv2N34W5MPT9V2VIZd4et8mjkowgxOBYANRW2HrwlbKfrcArUJS4oKAS5pb746qet+M//VmHOF0vxxkdf4tZRo5GQUGEJmEy2k2VWX1ERpbhXh8D33oNRVKy1XQe7NTfiwRvL0KdlOVoJgUXLwztU1BfKRB2r6LHHECLeH65Adzp1yTeZK6epbAwIEAKLTOwnn76EldsOw7esAA/d0gZ33RSD5lGuCVdr9u9PRL9+N5or9vvOBeJUhg8W7wvAS6sC8OHullh8rj+mLfZHiF8gLmQZcPBMGbYnlyD1chn6xvrgjp403INasqhFywfxvWOxZf85JYSq6dmiFBN6FcsuiG0bAx/cC1wvzvunrwxYnaRpyRJuye4y3Ni6zOVugVVBonLuuy9j07L5KMjPk3WeIvG+IGMq65a8jw/eeUWIneobR7IF5T+lUaZXxEMtE1pW/Wm9OhjOnnXPmCzxdpI3muoI7Tq92OhlS2KHqiR5IgMbipuKzJZWB1th02BxEjQUf1qnly592cnOzkGjpk1RJF667gibRBWFo/adpq6CJOqoUKiLitrPk8KndIeICmV10l1U7otLhT6y+bqkzChn2nbojORoFm3xK/anY8jwgrWjuMc1MsrJjR1x9MgR/P7bLlmWqusrHhYkVlIVaytkpKFxk8bmr9eqS0tNk92x6BgyZU1fKmisVKvrWqFrN8cTvtoak0WtUCdPnJSVcYIq8GRUxBrtPhmiEt9MlBm1WJAfvbi69+iue5Cxs9c5TTxdIO6nSFFZdqW86QYnsdShQ5x01OJCjrrYde3aRVTIyfJOqLi+1L7MweKaC5KOmrtNQsoo8r8AvXr1xPDhw+R56Jx0bltUd0zW2rVr5ddYqiSQuCYTwCRiqHXL3sOK+kr/8MMPsoJLlWEyh75hwwYZNn2g0APlO5Wj1tH4Cooz/dJ4hxghcjt3pEG2prcFhUetHtR6RC3RJP5JjN0xerTcrpcvPv9cVvApHKoUkaPyVx2NyVMf3pTv6rWiXaZrkbZv+WWLjJ8tQVoVAeL5EnfHHdiw/ic06tYbf/78CwuBpULhDZ44EWmJB3Eu9RTuWrbMKYFF0Dm0osRanKjpopeV6Wugn6jAXIa/zznxHGuLUkMHsc1fbidH+1J+qHmiFzVc9Rha156LnPaFae1oX9Wpfraozn3x/y7/P2SUZdgUWieKT8ixS/aEFkFdbOnDBXXRouuT4krxofePnrGdKqdLTiPcNxwt/Vuid1BvvHPlHUyNtC+0iOqGvTBzIR4If8A8Jutk8UnZgkWVeeK77O8wNHQoGvlVfna7K92uUJfCpm3uGpMlAhP3gBAc/gEIDm2AsIgohEc2QmBwKPYeOoKxCbdKQ0G9e/fB4dOXERIWicCgqrsKOhqTJW5Q+Fy+jKJnTOMSrbn8+zEEHdqPuH6V36HU8iUeLlKkUdzFw1P3mKz8QpFPJ66ie7toek2K9VIkpghxeuAkesSG4f5h7dC5dYQQM9XrLqaFPnZu3vyLrH8cPnxUfvTPSz8CFOfgYkEwLuX74XKeDzJEfmXkG6WJ9RtaG7HjpBHFpUCoXzFujj6IfUdO4fcjZ/Fb0lnsOnwG5y5l4fTFXMT31BoYckyQnxGtwqn+Z1qPFbfguF4GbDtejnfXlaNHK1+EBfvib9/m47Wx4pqw/Wh0C40iw5GXmYENu3fiutbd5Ee5zVv/h+FdY3DXaMv5K92JaiWQ3t/qe4jqEuqHOYoHbaMGE1fx+/VXS5FF0I2pp0KloqfySVCEydhDsajsN4kIFxHXH4Y9PClsGkxHfjUVdklBFrKuXoSh4Ar8izPc5hogC63FzdYgxLHVlk6iMrz79924cN5kfptc7+v7yAf8YPFgGyAqxI0aN5YVV63AovSfPXMWF4TIoparAlHpDxYPZhJONEdVz169lBBsQ9b4aLyblh49e8hzB4nzkMWwVq1amivPWmyJLHoZUcX+hr43oJ14oalfwKvCmWstIzMLeeKp2EpU9t1xrRHqC5dahUjYBwUFyi882kojOfIjAyM05wRVcKl1iR4YZJyhKqxf2IQzzwNqQaayorIlYyckMGj8GFUc7EFxJjFFBmJIaJC1TspDauWitLoKnVd9cFo7FaqQkAhMv3wFWVkZGDFcfwuWyscffyzzi1rNyNgIVXDIUTrIkfEREnlk0IPiROGrv2pc6Pht27chNiZW7ucqJLRuuO9BdBt9h0U6raFtXYSY7Dl5sjzGFdQ0EGpayE/Nd5MzTXZOztcvHD7+MeK3obwuyVXsZxJjdKwe1PC0y2r4ROV4mO4T7bK6rv21R3Xui/9c/Q+i/KLQN7iv4lPBmdIzeOPyG5jZaKbiYxv6eEX3FOURtXBQWmlqBlvPPHt8lfUVnrv4HA4WHcR7V9/DXyL/gl5Bjp+9hKthk2GLHYU7cL70PDoHdpYCr2tKVzwY8SAa+DSQ6d6YtxGnS0+jbUBb83g1Le5It6vUlbCduTarElkUDlkI9BfvD7IWSHNfhTYMR4gQXPRRZF/SMTRpGo1fk04iICQcDcIjxL4B8jhH2BNZgQsWUHcGFIvnEAktcgbxPDZGRJj2EWnvfGtfdNv4P5R36iQdYbh4Eb6nTsn9jZGRcrLigMWLUdajh26RlStE1f7jl9EqOgLbDqRh37FTuDEuCg/d2hFtm5OhKMdpcgV6L99wQx8hoOOEayd/O3Zsj94dozGskz8SuhoRH2fEmG7leKCvEUsPlaJnC185gXKQ0Hof31+G23o3Qp/2TdE7rrF0vdo2Rk/xO7hHSwSQZYtqQMNR+rQ2YGh74P0NZZi1vhRPDhfCX3/PdZfpd0MvLPzoQ+RHROJq7lWc/mUZ5s95Q9laM1Adheqr9HGO6gJUp1Trr3Q/kR81ktAHVFeha9ZiMmK1Ly9VPPSSlJQkX1JarG86SkRxSSkycnLRsV0bRIvKpzuoT2FToZMBA1U0uAOKL1lPodYdPWJj27ZteOEf/5RdnugFcEO/GxEcGCRbAag7IY3PKhO/lG4tZJhCbe26mpmBJo0aS9EyZuydeOzxx6W/I35asQLbt21X1oAH/vgHZckxG9atl+NtiBMi/J4inZTm9IvpGJWQIM2J68WZ8r4iRHVn8RB1x7VGYpZudnogUAvPo48+qtu0N3XBI/PpN998M2JiYmSeO6pMklDQTmzp7POAHk7UXZfGJZKpdOo+S90B9UCmjMkCJx1L1/mHH34oxaSrUDpJ4GjLzLq8qKtfdm4+wkJD0FMId1eg8qGuiiraMNRlatmmVm+Kk5r/tI2uF/pqRmMw6GsZtUDWRSgd6ocXdVlFfRaoeUG/5NS8UPPDVej8Wqf62UMNX+uqojr3xe2nbkdiYSKmRU1D+4D2uDvsbmnpb33eehwoPICVuSuR2SlT2dsx1EpMPSbi4+OlQSdnuVh6EadKTuE6/+sQ7eeEhSyBs2GfK63ovtTIpxECfQKl4Grq2xS+Bl9cKL0AccXI7WTGPchg/9qvbrqrg6eH7cy1WdVkxLage6msrBT5ubnIycqQ3bioq2CYqAyTCKNxrlVhazJi/0WLEDJlCoxKfFXKBg5E3pIlcjlg/nz4r12Lsuuvh494n9BcWUTgG2+YWq80kDgr/tOfUDBrluLjmMtZBZi1ZD8ahQXi5t4t0SvOPfVCd0KTEa8+6Iuk88Bb44wYbP9bpVeQkZmNG24aLuqXBvy+fR0iwl03LqIHumfogyhd47beC+SoblzdDyuVRBb156Wb2yXrNIzXQxVpgiqv1NVKNcntCLqI1S9tVPmmrhCE2oVKD/v27pPdquhcJPDoBqgKdVwGVfrWrV+HUSNHyQGdVJGniq+ec1xrKP4ksshR3lHLFIklSpt1pZbyktJEv1Q+dAx90aT8pmPIUd7Zw9YL29nnAcWXvq6SEKQ8dgbqYqiaL9bbwlgXoGtfKzy0UDnRfeCN0LWppTbvN3eGXZ374qOMj/B7we8IEH89g3pKQxgb8jZgcdZilBvKpf/7zd9X9q4aqjyrFenahsOufaoK25lr0xWRRZjeMWUoKS6W7x16ZtG0GXoNXtgSWXowiHdB6L33ypYrElg0DsudnL+ah+ZR+ue3uhZ8tcsAalS77wb7H468iYuXrtDDGk0bV12vrCtYiCxCHTDJIoth6hfWL2yCnwdMfYfvC8ZTcebadFVkqWg/XDjz0cJVkcUw3kAlkcUwTP3E1gubYeo7fF8wnooz1yaJrGsFiyymvsIii2EYCVcmGaYyfF8wngpfmwzj2VRv1DHDMAzDMAzDMAxjgWHNmjXcksUwDMMwDMMwDOMmuLsgwzB1GpqPi2E8CZo8lmEYhqnfcEsWwzB1in79+ilLJkhk0WSdDOMJ0Nx8LLIYhmEYKbLatGmjrDIMw3guJ0+eZJHFeDQsshiGYRiCDV8wDMMwDMMwDMO4ERZZDMPUO6b95S+Y8sifsfW3fUg7exmpwqWdu4xT567g9IUrOJt+FRcuXcXFyxnYtXe/3Pf5Z59TjmYYhmEYhnEMiyyGYeodZaVlMBgMiIyIgE9AIHyF8/EnFwCDXyAMvgEoF87o64+whmFy35ycHOVopq5xecEHODqkJ47076TL0b50DMMwDMO4Co/JYhimSh74wx+VJUv++9WXylLt4K4xWZP/9LD8feofL6Jju1i5LDHIfygvN6LcaESZ+D2WcgKz33wNAQEB+Gjef0z7MXUKEk1NH/gDDP5+io9jjKUluPjVf9Fxy37FRz88JothGIYh6nZLVtpCTJiwEGnKKsMwns/mLVvw1ltvo6SkVPGBWC7BW2+/g927dys+NUtZWZl0JaVlOHMpy+xOp2fhlHCnL5rc2ctZKC4x7UuOqZsYi4ukwCrJPqDLGfz85TEMwzAM4yqVRRYJlw4d0OGFzYqHic0vCD9HgsYZwaOGoXFWwTEM42FQq5XWucrhpMPYt38/Zs2eJYUWCax33nkX+/btw569e5W9apbS0lLpiopL4e/va3J+vghQfv2Ek7++vlJkyf3LKkShXVJmY+DA2UhRVnWxaqrsjkhu6iqx7so5PJmaSk81zusb1lhZqsCWH8MwDMO4iu2WrF4TMfHoh1ioKiYhij482gu9lFWbxEzCokWTEKOsVkmv57H22DHZteLY2udx9M8stBjG06BugmpXQXXZXtdBvUyZ8mfcdNNA7N9/AO/OehdvvfUOEg8exODBgzH5YVM3vppGbZkqFCLv/NVck8swuQsZOUgXv+kZebiYmYfC0hK5b3lZuXK0O1mFqQmJmJVshDF5FhJfsRIN3ia4PADfsCaIfOBlNIi/T/GBXCY/2sYwDMMw7sBOd8F2uCUBWLnRpLI2L3gVHROEh0LawgmaVqgJJjGmtmQpvwup5UtvKxUJNBJaHyotYRYtXS+g4vDNeMHsL877m+JNbH5B+ClxYRjGY/Hx8cGjU6diwID+OHAgEYeSDgnRNQhT/vyI3FYblJWWSnf61CmkpRyTLjVZcSnJSD1OjpaP4VTaKfP+biflKBLRHR3jxHLcDGzfPgO0yNQcZdmXUHBgA4J73yrFVeig8XK5MOkXuY1hGIZh3IHdGk3spMfQ8dUF2CxbsZ7HI8OUDYKYSYtMLVDkPu6IVxdYqah9r+L4Ler2ifhWFU+OiGmDjvuOI5WE1Agh6j42Hb/2+aP4s1RpaVg44c+A4k/ulRtNh0pRJjctwiTdTWkMw+jBVjfB6rZmUctQbk6usgbk5GQJv5poKbJNqQif3OLP5+OLj2ZJ9+V/KtxXwv133mx8Pf89/PD1Z+b9K6G0NM2eSt39poJ6+1WwClOVboDmroAWiO3tZ2IH5iOB9ukzDn0sWq1SMPtBsX3HTLQX2wfOFlsoPPM5B4K8HMdBwdZxSvzkeQm5j2lbyuyByr7W4UzF1IEm/6mrRPzMy5W3m/212IxHZSzCN+eJVX4qr50VMt2Kn83EVyZv2xLk7/pJiquQGxJQsPdn5G7+RtnKMAzDMNXHwWfjeNwy8Vv8mQTPY1bdALUtTX/+Fjh60lJE9RKiLF5Zjm3nuJuhNWkncVRzfMywBPT6dp0QexuxEprzqghBN2LEcTx27BURY4ZhagOt4HIWdQyW2kVw4MABskVLHaNVG6gtU846mwgRdHisEUbjPIxSvIRMEAKEugOQv8nNq9ioMArzkmdhwIBZSKZ9FsUjSNliIg4zvqjYvn1GshBlh/GCcj5j8gQselARIDbjoEJiztZxpvAx8y2xBwm6RZiQvB0z4qhRbbs53saV3cUuinrZkYjOX5DfFMxPeBBQl9Vujup2eRztoxV99uJhhRBiD87sLrLOtN/K7oeRTPGzzk964JvTLZw2HnoQoswS63WGYRiGcR2HfXPiH3leCKSJuEWrXkhgjViJhLVKi9Ja2scNSHHVDhpjyvoQguxjc2sXwzCeTHl5Od55d5ZZYFEXwb88+qh5jNbs995T9qxZSoXQU93fn34KL7z0r0rumeefw4X0C0hLS0NOdrbc1yZCBD1lrWxSVmARKvtrW2jMLUh6kV0LlVYvctQKtoMEiMAqDhbh/HOr/ePiZuCLWYliW3ssmvCFFFgSbYtTwnwg8ahJvAyYgNG0T/vOQvxplmkbofoRo8Ziigj5qPoFzlH8tcR1RHe5n0mgjZonhKOd/LRItzYeVUBdBNUWLLVFq0H8vWILCy2GYRjGPTgeAEFjpWy1EPVKwDClaStt40rsMy1WA6WLILWYyW6Dr0LtgSjPP/EWxMcMQwIq/LXETlqEj/FnTOABWQzjdrQGL6rbTZDGXPXp09sssGhdHaM1aNAg3DRQbzW5ehQVF5sdCb9nnnxKOmplI5eXlyedv58/AgIDUST8aN/qom0h2m5WNE6gtnqZna2WK6twJjVxeFxcx+7KkgIJrPbUqqXsS61tyqZqoyv+ozBPbhuLZVKQ2ekC6SJk3CK4+zBzF0HqOkjLQV0Gs4VBhmEYxm04P8pcCK/HOr6KEUp3waeOd3StJYu6+aldDjt8iHZrj+EVqebi8YpibZC2jXi1Iz6WG2Iw6a0Kf3Jawxfxr3yMjq+OYKHFMG5EOxZL66rDrSNGCFE1xcLIBS3/5dGpGDhwoOJTsxQXFZkdVfZzcnKky83NxdWrV82uWAirEumK5K9u4kZjAmZC7WVXLcytTh3RfYcL53R43CpMlb3wVqL7zAcrxkhpWqRSVizCDtOic6xahvl0HrWvuaN4yJYzRUyJ5akyIiS2kjFrQCKOwn35ScYtMv77osUYLFomPzZ8wTAMw7iLyiLLnil2jX/8KxXGJxa98orJX91ufbyt85GfcrzJWRmssNiuaUmzOu6V8dpzC3Em/Bax5QuGYaqAWq+KhMAiR8LKNA9WmYXA0oos+qV99WMaT5WYoHSNE06vUQYL4mbghSmmLnYDZ7cHjaHSnrPCKIQjTGOvKh9HhiRIYVFrktiHxl61F0KHwuxuMrZB+z54uLv+liwhotTj5KktrCXai4cVQoyJiCj7qN0YbeRnNXqIl2VfVpYqsOXHMAzDMK5iWLNmjbFNmzbKKsMwjOdy8uRJ9OvXT1kzkZ6eLlu2nWHzxk3424wZUmzNfOpJ+Pv7SyGVn58vf8kRCz/5VAowmpQ4IiICm7dthZ+fn9zGWEGtUWQLwwPN0B8d0hNN//AADH7+io9jjKUluPjVf9Fxy37FRz/0ATA6OlpZYxiGYeorLLIYhqkzuEtkEZs3bYKPEE9BQUEIDQ2V3QYJ9Ze4fPkysrKyZMsJiSwaS0bLjA08WGRd/uRDXPl8PozF+lojDQGBaDRpKho/PE3x0Q+LLIZhGIaQIktZZhiG8XjcJbIYpiZgkcUwDMMQhszMTBZZDMPUWVhkMZ4EiyyGYRiGcN66IMMwDMMwDMMwDGMXt7dk0VdlhmEYd2OvdYBbshhPgluyGIZhGKJGRBZXeBiGcSeOKq78zGE8CbpWGYZhGMYsstzZAsUVHoZh3AmLLIZhGIZh6hIWIssdXRy4wsMwjLvRI7Jeef09xYdhGIZhGObawiKLYRiPR6/IeuHv4xRfhmEYhmGYawdbF2QYhmEYhmEYhnEjLLIYhmEYhmEYhmHcCIsshmEYhmEYhmEYN8Iii2EYr6dFTH9lSR/O7k/UdBj1MQ2Ep8XJG9JAeFqcvCENhKfFyRvSQHhanLwhDYSnxckb0kCox7DhC4ZhPB42fMEwDMMwTF2CW7IYhmEYhmEYhmHcCIsshmEYhmEYhmEYN3JNuwv+4x//UJYYpm7y73//W1my5Pvvv1eWGHvcddddylLVcHdBhmEYhmHqEjpF1gnMHdEHx57OxOwRpuXndwF9X92DtdPaKvuYcFZk2aukMoyn4+j6JZF1ww03KGuMNb///juLLIZhGIZhvBad3QWP49iuSbh9hFhcOwfPd12MzMzF6Pr8HKw17cAwDMMwDMMwDMMInB6TtfanhejboZ1YaocOfQ8h+YTJn2EYhmEYhmEYhtEtskZg9mJgfEQExi+chKepiyC1aGEcRlr2FmQYhmEYhmEYhqnX6G/JGjEbmZmZws0WkktZXzsNrLEYhmEYhmEYhmEq0Cmy1mJGxAyr8VdkAMParw5weQvmzt2Cy8oqw3gVqZ9g3LhPkKqsMgzDMAzDMLWP02OyLHHjmCwSPy+9hJcUN3eLB8igw9+Z4yPdd4eVDXUMFpbeycbnEBMTU+Ge26hsYBiGYRiGYa4lVYgsaq2KQETEeCwUfzQmK8Ls+uD5rk/DyoK7ixzGdx8cRLfHVUEzEdGXLinbrg2Xt8zFS98CEzUiayKSREwZ5tqT+sk4xEwCFqalIU1xC/EzWGbZpkVMf2VJH87uT9R0GPUxDYSnxckb0kB4Wpy8IQ2Ep8XJG9JAeFqcvCENhKfFyRvSQKjHXPPJiE3zDAmR9VISurx0NzqbNlVArTAfbMBFudIUNz8+DUMam0TQBxtMvmZ/iH0XAd2iN2BDYnchkOh8dO5vkajs2f3Wm5G+T91H8Zv4Eu62CPgyttCJJpjCqoRFnJRwyG/RJUSLkBLFhu4TH0eTjR+AoijP38RyuzxSDdfu+ezE01aeWKRdblD2p7SY4kE0vflxTMCiirxrejMenzYEtpLJOObazZOVik/GzQRmLcXkWMVLhboLyk2TEUvL8S9jj9zQBy9uNu1PAi3+ZZOv2R+m40Z3ehkvf32/EG+vYZiyR03A82QxDMMwDOPN6OwuaGrRmqEdgLV2BiJGzBVb3EFndOmeiG8rdcmjFq5LGKa2Jj3eDQcXmbq9NR4yzdzC9NLEaGzYrBx3cQMudSF/ElgkMGRzlHnfu0n/mfehY7sjcaNVV7rLSTh4MRpNbCoPitMGRCvnfPzmdHyrxvliOppMUM75LYk0q/Or29Vwv/1OnM3R+WzF036e2N6/MYZMuBlNSUwJ/2ldkrBoQ7TIEtN+E6Mv4dq2GTJOk7oeK/Z0QltrgWXBRjwXn4LpakvX5tFYMdM0Vit28lJz61fawk54eZ7S/rXnZaTcSv41K7AYhmEYhmG8HZ0iSzMZscqI6XgVS7HaTWOyOt+tiAMhAuQvCY3Ll5AORXyRo9abi4oooNYc1f/bRCD9kkloCDERr7ZKkViCZl1Fu0+TJmiqLFrQtAmaKIsWUJw0xzfu0g1NE5VuhE27oQsJMzqndpm2Eaof0bkLuovUXTrq6Hw24ukoT/Skq3ET2Zr27Usk8CjfbbQeMp5Pnzi0URZtknoCR/A1JqnjtahFa08KTsptn2Cc6j/pa+DICZOhjD4vYiqrK4ZhGIZhmGqjU2TRxMML8ZO2JevEaizd1RXt3W3DvfPdQjxMRHeN0KAWGCkopFO60mnHcD1+s21B4SokRC4eRJJF85YHYStPlE1V0xl3y2O6IEn+msQWU4eIbYtOe1ZgfVUmBIVo2qy2WEn3GobJLoQrMHqz4rf5RfRRdmcYhmEYhmHcg06R1RbT1srZiCsMX/RZinF7lDmzqguJJm03Qdla1ARNpNjZALUnoAWaVqHLSQeV8UlWNO6CbrBzvEM6I/5mYMMHlgLk8Hdi3SpOMuzuXZxvDTqchERKQ0cnz+coTxyhaQH8TlpuJLH1OG5umo5LniomGTsMw9QXgZfjn7MwdLHxOc26FGIvQ+0JaEGf0RiudDVMXb9CGbPFMAzDMAzDuAudIosYgdlyMmLVrXWTZUEBiaH0bytaZqiVagIZYxBC4PGbkf6t4k+OTJE3HoJh0RvwgeK36FK0nZYs03gk7fHfHVM2VQGN+ZLjo5TjyH0LEj+WcfqAxjdZWs2wjxBHapyl5UJpcMLZ89nJE2WrTSi/lDFvc5P8SD0qx36Ag90m2DbuwXg0NK5q84tHKroDCjcJt2rGUg3Da5tfxJFJFdtjaP6s2MmY3ullxCt+M1M6cUsWwzAMwzCMm9FvXfDEXIzo8zx2oS9e3SME1vEZiHizA/asnQat1nLNumA9gFrrpMFCtuTnLVw764J1H7YuyDAMwzCMN6PfuuBU6h6YicWTFC83G75gGIZhGIZhGIbxBpywLlgDRi7qE42HYBq3YjEMwzAMwzCM16NTZI3A7ZOsrAuunYPnMQ4jWXgxDMMwDMMwDMOY0T8mS05I3AfP71JWMQmLMytbF3R2TBbD1GV4TJZr8JgshmEYhmG8GSdElj6cEVkM462QyGIcwyKLYRiGYRhvpQqRtRYzIn7C7Zm346eI8Vio+FZi0mJkzja1abHIYhjG3VRXZLWI6Y9zaTuVtapxdn+ipsOoj2kgPC1O3pAGwtPi5A1pIDwtTt6QBsLT4uQNaSA8LU7ekAZCPUZnS5YqtmxNPmy5jUUWwzDuhluyGIZhGIapS+g2fDHbpsAiHG1jGIZhGIZhGIapX+gUWQS1WEUgwuxGYC7PkcUwDMMwDMMwDGOB/smIR4wHFmciM1Nxe8ZhaZ8ZQnoxDMMwDMMwDMMwKk5MRjwJt2v7BLYdiXF9DyGZW7MYhmEYhmEYhmHM6DR8YZoj69jTmVCMCAqvuRjR5xiethqP5YzhCzZzzTD1G71m3NnwBcMwDMMwdQkn5smiMVlaM+7Vn4yYJ2xlmPqLMxMSs8hiGIZhGKYu4YThC7IiqBmTxRYFGYZhGIZhGIZhKqFTZFErFhu5YBiGYRiGYRiGqQqdImsEpr96CD+xymIYhmEYhmEYhnGI7pasOc/vwsLx2nmyyHHrFsMwDMMwDMMwjBbdLVmW47Hq0Lis1E8wbtwnSFVWGYapf7SI6a8s6cPZ/YmaDqM+poHwtDh5QxoIT4uTN6SB8LQ4eUMaCE+LkzekgfC0OHlDGgj1mKqtC0pT7c9jl1yxbVFQi9utC5JImgnMWjoZsYqXU+g5XrtPdcNjGEYXbF2QYRiGYRhvpYqWrBOYO/V5dF2stFwtBsbPqOUOgrGTsbQ2BU9th8cwXsKBAweUpco42sYwDMMwDONtVCGyjuPYrkm4XW26GnE7Ji38qUbHYaV+Mg4xMTEmR9381O5+8vc5PDfOtO25jan4xLwsD7TsFmi9LrA4d8w4fCI3ivPMfBl79ryMeOE/7q23Ko6jc5j3fw4UjHreT55T/ZXw5SaruJu8Gcbryc3NxZdffomff/5Z8amA/Ggb7cMwDMMwDFMf0Dkmq5YQAmbmy52wMC0NacIt7JSCk8omyZ4jiJslti28H19Poj59yvIcfYImdvJSeV7pFnbCy/NIHcVi8qwX0afPi9gs/JeOjzLtLCTVc/Evo9NC0/6bXzyCSaqaEoIs5Vb1PEr4VcWdYbyYBg0a4F//+hfWrl1rIbRomfxoG+3DMAzDMAxTH9AhshZivNma4Hixpl13s3XB2LbohK8xSWk1Gvbaaxhm2mKiz2gMp358beKEKNIsy4060LZMTfoaOHLCvjhLPYEjQnhNVSIQO3w0+nz9s6k1S+NvDr+quDOMl2MttFhgMQzDMAxTX6lCZNmzKqg6d1sXHIbXZEvQrfhZiiGli547IIEVvwKjNystUJtf1C/OdFGDcWeYOoJWaLHAYhiGYRimvuJx3QWfkwOlSLBsxot9juDEGdMmXeyp6KKXun4F9ijLZtTWL0Gl7ZpjJdQytedlyB6FArn//bfab52yFXcelMXUQ1ShxQKLYRiGYZj6imeJLCFs8HK8YjwiHitGz8LkVsq2qoidjFk0bkrpDjgzpZNlS5XYPr2TybhFpe207X7q6heDcYuvKp5CLG1+EUcmmfaPp/FWrznoAGgr7myikKmnkLhigcUwDMMwTH2l6nmynMTt82QxDOOV8DxZDMMwDMN4K57VksUwDMMwDMMwDFPHYZHFMAzDMAzDMAzjRlhkMQzj9bSI6a8s6cPZ/YmaDqM+poHwtDh5QxoIT4uTN6SB8LQ4eUMaCE+LkzekgfC0OHlDGgj1mGs+JothmPoLj8liGIZhGMYbuaYii2EYRg8sshiGYRiGqUtwd0GGYRiGYRiGYRg3wiKLYRiGYRiGYRjGjViILOp2U13HMAzDMAzDMAxTn7EQWTTmobqOYRiGYRiGYRimPnNNDV/QQHWGYeovLzz7hLLkGDZ8wTAMwzBMXeKaiyy9lSyGYbwLZ+5/FlkMwzAMw9Ql2PAFwzAMwzAMwzCMG2GRxTAMwzAMwzAM40ZYZDEMwzAMwzAMw7gRFlkMw3g9LWL6K0v6cHZ/oqbDqI9pIDwtTt6QBsLT4uQNaSA8LU7ekAbC0+LkDWkgPC1O3pAGQj2GDV8wDHNNYMMXliQdSUXiweO4cjUbxcUlii/DuI+QkCC0bNEEN/TpiOimUYovwzAMUxOwyGIY5prAIstEbm4Blq/ciuSUM4oPw9QsPj4+GDq4F24a0F0uMwzDMO6Hn64MwzDXiLy8Qsz79AcWWEytUl5ejg2b9+D7H7YoPgzDMIy74ZYshmGuCdySBXyzeB2OJZ9W1kyEh4UiKChAWWMY92AUb/rsnDwUFhYrPibGjRmCHt3aKWsMwzCMu2CRxTDMNaG+i6zDR9Ow6LsNyhpwXaum8DG0we+/Zyk+DOM6JSXleHhSB/S7sYniYyLl+FksWbYRRUWmcX+Bgf74218nIiDAX64zDMMw7qHeiaz585PwzTfJypp30LBhAN5+e4DI9wjFx7vgMvNO6rvIIoFFQkslptWN+NMjvylrDFN9fH0NOLBnLLp0tnzObNuRiHUbf1fWgAl334zOHWOUNYZhGMYd6BRZazEj4ifcnjkbIxQf4ATmjpiD9mu1fp4vsoYN+wGbNp3D0KEtFJ+6TWpqjnTDh7fE2rV3wGAwKFu8By4z76S+i6yPPl6Gi5cy5HLDBiE4lRaL995PkusxrUPlL8O4QtqpPGUJ+NOk9vh0/iBlzcSZs5fwyecrlDXg5vg+GHxTT2WNYRiGcQfVFFlTgXlrMa2t4iWoCyKL2LjxTvlb19m06axI03K5/J//DMHUqV3lsjfBZead1HeRNWfuEmRk5sjlJo0jcOxoCymyWrYIwZnUidKfYVxh3YZzGDFyjbIGvPvWjZj5RMVz5vKVLHw473tlDVJgkdBiGIZh3EcV1gVJSEUgImI8Foq/8RG0rLo+eL7r0xYCi7l2tGsXhqef3om0NFOljfF8uMwYhqkJYmMaKEsm/vbUb5j13iFljWEYhqkNqhBZbTFtbSYyM+242dqOgsy15IUXrpe/jzyyCUYyI8V4PFxmDMPUNI2iAuUvCy2GYZjaRf88WWtnaFqxVDcDa5XNzLUlJqYh3nyzP9atOyMNRTCeD5cZwzA1zSv/10d2QSVYaDEMw9QeOkXWWswYfwiv7rFuzbI0esFcW6ZM6YJbbmnFXdDqEFxmDMPUJM2bB2PjulEICzOZaH/ymV1Iv1gglxmGYZiaQ39LFrqiPY+/8mjISt2CBUPlMndBqxtwmdUOLWL6K0v6cHZ/wtljUtPOKEv68MQ01Mc41cU0tI8Lw+x3+snl8nIjLpx3XmRd6zTYguNUNd6QBsLT4uQNaSA8LU7ekAZCPUanyBqB6a8ewk/cN9DjoS5o06d3l13Qdu68qPgyngyXWc1zLm2nsqQPZ/cnnD0mNqaVsqQPT0xDfYxTXU0DCa3q4AlpsIbjVDXekAbC0+LkDWkgPC1O3pAGQj1Gd3fBOc/vwsLxPCarLkDzLxFFRaXyl/F8uMwYhmEYhmG8B90tWbMtxmLxmCyGYRiGYRiGYRhb6B+TdWIuRsjWqxGYe0Ksk7XBEXNBi4zzlJeX4+jRo9i8eTO2b9+OkydPKlsYhmEYhmEYhqnL6BRZJzB36lKM25OJxZMUrxHT8SqWYnU9UFnLli1DaGiohWvUqBFat26NwYMHY/r06di4caOyt2MuXbqEJ554As2bN0enTp0wdOhQ3HTTTWjbti2io6MxdepUJCYmKnszDMMwDMMwDFPX0CmyjuPYrvprXbC0tBT5+fkW7urVqzh9+jS2bt2K999/HzfffDMGDBiAEyfsq86dO3eiS5cumDNnDi5evIiWLVti+PDhGDZsmBRY5Dd//nz06tULv//+u3IUwzAMwzAMwzB1Cd1jsm6ftNDSuuDaOXge4zCyHgkvHx8fFBQUSEdj0o4fP47vvvsO48ePl9tIRJHQ2r17t3JEBcnJybj11ltx+fJl2QL2448/SpG2bt06bNiwAefOncNPP/2Evn37yq6EhYWFypGMysGDB6UI1eP27t2L9PR0C79PP/0U33//Pfbs2VOlqfQtW7bIY1asWKH4WHLgwAHzeal10ho1rlSuDMPUAKs3wxDwmYWbulrZxjAMwzDXGN1jskbM3oMOb0Zg/MJdeL5PBCLGA4vXTkN9a9wKCgqSLjw8XHbxu+uuu7Bo0SL88ssv5taoiRMnIi8vTznCxKRJk5CTk4NmzZrJfUePHi3nSFIhkZaQkCDHZz3zzDOKL6OFBCl1p9TjSLCSCNb6TZ48GXfffTeuv/569O/fH6mpqcqZK6Mec//999sUvD///LN5n3//+9+KbwUknGnbkSNHFB+GqS5pmGolKgbOyVS2MZ4DlxPDMAzjhMiCkFPT1rJlQXsMHDhQVuz9/Pxk5f6VV15RtsBs3IJ49913ZUuWPej4119/HYMGDVJ8GBUSPLt27bJwNLYtLCyskj8JKpU//OEP0sjIoUOHsH79etx333347bffMHbsWJstWtRKReKoRYsWUhivWrVK2VKZqKgozJs3D2fPnlV8GIZhGIZhmPqOTpG1FjMqzYl1AnNH8DxZWqiF5KGHHpLLCxYsQFlZmVxevHix/KVWLOpayLhG06ZNccMNN1i4wMBAKUyt/Ul8qdCcbh06dJDj4Wjs3Ndff40+ffpg//79No2MUMsk8dFHH8nfb7/9Vv7a4sknn5QtXa+++qriwzBMrTAyHsbiP1m4eSOVbQzDMAxzjXGiJcsWh5DMNtwtUEXUlStXsG/fPrmstmKRJUESBMy1p2PHjvI3Oztb/mohkUWibMyYMVI4UwslGTuxBVmXpLF2n3zyCU6dOqX4MgzDMAzDMPWZKkQWtVbR3FjjsVD8jZfzZKmuD57v+jSm1VOLg/bo0aOHsgQcO3ZM/pKBC4JaUhjP4PDhw3IcXPv27RUfE2Qwg4yU0Ngt4p577kFubq4UWvZ4+eWXUVRUZHNsFuMZtIjpryzpw9n9CWePSU07oyxVzappNLZnA+Yr6yo7nlxqMfbHMGQ/UmhDJaMQm2Hq9JqJ2UOs/QQp+zHQYn9rtwyz5YktkWmudGzFvqZ4a91LFWFWovJYJrOblqbso6FSGk3hVioHu2kzpb/q/R2lR5OHAqfLyQ7OXkvO7u8KNR0nV9LAcaoab0gD4Wlx8oY0EJ4WJ29IA6EeU4XIsh6HZeVm86gsa5o0aWI2aEF5pP0lccpce6gbILUy0tgsMlaiRe0qSOJK+6t2+bRFv379pCGTzz77jCeV9lDOpe1UlvTh7P6Es8fExrRSlmoJKUqWYmalaApx02UPdihrtsnAzC6VRYXdNK80CaCEBcq6mRgkCH9LK4Cq8KssTsws2CC22xZ61lTESRFtdtN2Qsbl/O32uwObsZse0zncbdWwNq5XZ6npOLmSBo5T1XhDGghPi5M3pIHwtDh5QxoI9Rj93QXXztC0YqmOx2RZQ+NzVGMK/v7+8pfGDRHU2sHUPsuXL8dtt90mu/aR0ZFp06Zh3Lhx0sS6NSSy2rRpI8dsEXFxcejZs6dsybK2GKmFWrNoPrX/9//+n+LDMJ6EEANj3NG3W5ynilYYKciedBzW/FcrzrFqmi3hV11IYDkQbVqEgHNs/c+59DAMwzAMod/wxfhDeHWPdWsWWxi05vz588oScN1118lfskBH0LxNTO1TXFwsu/ypE0iT8QuaLyskJETZwwRNAE2TSZOlyKSkJLMjc+80JovmNrNH7969pTn/L774AikpXN1i3MuouWTY4WZMUdZVBrw9ztL4w5aeiFO2Oc0jN1ueS7pxmGXdU2LnSayo7iWuniNlP16xah2qlKblzvdJXzXNSmD174NkzTlXPqL4K+xYklY9kaSkp1bKiWEYhqkTOGH4oiva8/irKqH5kQhfX185sTChjtP69ddf5S9Tu1CXv23btskugmQan8rozTffVLZWoHYV/O9//4uuXbuaHZloJ9Tt9njppZfkRNJa8/0M4ylUqugXx2OU3BKDebQ+N0auWRKBGZ/2wQBlzUQGDlelSCwEmw2hpp4jJbNSV77uHay6VUsrgrbOYY80LLMQbpGY9amlqBk110oIVSUc9aaHYRiGYRR0iqwRmP7qIfzEfQMdQibb1S5oZHFObcEaMmSI/CUrg2lpNgZwM7UCdd9csmQJWrVqheeff97CmAV18aRxVzQ3Fo2tsnbUbXD16tVy3ix7dOvWTU5ETSKN5uViGM+hLV6YrmdMqA3jE1WO17JGiJq/aQWbEGrP2/lCFxdhJeCA+WM0YZsNXohzbBmLGXqaf1anWnUTVMeTaZ11V0JHIsmJ9DAMwzCMgu7ugnOe34WF47XjscjxmCwtL7zwAvbs2SPNtNMYHZUHH3xQjssiEUaV+6q4cOECT25bQ5ChCxJaVEYPPPCAtDJI0OTEqamp0qrgpEmTKrl7770XBQUFcnyXI6g1iwyfkEl3hqkrpMxZZkd8uAkbYkoS1xMvWHXds0AavKB46TN6UWvYSw/DMAzDKOhuyZptMRaLx2RpOXPmjKywv/baa3L9qaeekhPiqtAkxI8//rhcpolwSYCpxjGsWbt2LW688Ua2UleDkDXADz/8EFlZWbjzzjuRkZFhnnBYNd1ujepfVZdBml/rD3/4Axs5YeoMZHa8/ZMZylrtM2qunq6A1BrlYUKLYRiGYRzgxJistZhh0Yo1AnPr2UTEJIz+9a9/4cUXX8TTTz+NyZMnY8CAAYiNjZXiiXj00UdtWph79dVXER8fL5fpHHQcjfX55ZdfsGnTJlnpJz/qZqjOq8XUHFR2VFY0J9aECROkyKJWLhqzZYtevXqhbdu2WLNmjRRnjqAWTdWyJMN4Ntbjl4hIzEpSxx8Jl2Q9JsvdUFdAJSyHRi6E0HrXle7WVumx4+aNVHZnGIZhGDegU2TRpMTjgcWaVqw947C0T/3qLkgii1qhyLDBW2+9hU8//RQ7d+6Uxg5uuukmrFq1Ss7BRJPcWhMQECAr6H/5y19kVzUygkGVfBqvNWzYMNnSReeiyjl1TevYsaNyJOMIytOtW7cqa5aQMEpMTLTbRXPOnDlyO5XlsmXLZP6TwRJ7bNy4UVogpDKiLoR0rGrqXQuJMeqGSNup1YxhPJaUTCQqiypTlusc++QOaO4u7UTD0siFKnwqW+nTxchYq+MysGilIxPtNE8Xt5IxDMMw7kWnyDqOY7sm4XZt38C2IzGu7yEk14PWLDJoQMJKddRSRRXzuXPnYsWKFbK7IFX0R450/CmUxmXRMVQBf/311+VcTWQufOjQobj//vulQKNWrG+++UZOasxUDXXP69y5s7JmCZlop7Jr3ry54mMJiSXaTmKMLEFSi6QjaI4t2p/O27hxY/OyLdq1aye3h4aGKj4MU13C0dmqW92OJ/dbTA7sDhKPWQqSVe86a/jCSZRxV3om9B3QKVxZckQMxlqbaH9yqaWYUzCNRXP3PF21U04MwzCMZ6NTZLVDh74LLa0LnliNpbvqh1n3Tp064Z///KfZ/eMf/8CTTz4pW6Vuv/12aZHOGchS3TPPPCPnaiLT4tRCQhbpqGWLuqwxDMNUJgIduymLZk4gwWwxT7gqJwq2Ii4C3ZVFFSlINOdMqNSdsGawsCoonbURjkhMSNBjIdGGiXbCbESjwtXMWLQaKCeGYRimzqFTZLXFtLWLAa11wT7H8DQbvmAYpg7QIkb3JEsSZ/cnnD0mNe2MsqQPOr9N8VAtYjDPhcl+VVzJJ9egcVX6ujGa4kRzfzkzt5Z+9KS5uuXkbL7WRjnUdJxcSQPHqWq8IQ2Ep8XJG9JAeFqcvCENhHqMTpFFWFsYZIHFMEzd4Fyac/3BnN2fcPaY2JhWypI+TOc3TRy80pHZc2eR46BsiwI5gbEDwxeu5JMFyhis5LcjFY/KTFlO47P0jxOriJNqUMOx2HL9/I6oXjk5m6/VLgcd1HScXEkDx6lqvCENhKfFyRvSQHhanLwhDYR6TJUi68TcEYgYMRfWQ6/WzohAxAyeJYthGKa2GTVXNQ5h5bb0hNQKFgYkyMVjlDzSHiZRYHnMn7CdJjCO64ntVv4WlvgqbbchWKo4R9z0sRbbtM6u1b9KabQnlDTWC224Sud3Q3pUqiwnhmEYxmupQmSdwOqlwKvzpsG6Q8mI2YsxaeFPPBkxwzAMwzAMwzCMhipEFlkVtGfcgoxh1A/rggzDMAzDMAzDMHqpQmQ5ElKOBBjDMAzDMAzDMEz9pAqR1RbTnu6K5ytNOrwWMyLG49Cr09n4BcMwDMMwDMMwjIYqDV9gxGxk7umAN1XT7dKNBxZnYu00bsZiGIZhGIZhGIbRUrXIItpOw1oL8+2ZmM1NWAzDMAzDMAzDMJUwCMFkpIX09HRER0dLz+pA5+nQoYOy5phXXn8PLzz7hLJWOwwb9gM2bTqHoUNbKD51m9TUHOmWLx+FO+6IlX6bNp0V6VyOjRvHiHS2lH51GS4z78SZ+//YsWN2n0/qM0ee7+/jFF/PZ87cJcjIzJHLTRpH4NjRFnjv/SS0bBGCM6kTpT/DuELK8Wy07/ydXF665GaMHRODrdvSMXjYSum3bvVQbN25SS4Tg2/qiZvj+yhrDMMwjDvQ15LlRfTp00T+njuXJ3/rOjExDRAY6Is5cxJhNEq97HVwmTEMwzAMwzB1iXrXkpWfX4oePb6FwWDA/v0TEBLip2ypu8ybdwiPProF//nPEEyd2tXrWkW4zLwTbsniliymZuCWLIZhmGtPvWvJogr6p58Ow4kT2XjuuZ2Kb91mypQuuOWWVnj66Z1ISzNV2rwJLjOGqces3gxDwGcatwyzU5RtDMMwDOOh1DuRRQwZ0gKPP94NH3xwEFu2nFN86y7UwrNgwVC5/Mgjm+CNPdC4zJjq0CKmv7KkD2f3J5w9JjXtjLKkD5fTUEmkfIapq02brKnpfHJ2f6LFpI3Kkj5qLE5O5KM1npivzuKJaeA4VY03pIHwtDh5QxoIT4uTN6SBUI+plyKLeO21/mjTpiEmT94ku6PVdWJiGuLNN/tj3bozmD8/SfH1LrjMGFc5l+ZcC6iz+xPOHhMb00pZ0ocnpqFW4rRwmLKkD+fCSMMd56daCKeBczKVbe7DE/PVWTwxDRynqvGGNBCeFidvSAPhaXHyhjQQ6jH1VmR5cxe0//3PO/vScJkxDMMwDMMwdYF6Z/jCmiee2Cq7oM2ZMwhdu0YqvnWXtLRcTJq0QS5v2DAGw4Z5nxEFLjPvgA1fsOELXVA3vTEnlBUiErOSxmJGnLJaLdIwNWAD5itrxIC3x2H79AhlrW7Chi8YhmGuPfVeZKmW646Ll5I3QXNKLVgwDO3ahSk+3gOXmXfAIotFli5YZDkNiyyGYZhrj+Ho0aNuH3Jfl0QWQdbdTp70rgp7bGxD4by3ss5lVvdhkeWqyKosDMw8cjOMc2OUFQVHIiVlPwZ22YMdpg2Cim2rpn2GhAWKN1Hp3JXjMWX5nzBvpLKiUikMG/s52qcqkWXjWEtsi7JK6bNH/z5I3tITcXrFnt342NmfcKYc0BYri+MxSlmzBYsshmGYa48UWXpFkbvxFJHFMEztwyLLWZGVidlDlmJmlcMRrSrzzoqstyMx80nt/hoUwZHsQKBUaglyJKBUHO3jUNw4EJyVsBQn7hdZeuNiQyQ5Ww4Cm4JWgUUWwzDMtafeGr5gGIapS6yapkdgVZcMhxV77NyD9gGOxcmOJ/djlbLsWZxAwpD9qBkTM86IPRGPgM1V5FEV5SCY/2pNpYVhGIZxByyyGIZhPJ2U/XjFSthQi5Gx+E8VbnlbZcu15gSW6Zw/ym1QV0ZtXkg3DrOspzfZeRIrFGUyai7tczOmmFbNVMpXasVSttlj1bTKAotamsznqFQ2QmhNS1OWXUSTFoZhGMbzYJHFMAzj6aRkWnSlI7p3sDLOMDJeVOhtCAtn0QqWpD4YoHhr0QqI5LevpYXPGMyjeFiPQ5NEYMan1vHPwGG3C5M0LLNu2RN5aNGVT5TNykeUZZUFqY5bsyyEo61yrYm0MAzDMO6CRRbDMIynExdRSezMH/NZxSS65lYRISy2aMcJOUskZv1NI1jiYjDBunLfvw+e0giIuIQ2leKWeMz9E/pWDXXZ0+QJOatxXjWCEMCJyqLKlDGVRd+oMdatWRk4alckWZUDlevzntJSyTAMw+iBRRbDMIynE9cTL1i3hGhZsEERFssw262tGxHo2E1Z9FBS5ixT0q53TJSbqdTKGInOtkRuJaHsZEuUDaHNMAzDeC4sshiG8XpaxDjXh87Z/Qlnj0lNO6Ms6WPyT9/p6AqYgZldTELLlTSIWCm/+pBhiMp/d2W9JmgxaaOyVBmyENj+yQxlzTW+Un5rEufLwoVyqGGcDaOm9yc4TlXjDWkgPC1O3pAGwtPi5A1pINRjWGQxDOP1nEtzziyfs/sTzh4TG9NKWdLHubQVmLFFGaPj0MiFEFrvprmUBhEr5VcfroXhHOcWDlOWrLExFkqaVVfHMQlnZ0yZlj8ovy6jo4VK5pPeFi+JB5aDk2HU9P4Ex6lqvCENhKfFyRvSQHhanLwhDYR6DIsshmEYT4fmaNJao5NGLlQxUdlCnqdjbX581bsujJ2yNRZqeXXGo7mIjZa8+csrWw5ctdzaJHskOtZ2XBmGYZhag0UWwzBMXUAZdzVVh3n0AZ3ClSUPRZlvSzVQoWtSYB1YG9yoWryFo7NVTxDn5/mKwdhKlgM3WJaTEMmV0vhIrOWExAzDMIxXwSKLYRimDmFhVVA6a4MPkZiQYGXe/Vpiy0KhO7DRgrTjyaUWeVO1eLNl2IMmC9bkr44JjEfNrdyaaFFOY6xbsdpipU2z8wzDMIy3UP9EVspsDBw4+9rMlH8tw2auHVzuTK1BY5KuQZc5h9iar8qSKW9XPXaqMjGY54YJmG0JJOeh+br0nkcIrOJ4bsViGIbxcrglyxlqo7KsDaPOVs5TMHugAQZDZTfQnfalq5M/zhzL5c5ca5QxWI4m/jVNEOxpAkshrie22xIhyoS78xKUdWeR+WJb3Ax4e5wuwxfqhMaVJgt2GmViZLthqkY5WGAxDMPUBwxHjx41dujQQVmtXV55/T288OwTylotQRXYB4Evts9ArddF9IR9LeNXE3hqemozXvWx3HXgzP1/7NgxREdHK2uWpKeng55h8nx/H6f4ej5z5i5BRmaOXG7SOALHjrbAe+8noWWLEJxJnSj9GcYVUo5no33n7+Ty0iU3Y+yYGGzdlo7Bw1ZKv3Wrh2Lrzk1ymRh8U0/cHN9HWWMYhmHcgY6WLFOrxFQ5EriihcKtLRI1DVVg1daU9jM1A6FXYarqL5wpjRWkzB5o3maglgU6j/l3KqYqeTF1VUW+yHOo+5lOU3ldYHFuw0BlAlFxngdF/HbMRHvhP/Cf/6g4TpsGw1TTwGzlvLOnqv6V0+BRWMR3Kj6xlQcO0mS3PEwbNflT1bms8tnqWuZyZxiGYRiGYaqDDpGVjMM7pmAs9W9Y9RZmdl8Jo3Elus98y0kLTNcKIaSEsOq+0ijiLVzyLKUrB1WQEwDVX7h52j4coiL74MzuYrNp28ruh0VOaNiRiM5fiG0rp2B+AjVBKMuvWFaq7RE3Y7s5XOPK7pj5FuVmHGZ8IeI3YBaShf/2SU1MO1ulIXlWIhLUWrWomB8eq55Hf/jXDHN852GyzTzQ7qNJk8PyoPw5jBfUcyVPwKIHlXywmT9W+aztX8XlzjAMwzAMw1QTp8ZkrVo2HwM6txdL7dF5QCKO1oVaXcpRJIrK61PWneBTVmARbPirxHVEd8xHgtJ6MGrePMt+9AMmYDTVzdt3FpVjzbLcqANtC0XCfCDxqP1KslUa4kZPwID5y2S8oE2bM+FfK7TxtZcHttLkqDwof+Q25VzUWrlDEUfO5g+XO8MwDMMwDFNNdIisUZi3ErICmzB/Cl6gr/7UogWlgum1iHTLFoexWCYrxUpXLXdAFe32izAhWWmJMLeu1SOczoMqykOIDmoFkueSzkoc6YbLnWEYhmEYhqke+lqyRs2zrLjSel0ZoE8tEzsWYYXSXJCyYpFpTFbcaCETZ0LtoVYJUSGeKgfMUKU7GbOo5a7yJP72UVtSBOYwtaitIIJK2zXHSmQaKuIq958y1kUR4UE4ygNrHJWHVf7oxjqfCS53r6RFjHMTNTm7P+HsMalpZ5QlfXhiGupjnLwhDa7giWngOFWNN6SB8LQ4eUMaCE+LkzekgVCP0SGyyDiE9dd8Gs/kxi/8NYqoLNPYl/amLloPHu6utB6YxsEkJpj8yVkYDxAVXHGQsq09Fk34AjP0zh0ZNwNf0PgZ5bwVYSqI7S90Nxk5qLSdtk0xdX0buPCS4inSkFwR1/Y0ZshiAFkdxFEe2MJheVjmj3RWBicqoc1nreELLnev5FzaTmVJH87uTzh7TGxMK2VJH56YhvoYJ29Igyt4Yho4TlXjDWkgPC1O3pAGwtPi5A1pINRjdJhwJ5G1DGMtul+RyJL2pqs1J8s1MeHOMIxHwCbc2YQ7UzOwCXeGYZhrj4OWLNU8dQLma40KSNceM7u/4JmTXjIMwzAMwzAMw1xDHIisOMzYrgzQt+W42xLDMIzbyckpQX5+qbLGMAzDMExdREd3QcGqqSZz0xZMwUqXLbiZ4O6CDFN/4e6Clt0FDyc1xwdzD8v1oCBfNG0SBINBrjKMU6SdylOWgAXzbsLkP3Xg7oIMwzC1jM4xWa+gc3L1xl/ZgkUWw9RfWGRZiqyQoO740yO/yHWGcRetWzfAts0JSE3NZZHFMAxTi7ho+MI9sMhimPoLiyxLkTVtyjgs/CIFr/x7H06cNPlf1yoUCaNaws9P32wbDKPy62+X8PvuK3I5rl0Y3nztBtw1YYNcZ5HFMAxT8+jqLpgyeyDe6rgd7h6GxSKLYeovLLIqiyyiuLgcE+/fhGXLTRO03TK8BX74bjhCQvzkOsPo5V8v78XL/2+fXG7VMhRnzpq6EbLIYhiGqXl0zZP11swdmK+dg0i6ujJPFsMwTN0hIMAH3349VJrdJtatP4c7717PxjAYp/m/F3vjxX/2ksuqwGIYhmFqB32GL2oIbslimPpLfW/J+s+CZUi/mCGXGzQIxt+n3yuXVaxbtIjQUG7NYpyHrqWSknJlDVj540D8tnu7sgYMH3o9Bg3soawxDMMw7kBfR/+U2RgoW68GYnaKWCdrgwNngxYZhmEY52nSOFJZAnJzC3D5SpayZsK6RYvIyytlx85ppxVYMa0bwGjMVtZMNGkSoSwxDMMw7kJHSxZNSvwg8MV2dHxrII4+RVYGK/yqY3GQW7IYpv5Smy1ZLWL641zaTmWtapzdn3D2mP6DJ2DUqIqBrtFNIzH2jiFoFh2l+JgoKTHim2+P47Hps/D3mY8ovlXzzqwFTu1POHtMTe9PeFqc6nIaaI7LIYMDsHPXHpSWlkm/0NAgzHhsAvz8fOW6PWr6HqqNe64+xskb0kB4Wpy8IQ2Ep8XJG9JAqMc4ZV0QU1lkMQzjHmpTZHkq3/+wGYmHTihrJvz9/RAUGKCsMYx7MIq/vLxCKbS03Dt+ODq2b62sMQzDMO5C15isVVMNWDbWiLHLFJGVPBWGVzojefsMVGfqLBZZDFN/YZEFFBYW4+PPfsTVDMvuWwxTG/S9vhMSbhugrDEMwzDuRNeYrFHzktH5FQMS5u/AzPYGGBKAldUUWAzDMPWdoKAATHl4DHr1aK/4MEzNQ62lY24fxAKLYRimBmHrggzDXBO4JcuS1LQLSDx0HFeuZqO4uETxZRj3ERoajBbNG6F3zw6ICG+g+DIMwzA1gT6RRdYEE+YrKypTsNI4D9WZn5hFFsPUX1hkMQzDMAzjreiajHhqQiJmJRvlgNkKVz2BxTAMwzAMwzAM443omycL3dGRB2AxDMMwDMMwDMNUiQ6RNQpPzUrEslXKKsMwDFOLpGL2kBgYAnS6IZ+YJ4pPmTPO9j4B40wTyztECVdzPoZhGIZh9KGru+BbM3dgfoIBBoPWTRVbGIZhmLrHHszsEoOBc1KVdRusnoeZzs2/yDAMwzCMQr2zLjh/fhK++SZZWfMOGjYMwNtvD0CHDhGKj/fB5eZ9sOGL6rARUwMmYT7ux8ri1+yOj6WWrPZP7sGAtzdj+/RYxbfCHzaOXzUtBgkLlBWi/4tI3jKZp+xgGIZhGCfQOSZrFaZatGIN1NHVxDOhivqmTeeUtbpPamoOfvwxFdOmbak0k783weXGMO4jbvoszOpPS19j2WrpxTAMwzCMG9HRkpWC2QPb4/ALRsxTP3emzMbA9ofxQh004T5s2A/yd+PGO+VvXWfTprMiTcvl8n/+MwRTp3aVy94Gl5v3wS1Z1aF6LVmE2mI1ZXka5o1UPLWkfIKBXV7GDm7JYhiGYRin0dGSlYzDO6ZgrPYtHjcaEwYk4iiPhvYY2rULw9NP70RaWo7iw9QFuNxqhxYxstlGN87uT9R0GO7dfyOWyS6BfdBZo548LQ2Ep8XJG9JAeFqcvCENhKfFyRvSQHhanLwhDYSnxckb0kCox+gQWe3RecB8S+uCKSuwaAebdfckXnjhevn7yCObuPtZHYLLrXY4l+acBQdn9ydqOgx37r9qGrWCCR6Zjhma57inpYHwtDh5QxoIT4uTN6SB8LQ4eUMaCE+LkzekgfC0OHlDGgj1GB0iKw4ztq8EtNYF3dBVkHEvMTEN8eab/bFu3RlpJIKpG3C5MbXBjifjLUy4S8MW1A1w7jDTDgzDMAzDuBWdhi9GYZ7RKL+0mxwLLE9kypQuuOWWVtz9rI7B5cbUNjQOy8jjrBiGYRimxtAnssjQhYV1QZ4jyxOhslmwYKhc5u5ndQcuN6amIcMXxmIhrJbfL9fnj9EzGTHDMAzDMK6iQ2SlYPaDM9F9paYli3oPDpwttjCeBnU/mz69u+x+tnPnRcWX8XS43JhaYeRrSH67j1jYg5kPf8LPcIZhGIapIXSILBvWBUc9hVlYhBX8hvZIhg9vKX+LikrlL1M34HJjagPzHFk7X0b7aRtNngzDMAzDuBUdImsUxk6xNtdOwoutCzIMw9Q9YjFjy0JMocUFkzBwTqr0ZRiGYRjGfegQWauwbP4OzGyvHZOVgPniL4HHZzkNdbdMTk7Gli1bsHXrVqSkpPAYnFqA8vjIkSPYuHEjNm/ejKSkJJSUlChbGaa+MQzzlPFZO56caTE+iyYpllYIaSJi8qAWL8UqIQsyhmEYhtGHrpYsS8uC1q7+WRp89dVXERoaKt29996r+DomKysLzz33HFq1aoUOHTogPj4egwcPRvv27dG4cWM89NBD2LVrl7I34y7Kysrw5ptvokWLFujcuTNuvvlmDB06FF27dkVYWBhuu+02fPXVV8reJqhM1PIl16BBAzRt2hR9+vTBY489hv379yt7MkwdRjs+qwsbwmAYhmEYd6JDZJFxwYGaVizV1d8WrK+//hr5+fnSLV++HDk5js1uHzx4EN26dcPrr7+Oc+fOyQr7sGHDMHz4cLRs2RJXr17FF198gRtvvBE///yzchRTXYqLi3HHHXfgmWeewYULFxAZGYl+/fqhf//+UtgWFhbK/CaBq4X81fIll5eXh0uXLmHv3r2YO3euFFv//ve/lb0Z5lowDPPIWmDxaw4/csVNXyqtCm6fHqv4WKJuNxYvNU9KPGourdt29s7DMAzDMIwluroLvjWzO1ZyC5bk0KFD0oWEhKBRo0YoKCjAjz/+qGytzPnz52XryZkzZ6S4+vbbb6XQ2rBhA9atW4fTp0/LZWrZIqhSz7iHN954A6tWrYK/vz/mzJkjhdbOnTuxY8cOpKenyy6bI0eOVPauzDvvvCPLl0R0amqqPBeVU3l5Of75z3/im2++UfZkGIZhGIZhmApcNHxRf1m0aJH8pW5md911l1xW/Wzxl7/8RbaChIeHY9OmTZgwYQJ8fX2VraY5kqhVi8YKvfbaa/Dx0dW4yOhg3rx58nfatGn461//ioCAALlOUD5Td00STp999pnia4mfnx+CgoJkd8GYmBgpyEgYU2sYQS2TTN2gRQyZ09OPs/sTNR1GfUwD4Wlx8oY0EJ4WJ29IA+FpcfKGNBCeFidvSAPhaXHyhjQQ6jG6avTtO8PK8EX97S6oCqq7774b99xzj1xes2YNsrOz5bIWMq5A3QmJV155RY4Jsgfl6bPPPosxY8YoPkx1oC5+Z8+elcu9evWSv/Z48MEHlaWqIeH18MMPy+UDBw7IcBjP51zaTmVJH87uT9R0GPUxDYSnxckb0kB4Wpy8IQ2Ep8XJG9JAeFqcvCENhKfFyRvSQKjHcHdBJ0hMTJQW6gIDA+VYH2qBioqKkmN4fvjhB2WvChYvXizzilpC/vSnPym+TG1ALVAkiAh3G6qIjo5WlmBTXDMMwzAMwzD1G+4u6AQ0nooYMWKEtExHY33UlidbXQa3bdsmf6l7GQktpvagLpmDBg2Sy9RtkMqOBK87OH78uPylcXlNmjSRywzDMAzDMAyjoqslq/I8WfWzu6C2q6CK2mWQrNRlZmbKZRUyakF06dJF/jK1C1kApHFYZLyCTO2TaXYan0XlePnyZWUv5yBT/B988IFcTkhIMLeWMQxTPVLmjJNzcU1drXgwDMMwTB1GV0uW7Xmy6ld3wX379slJhKn16s4771R8Ta1aZNSCzIUvW7ZM8TWRkZEhf8l0OFP7DBw4EKtXr5biiqAWqI8++ggTJ06UXf7IUqA6Zs4RNGkxWYn87rvvcNNNN+HkyZOyFeull15S9mCYmiQVs4coEwTrcUM+gbd0PFAnRuZJkBmGYZi6hi7DF9SaNdWiFWtgvZu4Uu0qSObYtaKJWkpofBZh3WWQxgURJMCYawONmzt69Cg2b96Mv//97+jbt6/sSkhm2MmEOwnm6dOnK3tb8sQTT8jrncqYJjOmVksy30+m+2kMHk1ozDAMwzAMwzDW6BBZKZg9MAFYqWnFSp6ARe3rV3dBMmJBREREyImDtS44OFhuI/PeNLGwChnFIGh+JubaQUJpyJAhePvtt/Hbb7/JroJktp3MshPvv/++9LeGzLxTd0AydEItXzTGi6xEHjt2DLfccouyF8PUNLGYscV6YuCFmCK33Y+VFv7CbZkMZV7hOo86MTJPgswwDMPUNXSIrGQc3jEFY7V9A+NGY8KA+mMMY/fu3WZjB9Si9dBDD1m4jz/+WG6jbmVLly6Vy0SPHj3k76+//ip/Gc+AhPKkSZPk3GQkoIj//ve/8lfLrFmzZJmS9UgSyr/88ouchFgVzwzDMAzDMAxjCx0iqz06D5iPZdpmq5QVWLSjOzp6y+fSKlC7CrZr1w6PPPKITdetWze5j7bLILWeEIcPH8aePXvkMuM5tGnTBt27d5fLNGE0w9Rt1LFb42x35075BAM1Y7ZM451M+6pGJ1RnbwyU9X7katJQhbUxDG2csfq5WosHwzAMwziLDpEVhxnbVwIJmjFZ7Q/jhXpi+IK6R6pdBWfOnClbrWy5F154Qe6zYcMGs+W68ePHS6MYBE00TOdyBBnKOHHihLLGVIf09HSkpaUpa/Yhy4MEjblimLpNLGY8f7/43YOZ7240eWlIWbkCO8TvlOe13QnFvl1i0P5Jy49AO56MtxJaGzFVCBnr/Yj5Y2rfMMWih4WwGvO1smaC4sFCi2EYhvEUdBq+sLYwWH8sC+7atQupqalyfM64ceMU38qQOW8am1VaWorvv/9e+jVs2BDPPfecXF67di1mzJiBsrIyuW7N9u3b5XxaBw4cUHyY6nD27FnccMMN+Prrr6WRC1usWLFCGrIg1PnOGKZOM/JW01itBT9bjZlNxYolJJDux9iRJp8K+mBWkmZM13ISaiS05pnPsWraJMwXvwPe3lyxn3SmsWHmfdXWMj1uWmUhqI892LFTiMXlFfFIfruP3DJ/uavnZBiGYRj34lBkpcweCMPA2ZXMAa+aaoBhav0we6F2FRwwYIDD1g6abPi2226Ty9oug0899ZTZ5PucOXPQp08fOc8SWbsj63bz58+XFvDIqAKZiGfcB7UoPvDAA3Kesn/9619SVO3YsQM//vgjHnvsMfN8Z2PHjjV37WS8kxYx/ZUlfTi7P1HTYejbfxjGPkK/X+OeZpr9V8/DTCFM8MitVh/ISGAtxQylaUuGMfI1rFTOsYxahoRwemWB+H1kYSUDFC1insM8KcqUfWsFkyicpxGLcQmjMYAWDp5AU48oB0tqOgxviJM3pIHwtDh5QxoIT4uTN6SB8LQ4eUMaCPUYByIrBSuEVpj1xYxKlqpGzVuJKfOXeb11QW1XQe0ExPZQ99m0aRMuXrwol6kFbMmSJXj66aelkQVqqfrrX/+KoUOHynmapk6dKven/UiMkQhjqg8J4lGjRklz7WTC/eWXX5am9mnuLGq1mjt3rjStT3NmffXVV8pRjLdyLo0Uhn6c3Z+o6TD07j/qby9KwZF/12smD8Gq5dS1ToiTvw0zedhBDaN9J9NzKPFYqngVpMhuhlgwqVJrFM0fp3bbk/vGTcZ2i5YuB26u47g4RVxbmEZXAts9pBy01HQY3hAnb0gD4Wlx8oY0EJ4WJ29IA+FpcfKGNBDqMQ5EFlkVtGfcgoxheL91wczMTEyZMkWa7b733nsVX/tQ5Z32pUlqtabcyQz4G2+8IU1/v/vuu3K+JZrUllpPJkyYgPfee092SaTJjFu3bq0cxVSHZs2aYeXKlTJfyUogtWhRi+GNN94oJ5CmObC2bt2K//3vfwgNDVWOMkGtj1SO1HrJMHWOuOGYQB/RFsxRDGBsxDJqieo/GqNdMFaUcuyIssQwDMMwjF4ciCxHQsqRAPMeaNJhMtlNrnnz5oqvfcLCwsz7d+rUSfGtgAQUGc+g1jGq4FOXQeqOSJPhtmrVStmLcSeUrzQWjlqryCgJmdP/+eefMXv2bCl0bUHlQWVIExczTN0jFqPvoZaoPVi0MhVY/bMcT2Vp8EIf3TvEIq6D6VlWeTyWpZNdCWtlTBbDMAzDeD4ORFYcZrzQHTMrTTq8ClMNCUic9VS9MX7BMAxTl4ibPt1kkGLJesyWXQVtGbywh2okow86kyqLi5PdD+lcXt55gWEYhmHchkPDFxg1D8bkznhFNd0uXQKw0ojt6khphmEYxsNQDGDsfBkzpdEKa4MXKntw2Eo5rZoWbzKSoXYvVLsfinO1D3jOxlhck3l3aT79Wo3JYhiGYRgPw7HIIuJmYLuF+XYj5nETFsMwjEczaozJFHtVBi9ofiltN74EEmV0zKdq98JYzNhiMtVOVgQTNPuanMm8O8MwDMMwFVQtshiGYZi6hzpnlkODF0JMva2KMYX+LyK5uMKsu4lhmFdcMR+VJZVNqjMMwzBMfYdFFsMwTJ3DJHqMxa/ZHRubMmeOaQLhe4Y7NniR8JplN74t9g1kxE1farmvdNaCzDXUc1vMf2XlN2quvfCU/HAQd4ZhGIapTVhkMQzDeB2q8Yr78YLVBMIMwzAMw9Q8LLIYhmG8jdXzTMYr7Bq8YBiGYRimJmGRxTAM41WkYvarZLbdscELhmEYhmFqDhZZDMMwXgVZA6x6rJT98U0MwzAMw1QXw9GjR40dOnRQVmuXV15/Dy88+4SyVjsMG/YDNm06h6FDWyg+dZvU1Bzpli8fhTvuMI292LTprEjncmzcOEaks6X0q+twuXkfztz/x44dQ3R0tLJmSXp6OugZJs/393GKryUtYvrjXBr1n9OHs/sTNR1GfUwD4Wlx8oY0EJ4WJ29IA+FpcfKGNBCeFidvSAPhaXHyhjQQ6jH1riWrT58m8vfcuTz5W9eJiWmAwEBfzJmTKOcw81a43Jjq4OwD0tn9iZoOoz6mgfC0OHlDGghPi5M3pIHwtDh5QxoIT4uTN6SB8LQ4eUMaCPWYeteSlZ9fih49voXBYMD+/RMQEuKnbKm7zJt3CI8+ugX/+c8QTJ3a1StbRLjcvI/abMnyJlZNUycM1nI/Vjow516XqJS+RxbCOJfHljEMwzB1i3rXkkWV808/HYYTJ7Lx3HPOq1NPZMqULrjlllZ4+umdSEvLUXy9Cy43pt6T8gkGBtgSWMTXSAh4DquUtZQ542AQ+05drXi4mZo5fypmD7GRvgWTYBjyCVKUVYZhGIapC9RLwxdDhrTA4493wwcfHMSWLecU37oLte4sWDBULj/yyCZ4a+8zLjem/iIEyMMvYwct9n8RyeaJgBW3/H65V51GNTsvW+XUtC3EFPLa+TLeqiHByDAMwzA1Qb21Lvjaa/3Rpk1DTJ68SXZFq+vExDTEm2/2x7p1ZzB/fpLi631wuTH1kpT1WKQKkC2TUckg4MjXhCCp290FVy0ns/PAlOXadAzDPEVAzl++Uf4yDMMwTF1Aiiwa7+BOVxfw5u5n//uf93as4XJj6jX949BeWbQHjWlq/+QeuTx/TIzs1vf/2bsTwCiq+w/g3xAurQfaKgq2QUlAxIACWhJbFAE1ES1Yia1tKf1jk9ZaSKpQEUMpeBVsE6hVE8VS6tVoNSImKihoa0IVqBARSQKSCigeNZ7l3v/83rzZnd3MXskm2Z39fuzrzLx5MztH2JnfvjdvzGQ1JzSb5fnyg82fiFLjT9JqGmjND7/+1liNStVM8GpMuERl+FxykVmbdf/zbVg/ERFRx0ppbm5WjZTk4fFgD5ZHw3oIPRKd0fFFoOnT/6many1e/C0MHnyczk1cTU2fY8qUF9X4iy9ejtGj3dmBAs9b4mPHF9FYjYLuU1BujOUvb0JZYCBi49wxhtCdY8izXWfopoctSJkCbB11PorWDkPWyA2o9f6WYS6PcOvXU9HR+ydNIVvU1EnQZ25PyZt8rxcRESWGpA+yrF7rtm37VOe4g7xP6v77R6N//2N0jrvwvCU+BlnRkRolqwbJFDyosco6BmRGkFVQNQZl08z3s3k9Owsplz+MrDsfQt7jP9DPRzkHNkHXHzKAC2DvNdBajkEWERG5RNIHWUJ6dnv7bXfdrPfrd7SR3H2jzvOW2BhktYIOhFoICE5CBlmWYOu65ncoeePXIYMaBllEREShMcgiok7BIKutfE0ITb6arZBBVrDgytKWIKu1GGQREZHLJG3vgkREiW00ylQ35y+hZKRMP4zKsN2cG4GZN8CSoMzqKt1Ib85Blp7T4dJPQ6YeJSIicgMGWUTken3SVBQSsWjLi/b+jODl+2H8lcPUWF39DjUM6tnnzZovaarn8DzXej2M1INTArZJaqS8vQ2GSdc6dMm+thENetTSJ20itqjnw07HwAhqsTrvPATHbQrPDfsg4m2b3LAPIt62yQ37IOJtm9ywD8JahkEWEbne7qbouvuPtrxo1894dhYuKwtevuEts0OMzAEBnVkEaKx/Sw2zTj9VDQMN18NI/XBp9MfJ2WhMuEaGLWvjdpddogPDiyLqubC9z3Xc/W0Y3LBNbtgHEW/b5IZ9EPG2TW7YBxFv2+SGfRDWMgyyiIgSgPlOqpbvopLno8wu1X3vmEofcLoaBr7ANz13vGoSWHtDmf965DmtSDusMARbP9KnosbeBDFUsjq90HIu1y8dvty+j77mjfmX+5cnIiKKZwyyiIgSxsPIDWh2Jx1QiPzltuZ/6enm81X3T7GVNYKX9DHIU60YAtZjBDJZ11wd+TNZwdavZrbSJQXeZ8t826Y79hg5BzNi0cEGERFRB2GQRUQU7y65XdX+NNxpPnvlz+zAwq+XP6lRcuzIoh8KX25ClWqaZ5Fe+5pQ86souu0Luv62cNo2gzw/1qLHQSIiovjGLtyJqFOwC3ciIiJyqwhrsrbj7nG9ULjSN96rVy+Mu3u7mktERERERESmCIOsbah/bQouHWeMrlyMmwY/hubmxzD4psVQcRcREREREREpUT+TtfKZpThnQH9jrD8GnLMZDazMIiIiIiIi8oowyBqH0seASb16YdLSKZh57WlmjRYm4hJjlCLUWIrs7FI06kmiiPDvhoiIiCihRF6TNa4Uzc3NRio1Qi49vfJaJFWM1RE3u/bPSOSba9n2lBSk6JRdmiB70R7HPJHPIxERERFFLfIga/vdGNdLOrwYB9XfxcpC9Bp3N5KqtWB6IWpqCjuuK+GO/ryYqUZBRgXyGjzweCRVIXNLg56XhBL2PBIRERFRa0QYZG3H3QVPYuKGZjw2RWeNm4bb8CSeTYAoq7E021ujkpKSDV+lihEM2GpbCgLepOm3nNREWDUSaliAgmxruUaUesfVgv41Fw41Gc7bZKxnchFqa4uQYeRn3zzbt5ysw1u+wHzpp15vaYGV33IfOk8mBnqjihyUlXlfk+oTcBzt2+94fPz21zwGwcuFOD/C73gGOf6S6VTOYTvs2vPvhlqnT5p6y23Eoi0v2vszrPLV11ov6rWnli8Cjud98NO4BNkt9seeBrXYt1A6ZR/C4DaF54Z9EPG2TW7YBxFv2+SGfRDxtk1u2AdhLRNhkCW9Cw5GRoK2DUwvrNE1KkaqykTRQnVHa9zg5gJVVm2LB35xgHGDO7ko05htzqvK3AK/upjaOgxaJuvLR3nuZMAanx/ZTbHzNqWjcFkJsrJK0GDk10w5wSxs3GIUZBQhU29rQ0kdcq1owQgItkyw1hP557evHEzIL0euBBnhoj7rOFrbn2sGLc7HR8pb+1tmfEqocqHOjxzPLSi2lmvIQ8VkyQ84/oUNQcrJ+v23w6ud/26odXY3rdVjkYm2vGjvz9j9wk9VMJJ7v87w8zBybYFW4+KJePfdd1HwrM6IULvvQyuOKzBBDyMTj/vAbQrPDfsg4m2b3LAPIt62yQ37IOJtm9ywD8JaJuKOLy6dshTP2PtrT6SOL6RGwKpZyC0H6raisXEFKlCCGQ4VLEr6QGRCAgXzpj+nLOBmOisP46WmJmOQcVNuG1czI+C0TXpWC41bUWfc+Fvbmj4+D1nlleYNlS0/qs9vZzllZpDhmVBp7qMOtuy1PNlLP/AdR5EzAfmow1Y5EMGOj31/RdByIc6PHE91bvVyRgBbWxsQDIlQ5QK3w9LefzeUpHag9P/moVZGR85Bw/4meOxp+dWqVEJz2i+Vbvf/N0RERJQAIn4ma1zpBgxYIL0LvoabhvVCr0nAY4nQ8YXchNufD2ooifCGNgdlqjZiAirVTXbLZmGt1uptSkA5ZcY+ViFfB4X2midfTV2ApgiPT1uOo66tsralRY2UJdJyXu34d0PJq/EFVKgfxq5G1ctTWz7fd8ntDEaIiIjiSOQdXxjh1LUrpXdBK+leBhOBrbakcUWF+Wtw+njkoQhW67IWjBv4AvUAjtw0N6Akqw5bm8xZEbHVjHg/085pmyyBtSpSO1Lr21ZVPn9C/N5QSfBjbyaoauIGIUNPBlVdiXI5LmnGeKjjYxdpObuA49mCdfzDlXPS3n83lNxGpof9dyTPbGXcsEGNl19uf7bJ/tzWDpSOss8z0qglLWrTzee/JqpnEaUJor189uIdulTHCb49tn0LeMYr2iaTREREsRAmyFqJwl6Fxv/LUHoWDEwyL86lF6I40+zIQJp8Td6SqWs7zOdv6nJ1UzAj+T0+ZNxgoyhDz8tARd4yFMrNfySMz1wmz021+Ewt6DYZZJ5+nkk1p1OMG/YG37ZmyDM/Th1JxAsJYOty9bEzktQ2LQvSu54RxFjHIUUekZNe+EIdH7tIy7XgfzxVsjqYsB//0ozg5YJpz78bRTprsWrHgo2T66SfhkwZrp2HhW0NGlQQcj6KApuZG+vO0AGMvw0oOsMXuFlqbzi/UwItUfF/gdvzMHIlSHx2FlLO0M0qNQk0GWgREVFHS2lubvbIyJ49e9C7d2+V2RayngEDBuip0ObfsQjFN07XU5R0pMZL+n5g9+ZJKZp///X19UG/n6zvHLW+6yfqXPeRmhv/wOJqVAVpImiVzV/ehLJLdKYiNVg6wLpmKTx3jzazDVJLpDrVkGejdJNEbx6GoeTNJ1Fo/UOVYObyh40R2zZI8BYQ4ARl/+xgy9m2w+K8PbZ9MmTd+RJqpvVT495jFrCvRERE7S3C5oJWjRYREXWG9GlPBnRwIT0K6mZxDk39HFnPdkkAExB05Nz9Ekqk19m1K7DCb2UBAZa45HZUXSMjD6OyvWqJgtasBW5PP4y/cpgaswdYIj13vFkb/Mb2yI4PERFRjETcu+C02zb79y5I1FbpfEkvUVRUBxdWr3tLka+zzYCk5buyWmhsVDVGWVeOcfh3ZwUrG7Algogk43QzsKmr100G06eixq9XwBDJHuA5Lmft2wYU/WG1GgslfcDpeoyIiCg+RFyTtfim17B0UgI+k0VE5EqjUaYCEl0DFUGtUmP9W3osNG/g1GmMfXtzjlkLdf/zfNaQiIgSTsQ1WaXeXgUTtIdBIiJX8jWXCxccRVrjkznA1+QuHG/ZgF79QqZrw9dOeTv7ICIiSkARBlnA9rvHBdRisSaLiKhDPDsrZA95DW+ZHWKEDY7S01XtUO3jLzg8o7QDKx6X9QzDoLBteKMp20qN21Enwwi6rSciIoo3UTQXHIzHmjfgtnOmGMNmNG+4DedMuZQ1WUQU9/qkqfZ0EYu2vGjvzzDfedXyuSvpQc/sce9qTNA9CVo1VuXLA2qM0scgTz5WnuEKqE2qvlb30DdyvPfdc6aWz2h5y3Zv9JWN4Jmsk08+2Rz3PpNlvq+rZVfwq1Ggexzs/uY9UT232d7nIR7/NtywTW7YBxFv2+SGfRDxtk1u2AcRb9vkhn0Q1jIR12SZTkPGYGv0EkzcvAB3b9fTRERxaneT7t87QtGWFx3xGX49Cupkdeuev9zWnbuuscL9U2xlJUDrh8IHrGed7PNsXaM/4N9tuvB/qbGt7Ot1UQVAwfZZ3rllX39K9ykolxkj52Dzh+tUmUi193lozXnjNoXnhn0Q8bZNbtgHEW/b5IZ9EPG2TW7YB2EtE2GQ1R8DztmMBiOg6j/A6mVwG+pfG4yM01QBIiJqL7pXwYY7zWev/Mm7qgLehyW1SlbHEYFUjZPVWYaNdOu+P6CrdsUIpu60dx1vCFo2WkbQ97LDthikO3ZPwHuyiIiIEkWrXka8srAXJi09B7dtWIlrA4IsvoyYiCLBlxHHP/Plvw7vySIiIqKQomwuaBpXKj0LtgywiIiIiIiIkl3EHV8UsidBIiIiIiKisCIMssZh2m3Ws1hEREREREQUTMQ1WYtveg1LJ/E9WUREySLnbul6nc9jERERRSvimqxSeTdWi1TK92QRERERERHZRN7xxfa7MY61WERERERERCFFGGRtx90FN2HwY7ZarMeASePuNuYQERERERGRJcIgS148PAWX2tsGjpuG2/AknmWURURERERE5BXxM1mXTlka0LugBF6DkcF3ZREREREREXmFCLLk3Vi+Z7AmLUVA74KTYGQREcW9Pmkj9Vhkoi0v2vszknEfRLxtkxv2QcTbNrlhH0S8bZMb9kHE2za5YR9EvG2TG/ZBWMukNDc3e2Rkz5496N27t8psC1nPgAED9FRo8+9YhOIbp+upjlFe/iYeeaRBT7nD0Ud3x513ZhnHvZfOcR+eN/eJ5t9/fX190O8n6ztHre/6iTqXiIiIqPOEaS4otVnSi6B/rZYvJV4Pg3KjvmbNbj2V+Hbs+AxPP70D1177MjweFS+7Es8bERERESWKpKvJGj36KTVcvfo7apjo1qzZZezTcjV+772jUFAwWI27Dc+b+7Ami4iIiNwqwo4vnFi1XBQP+vc/BjNnrkVT02c6hxIBzxsRERGR+7QhyKJ4Ulw8XA2vuWYNm58lEJ43IiIiIvdhkOUSaWlHY8GCkVi1aqfqJIISA88bERERkftE0PGFU4cXktiFe7zJzz8DY8eewuZnCYbnjYiIiMhdwgRZ41Da3IzmoKnUKEHxIiUlBffff4EaZ/OzxMHzRkREROQubC7oMtL8bNq0TNX8bO3a93UuxTueN4o1CdaZmJiYmJiY2p5ag0GWC40Z01cN9+07qIaUGHjeKFJOF4DARERERLHhdJ0NTIEYZBERxblwX+R2gWWZmJiYmJiYYpNCCSzLIEv79NNPsXz5cvz+97/Hrbfeij/96U9YuXIlPvnkE12C4omcl02bNnlTXV0dGhoa8O677+LQoUO6VHDvv/8+VqxYoZI8X9gWmzdvVut57rnndA7Fmz5pI/VYZKItL2L9GfYvatG3X5Ya2tnL2MuKU07NdpwfKkW7THuXlxRv2+SGfZAUb9vkhn2QFG/b5IZ9kBRv2+SGfZAUb9sUz/tgCZxvn2exrtcpxg2mmrtnzx707t1bZbaFrGfAgAF6KrT5dyxC8Y3T9VTHGD36KTVcvfo7anj48GHceeedKrCSQCtQ165dMXbsWCxatCji/epIa9bsMvZpubE/l+OCC8zmZk55iS7wvD3++OOYNGmSGg/Us2dPZGZmYuLEiSgoKMDxxx+v5/hUVVXh0ksvVeO1tbUYOTL6m2rL9OnTsXjxYtXr5scff6xzQ0uW8xZKNP/+6+vrg34/Wd85an3XT9S5ic3pS9sSOC9Y2VDrICIioshJJ2VOAvPt00lfk3Xttdfi17/+tQqwMjIycM0112DmzJn44Q9/iD59+uDgwYN49tln8frrr+slKN6cddZZGDp0KE4//XR87Wtfw969e/Haa6/hpptuQnp6Oqqrq3VJH/lHIAG0pGD/cCLVpUsXtZ7U1FSdQ9Q6Ehg5BUdWvjUv1LSkw4dlKPlMTExMTExMbU3mddU/BV5/A6eTOsh68cUXUVZWpsZvu+02bNmyBffddx9+97vf4a9//St27tyJJ554Qt2oU3ySAOff//63CoLl/H3wwQfYtWsX/vCHP+Ckk05SNUuXX345Hn30Ub2EKScnBwcOHFDpm9/8ps5tnZKSErWeDz/8UOcQRc/6gg5kz7e+uO3jZpJpMwVeCKS2nomJiYmJiSn65H89laHvemufZ78uW5I6yLJuvKVp2axZs1rUREgNhzQ527BhA84991yd2752796Nt956C19++aXOoWhJDWRRUZEKvCSAktpIaTbY1NSkS0RGltu2bRu2bt2K/fv361yijhH4ZR34JS6TvmTm2S8IgRcIa5qJiYmJiYkpdAp1LbXGjf/ZkplnXaeFX5Alzza0NSUSCWhEuGfRjj76aPTr10+NX3bZZapp2sMPP6ym7Z566ik1T57RCfT222+redK07YsvvlB5EgBI3vr16/Hggw9i0KBB6Nu3rxqecMIJKCwsVE3fqHXkvD755JM47rjjVHNQaT5okVpKOfaSAjs32bdvH+bMmaNqwqQWU5ohyjqkaemVV16plvnb3/6mS0ONS94PfvADnUMUHesL2WKfdvriloGVb33h24eB40xMTExMTEytS07XVvvQTOryrMatoTfIkhvSWKREcuKJJ6qh1FRF2ougPPMjvdnJc1qBpGZM5v35z39WN+p2NTU1ap7Ujn3lK19ReW+88YbKk+fAfvSjH6karGOOOUY93yM1WdLZxv/93/+pstQ6J598sgqOxN///ndvgCs1U3LsJdl7I5R8aUo4f/58fPTRR2r5wYMHo1u3brjnnnvUOmQZmWeRcclrbGzUOUSRs76QLfZp+5e1mWTcPs3ExMTExMQUH8n/Gp3UzQWlVkr897//xSWXXIJXX31VTYcyevRoNZSgyU6eybE6WPjss8/wwgsvqHHLv/71LzW84IIL1NBObtB//vOfY8eOHSrYk+eIpBZLPPLII1i9erUap9aRZ7KEBL7r1q1T48FIcCXH+6ijjkJlZaWq7ZRgWP5GVq1apWoaiTqCfEH7D31f3IHJ6dc1M8k4ExMTExMTU+tTuFqswKQu28kdZE2YMAFXXHGFGl+7dq1qvnfKKaeongUfeOABvPPOO2qe3YUXXqiG8qyOvXnkmjVrVIBkPbslzdTsrADOCtLsli5dirvvvhtpaWlqWm7wpeMGaVooZD61Xv/+/fWY2WwzGGlSKLWHorS0FN/5jtldvJAONsaMGcMgi9qVfDk7D50DLPuXvHkRkKE9mRcGqa21xpmYmJiYmJj8U+B10n+65bXV6Trsn5I8yJKme/I8ze23366CKyE90z300EOYOnWqeg5LOr5488031Twh5aSrd2GvzZIXGYs//vGPKkh6+umn1YEXUoMinTBIxxqjRo1SeXZWcGUn22YFgPIeJ2o9eZ7KYjUXdCI1WFILKc/gSfNNovYmX8QW+7iwpmXg+9L2JevL/9Chwzh48JAaykXBStJxS+CQiYmJiYmJqWUKvE46XUclmddejzFuXoOdrs9WSuogS8jzTzfeeKPqee7ll19WzcWktkpeaCsHT5qMZWVlqR7mLE5NBiXIkhoTqcmSpodSy2XNlwBLAq2zzz5bvbA2UqeeeqoaOtWoUeTsL5m2nodzUldXp4byDFb37t3VOFFHky9mi4wGfmmbgZUVVPkCK+vCYL6aQIYHsX//AV8y8pmYmJiYmJgiSLbrp3VNta6z9mArsGbLnpI+yLJIc7Bvf/vbuPnmm9XzVO+99x7mzp2r8uUm/Te/+Y0u2TLIkvc0/ec//1G1XkKaIQoJ0ESo57FCkR4GhQRocrKodeTcWOxNBwNZnZ8ce+yxakjU0ax/5+YXtHOAZQZZUntlBVTmBcA/kNqvky3PdsFgYmJiYmJiCpHs10/jenrgoDluBVzWD5xmgCXvqGxZs8UgKwi50ZbA6qqrrlLTVqcWQoIsac4nXa9LAGQ1FbSCq0svvVTVhFjPZVlBltPzWKHIuoU0P5TPo9axzt0RRxyBESNGqHEnPXr0UMNQTQopMfVJG6nHIhNtedHen3HawPPVl7YVYEkTQfnC37d/vy/t86Xh37xcfYf4kv98p3Ru9gTH/GCpvctLirdtcsM+SIq3bXLDPkiKt21ywz5IirdtcsM+SIq3beqsfdi7d583+fLNa+eIkXItNcuofONaq4Iuh0DLCq7kei1SmpubY1pFIs3kBgwYoKdCm3/HIhTf2PKdUu1p9Oin1HD1al+nBqFIRwjS0580K5Tuva1g58wzz8TmzZvxyiuv4Je//KV6lkt6opOaLyFNBp977jls3LhRPVslzRGlhzp53sciTdekq/aXXnrJ8VmtO++8EzNmzMDw4cOD9oq3Zs0uY5+WG/tzOS64wOyUwSkv0QWet8cffxyTJk1Sx1v+wIORZ6zkvWNyfqZMmaK61xfbt2/31mpJF+zHH388ysrK8LOf/Ux17S81mU6BrXSOIp2Y/OlPf/J2DS+dlvziF79QTUWtgDqcZDlvoUTz77++vj7oKyKs7xy1vuvN2uREIF/EFuuL2TfuXItlD7BuX3CvKk9EREQd61eFP0G3rt2M+CBV9bkg96OS5NZR7h9VPCBBVizT1q1bjfuByMy7vVSPdZwLLqhUSZSXl3uMGxY1HswNN9wgdz6egQMH6hzTddddp/KNAMtjHExPfn6+nmO65557/OYbN+d6js+RRx6pyhhBls7xl5WVpeYbgZbOaWn16p1GmbvV0OKUl+js50089thj6tgYf8Q6pyUjgPWMHz9elevVq5dn507f8di2bZvKl2QEWSrvjTfe8Oa98MILKs9O/lYGDx6s5htBls71qHHJM4IsnRNespy3UKL59y/fK07fN5Ks7xy1vv1NCZMO79vhTYf2vu05+L/tngNfbvPs/2KbZ9/njZ69nzV4/vdpvefLT7Z6vmh+y/PZf9/0fPx+nef9XRs8u5pe9RRO8//OISIiovYn199tW//heefttZ733lnv+fDd19X1ufmDNzyffLhZXa8//3iLJ6mbC0pN0fnnn69qo5xIc0AjEFPj0q27ndWVu8w3jre3qaBFpiWKteaHairo1Dxt8eLFqldBeQnuT3/6U51LkZDqXWmqKTVLK1asUL8oSK+P4bpflw4vzjvvPDUutV7PP/+8qr2UGkgjqMPIkSNV7SVRLMn3Qygy30zWOELW3hIREVH7MpsJ+p6V9n8ey7xeJ/0zWRJgfetb31LN/6RZ4O9//3vVpbs0RcvOzladXgwZMgRFRUV6CZMEZxJEyQ39Mccco96hZHfSSSepm3KZL0IFWfKy3PHjx+Omm27CvHnzMG7cOEyfbjajkufCrC7jqSX5I7744otx0UUXqSaXEihJD47SRFNeInzkkUeqd54FBsnBSJNBaTooPTrKeuU5ra9+9avIy8tDY2OjtzMSp6aERK0lf8d2vi9qM1+G9i9y+WInIiKizuHt3fewGWzZr9tmSvL3ZN1yyy0q+JEbZqmhkOevbrjhBhXsyDM/0muXBFvy/qTArr/lRnzo0KFqPDc317HLb6u3QZln1ZA4kedJqqqqVHAnQdWqVavUMtKd/OzZs3UpciJ/yFLjtHLlSvzjH/9Q7zTbu3cvvvGNb6jAuKGhQdVKRUqCNHkx9Xe/+13V4YiQIOvHP/6x6orfeqeZBG9EsWR9KcvQN+37srbGD3vMQIuIiIg6h6/DC/8fQYV1vU7qIEsCqBdffFF1gvDXv/4Vc+bMUbVZ0tmEBFxyw15RUaECKifLli1TN/d33HGHzvEnLzSW+U5Bmt0999yjOsgoKSlRQda9996Lbdu2qe7kyZnUWsmxtZIEphJkbdiwAR9++KHqaOQPf/gD+vTpo5fwd/LJJ3uXtXdGIqTmUIJs6TRDaiJlfUuXLlUBlowL6RzDIjWRsp677rpL5xC1jXw5W0N7sv9aRkRERJ3DF1hZP35a12kz8BJJ31xQ9OvXTzUn++1vf6sCnQULFmDatGk4/fTTdQln0sRw7Nix3tqNQMcdd5yaL80Ow8nMzFQBnrybq6CgAKeccoqeQ04kyJFjayVprinNPuWFz1LzFI50524tK8+9BWOvoXz33Xexc+dO1UxUeny0yLmS9Zxzzjk6h6j1rC9nK5jSk7ZpMxEREVHnUMGVSv7vxrInBllENvJiaenm/f3339c5JunSffLkyar77JycHL+aLKLWki9hO2vaKd9K1pd6pGpefAp/vmk0/nLd1410Spj0dVVWliEiIiJn5vXYrM2yX5+tcUkMsohspJnh//3f/6mOS+Q9WlI7dtZZZ+HrX/+6apIoHV9Iz49EsWZ8H/sxv6T9Ayx7ioQESykvTcFP+q3Bj4fsNNKuMGmnKivLMNAiIiJyFhhcSZNB+zVaEoMsIhsJruTlxUKe1ZPeJ+V5OWk2+L3vfU+9bPi0005T84laS758LdaXscU+brHKqP/UuJ4RxlsrS5DVt1lPhdHjeCD3eeDk8zGyTzM2P79IzyAiIiI7uRYH1mRZ12cZCgZZnUhu4uU5H+nqneKDnAvp8OSTTz5BfX09Xn31Vbz11lv4+OOP8cgjj+DUU0/VJYnaj/8Xtn8AFpgXSpfPtuOApysOH2X83Y57Ajj/z0C3Y/Rcm54nAONXAyd9C57Unvjk0LE4/Nk7eiYREVHikl7E5d23wci8aF/N47se28b1D6HWfAZZnah3796q5sSp+3fqXNLjoPQyKJ1ZDBw4kOeIOoT15RzI/AK3f6lHFmTtPdwdHx88HvtH3IkD/603oq5uwBk/13O1nicaAdaLwLEZ8Dw/EZ/sWIv9nh4hPqMaBcbFSC5IViqo1rP8SLnzsKjRGG1chPOs8Yg0YtF5ts84b5GRk2wCj3M0x6+dRX0+o1ddYN93Xzpv0aKI/v7U8i1m6GPqmG/bn+oC2/oLjLkq0yhjH7fmm8lcZfj1B9+vgIMZ6TY47byhcdF5xnLWPvk+38ee5zTfX+DxDH1+rG3U/PYlcF+D7Uf4bSKK1Lp165B13rccAy3Jk3lSJhrBarCsJBhkEZHr9UmLrrY42vIi2mX69svSY6FZX9ZDhueoobDywukCD3p2+R9S9n2EQ70G4/Ax6cBxZnNY5YjewGVGgHVMf3hevBqff/KRCrDCy0Zpg+9iUubbNGfp0/GK5xVMNz4+7M2TuoHPwJs3+9bv+QvwjPO9ZIILdyPpO84NpUDhjzsr2AzYTr/z2T5yyqzzX4V823F4ZfoAY67t768qH+W5ATf1xt/QLW/kI/+NWxyObTay38gN8sOAQf7+coEq9dlGajgD9Y5lg/0bCL3+4PtlO5hRbEO24z5WY2FhjR6PAYfjGfr82EiAlfuG7Vg1IK8iIyDQCnNOiNpIeoSufeWfLQItK8CSefZeoyNh/j07//iZOSxHTTPIIiLX2920Vo9FJtryItpldu2o1WP+fF/YvmBKhhvXVanxaPTosg/HpH6GlH/NxIHdtTj0rvGZ/a8CTv+pEWDpGqyjT1MBFs74BY68fAXQ9Qik4DC6pRzQa+lIjVj040KcWRUQuBk39dPDBXIulz79ZuTXVOCZFjfUSS5ngnGT/wbqbcel8ZkKIG8GZuQBFQ4HLO/mUrxxS5CAteFN1GSfgQw92Zq/vZDrj0QU23DmmQ77WF2J8nwjKNKTbRXueAZn/Hu+pRz5VfaAPB3T/yK/GCz0C4zbfMyIwggMtNoSYAnrGm0lM88c37Te/OtmkEVE5FKHPKlG6oK9+w/hf5vux/7a2cCzlwPNW4FLXzACrFO9ARZOHoXPXpqJlINfoFfXZnRNOaTXEgVVC2U1CarXmcKqCZFhLspRg8IMhyZCjc+goiYfE0Ld1No+Q5JvFfozqn3zZZ7ZbMraJusWrmVZv1/Ww33GIl/zp+DL2Zt1OS0T5liEZK6zoED2TX9OFMcl0m021y/5gdup12mtxnEd/k0+o9q9aEhAkZ2HS7038Y1QMYGRkX6pigpa3rhnTMfNZxbix/bjYJGgrSbIvEiFWn8kotiGM2bcjDP9AhYJbN5A6YwJerqtIjiewQT795x+KfKy/QPjNh8zogjYA622BFiRYpBFRORS+z3d8NHBr2Gv5wg1/b/DR+Dwh/8GzlvsbSJoBVifPF+A1CNPwNHd9uKzQ0erAC04fcPtd1Nt3HhnmLVQ8kveX1Bh3JgHykGZvXmRUztD+y/4Lfh/hqehFG/k2m72ZbtuAf4i81QzshT82NgSVdaYrvG7GbWVNdvi6fVE8BlvTnBYpyxXgTyrWVQVcIt3IadlIjgWNo2LbgkIJmrwxhmyb2XGmqI4Li32Nfg2m+uXeaG2M8g6qhei8MwqvXwETUqjYuyP9fdXaRzXV6bDF2MZN/bQx0lu5o0pp8qXnLIqIzixjoOdnBezSVvo4NC2Dd5/Az7B1x+JSLdB5GBCfjkqrTL2/Y+FCI9nUEH/PdfgzQY9qrXtmBHFn6QMstas2Y3Ro59yRfrJT1arffrss85o2tOxeN6IoiO1UT1T/qeSNAH0dD8Oh3JfAI4d2CLA6vGN0Tjq/IXY9/Xv4qARnEmAFpzvGQzzJt/QWI83sksxQ99Mq+Zt5mh0at5EwL2Xj3yGsVbvL+Pp03Fzvv1mzdiuv+gbbtWMLFv9Aq+0aFZmK2tfTySfYe2kfZ1qOduNd265sSvWQkGWCcu3vozCM1FlDybs+xbNcWmxr8G32bv+UIKtI+MMZJfn+tea2TnWfkXK2B/5+zMCxuzySr9lzaZtl+rjlA6pfClc6LR2I5CpOjPIvHRMf8Vc/xtGoO4c5OhtsP8b8BNq/ZGIZBtMOTOMMrqpXfVCI9i+2f530jaRH88ggv57zsYZLaKvth4zotDsTQTtTQfbS9IFWcOGnaCGu3d/oYaJLi3tKPTokYrFi+vUl71b8bwRRU+eqzqm62cqSRPArwy9BjjwPxx6/rs4cNwIHOhyND55Lh+p3b+C7sen4/NX5mDfdvMGJ7rObGNENSOy/SrfYRpR/4YebZN8X2cFktpcfRPuRr41Avc1FtvssA4jmHvFGP8LfqwCqRZBgp7fpn0z1vGX0jdstW9mhw81hWYNkKQM6QAiIBDzypmB0lAdLqj1ZxuLt/IPMtz6IxHJNlg1TNXSQYXvhw6fDJyRrUctKjg+EwNCRmNRHs9Awf49q2aEQT47FseMyEHgM1iBz2i1i+bmZk8s09atW43vzMjMu71Uj3WcL7444Onf/0FPevpDatwN7r33DeMu/W41FKtX71TTMnQLnjf3iebfv3yvOH3fSLK+c9T69jclRDq8b4dKh/a+7Tn4v+2eA19u8+z/Yptn72cNni8/2er5/OMtnk8/etPT/MEbno/fr/N8+O7rnvfeWe955+21nm1b/+HZvHGVp3BavtrvUJb+oq/cv3o85V09njU/8Rx4/vue/93Tw/Pxn4717LnrRJXev+trKu+Du77qzfvkT0ebyzqq8uQj22Pc/AeQfHjyjbtt0VCabfw9W+XsywRbXqvKN5bzrUdpKPWUqmn/z5D8bOQbuSJwvaGmzfVkWzNbrKc1nxGwTq9wy9jn2UUzT6ZDbXPofY1um4V9Otg6fORvIdT80KLYFvnbyS71+H9Sg8eIUfSxCVzWoI4HfH+rVcbfmne+uay57bJssL8DSwTr9wq2DkNrtkH/u/EdZ//5VfnGNtiOjZr2/sEE2Zawx1MELmvfRoPaLtu0mh98O5Wgx4yoddatW+fp1qOnGgYKNS8Yuf7W/qPS8+/XqtX1uGHLS54djTXqGr276TXPnp0b1HU76WqyjjyyKx54YDS2b/8Us2ZF34NYPMrPPwNjx56CmTPXoqnpM53rLjxvRK2h66Pk3Vhdv4KuJw7DgVO+g67Dfo0e/cejW69TcWzWjTh4xnR0OXEEjr5wEY466QwcnSp/j6HqsuzPo1gdKUhTH/M5KMn7MfJg3Ew5kGdI9PJOP1fnGFGhbiJlrT/lx8Cl6td54zPs89SzQK2t4cnGmW+atSwp6nkmaz2t/QxzOWPHfNsd9uf4MMciYuG2OfS+ht/mUNsZZB22dyNJU8eb262/9xzMUI+ZLcKiynJke5u2WaSJW4iaIF1T5JUzAG96/7Yz1HNlft2rezn9G3AQuP5IRLwNNlIDlJ0f9DjnlDWgFIXI0Nub+0YpGvxqLVvuT3Vrjmcg+fdcBeTq9UonKqgK6LI+UGuOGVEII0aMCNrJhVWjJWViLUV+CdbjMbFnzx4MGBDwnoQg5t+xCMU3TtdTHWv69H/irrvewOrVl2PUqD46N3HJTfqQIRU499wTcdNNw3DhhcvVvl1wQV9dwh143twjmn//9fX16uXdTqzvHLW+6yfq3Pjm8ZhfuzL0JfPlhr7k8b7s8NChQzh48BAOHDyA/fsPYO/efbhvSQVKFpWp9QTzwKwL8H+nvgQMuQGeA5/B0/9qfLbxL+iRfjkOfvQmerz3PA6e/nN89mIhUo9JwzHnTofnP8/i8/rlePI/QzD1jjV6TW5TjYKUW3BGQ/u+6yk+JNO+EhG1v6LpBbhqUi569uyB7t27qdStWzekpnZBapdUYyipS/L2Lnj77SNx6qlHY+rUNfjyy4M6N3GlpR2NBQtGYtWqnSgvf1Pnug/PG1HkTh9XhNpdveB58x7sPSId+z7Zhf3vrMbBnWtwRHfg0+b/qvdnHTHkp+qdWp4v3sXnH/4Hr+06GoMuKtJrISIiomglbZDl5uZnjz4apNmCC/C8EUUu+8LvwHP+UjzQ8E0s+3MZ/vLHYvz99S742+NP4IEl9+GxV7/Aw48/jYcffgiP17yPP99/Nx5/vSuOHrNYLUtEREStk7TNBS1W87PFi7+FwYOP07mJq6npc0yZ8qIaf/HFyzF6tDubnfG8JT42F2z/5oJEREQUW5E2F0z6IEuanA0Z8jds2/apznGHCy7og/vvH43+/Y/ROe7C85b4OjLI6pM2ErubIq/5jLa8iGYZCZz69svCzrdrIg6yBp91MdatfYpBFhERUScKF2Sdfe54bH79OQZZQjofePttd92s9+t3tJHcfaPO85bYOjLIijcSOFnDSIMs1mQRERF1PtZkEVFcY5DFIIuIiCjRsHdBIiIiIiKiTsAgi4iIiIiIKIYYZBEREREREcUQgywiIiIiIqIYYscXRNQp2PFF2zu+mDtvgVoPERERdYy5c2ay4wsiIiIiIqKOxiCLiIiIiIgohhhkERERERERxRCDLCIiIiIiohhikEVErtcnbaQei0y05UW0y/Ttl6XHIjN0RK4eIyIiong1ZHiOGjLIovjQWIrs7FI06smYaa/1Buqoz6FW2d20Vo9FJtryItpldu2o1WOR2biuSo8RERFRZ3ln7ZF44y094WDT+mo1TMwgS25oU1KQ4k0FMHenE/EmOzbCHUf7/Fge8444f+217URERETUYd5/pDdWVvTUU84StyYrqwQN1vtlqoBc3rC6Q3ohamoKka4nWwg3v7Xaa73BdPTnEREREVGbfX3k/3DqScbI6z2xx8xy5I7mgjkTkF+7BQ3GaGNptq2GKxulEnnpWoPSAl+tV/ByBSjINvMLqhtR6h035gspE7icEd6VTi5CbW0RMoz8bMl0KuewHXZ+2yRBoy5vfoSsz1pGtkuPO25PkHy1Pt/+SfLuV2ewb2OGcfysPL999m2r/zFpecwdz2kQQY+1Gob4G7BvnwicNjhvR8D23jzbt5ysw1vedl6N+ebfipk69VwRERERkcGDU3++B0PO0pNBuCLIaiydj/KsQcgwxtMLa8zaLVXDlYmihfrO1Li53TJB8ssgj6MFL1eHQcskLx/luZMBa3y+3BBXoyBjC4qt5RryUDFZ8tNRuKwEWbp2raawIUg5Wb//dngZN9WTizJRpZepyjSCxvSByLSCxxUVyMwHKtVmNmALZH+DbU+wfIO1f5Kv9rFlsNcxZBuLkFllbaNx/PQcU7j5gcc8Pfg5DeR0rPUsJeTfQHjO2xGwvVNOMAsH7GdDSR1yrWjK+7cS3ecTERERUfvqndeM3nrcSUpzc7NHj8fEnj17MGDAAD0V2vw7FqH4xul6KgryK79V8yHkxtVqeuU0bxkwWe6V7c2zwpWT+YHjMt++jJJv3KwbAVNgeadyDYMwP3A7vIyb7ZRclFvrs3ILsrF1Rg0GLiwAZhjLLxyImhlbkW0Ng31ORJ8vnzkfgxpqYMQoHct+vOzT1jkIPGeB863jHFgm1DnV2Y7HOtz6neaHWi5wO6JZnwTIgefKvqxMu0A0//7r6+vRu7fzV5n1naPWd/1EnRvfJHC2hr4EHD582JY8aijzDh06hIMHD+HAwQPYv/8A9u7dh/uWVGDuvAVqPYlqwYLE3n4icreZM2fqMSKfuXNm4qpJuejZswe6d++mUrdu3ZCa2gWpXVKNoaQuCRxkOd1wqhvUCuRZQUPIG9kw5eyfEWw9dk7lA8sFy/fjHwBklGZj4cBi42BtxYya8ViRvRAyWYkylGVE+Tkt8uM4yCregoz5g/yDZ/t8ybevQ8YjOfd+bMfaCmqi/RsIzJeh03ZEsz4GWS0wyHJvkHXrrbfqKSKi+DF79mwGWeQobJD18u1I/dETLuzCPSsP4/VdqDSx86/NsYm0nJ1qvleEYK3QoJv2hS3nxLiJLlAP7+SgzNOAkqw6bDUm08fnGXej81GXN964uU6HTFZWAoNU28ggnxPp51dXotx2HDqU2sYKrNDt31qcA/WcnW9+UNYxF5GeU6dj3WTOiojtMx0/J9R22LdXBJwrVT5/gn9TUiIiIiKKf7POAYwAS7gryEovRHGm2bGAdBQweUtmwHM8WqTlWjBuyhtKUJfr64xAdZogs2Sd+eXINfKySzOClwvGuNlGUYYun4GKvGVmTYjkG3fpefquXSbL6wbpm/hg2xNiO40bemu/U3KBqk6rGTG2UZ5XyjC3peU58J/v7RjDzn7MV4yP/Jw6Hes0PS8c4zOXyXNTwT4n1N+WfXuXfqAz/c9VhjwrVsYQi4iIKF6NGTMm6kTJoAZ42BgMvx549/UEbS5IrZPITc6qC5BSOQEeBiCuweaCbC7I5oJEFK9CNReUoGndunV6KrwRI0bghRde0FOU6II3F1yL1NldkLpglGo66L7mguQa1bbuy1WtGwMsIiIicqPtd2PcuLuxXU9GpS3Ltqd43a52kw3cfp4ed1tzQQotPbFegJtTZv+VP6DLe6Io9EkbqcciE215Ee0yfftF1kjZMnRErh4jIqJ498477yAnJwfPPfeczolQZwUmiR4Q2be/k/dlyHDzjpVBFhG53u6mtXosMtGWF9Eus2tH0K5ZHG1cV6XHWmdcr14Yd7ftkhM3F1TfC78Dk3ppt19esJeMV6Mg3HOvREQdRAKs/Px89O/fH6NGjdK5ETrtWqxceS1O05MdprM+tz108r5sWm/2ZsYgi4goGZwzBYOfLIA9zooP6Sis0TXWDb4Xdsu0emm3bVq9WD3D/wXqjaXZRvAlr2IgIup89gBr4cKFOOKII/QcB/JjV69e6CVp2E14zcrTP4Btv3ucOU+S5Kl5hSgcp/OMVLhSFvLxW6bXOP2dvx13G8v4yq5EoXeeZn2uHt5dGPwzRIttU7myXttyr6hMPOu0Lvu+W9sSsH+FK83tti8XdP8KjOP32k0YZuSPmz/fewxbbJPDvrQXBllERElhAKbNHIybFre8wjhetCK42DleJL35ARfwWJBXHuhRS3phjRmc6Wkioo4gzQClOaAEVZaoAiy5+TcCq8GPNaO52UgbbsM5eo5ifI8W3DQYj8k8Iz02uB7bJP+1zRhQppd5bAqWTio01uRz2rUrzXlqvvWdfxqunWmUfUaXXPkMlk6ZiWuDVfUYwUr9pbbPWGAFLJrjtsk1YhKMTO/nl8rjSY7rkn2vx0xdrnnDRDxZoD/D2j+1bwWANa63Iej+lRnH75zbsMHIX/mDr8qaDA7bNE7P6gAMsoiIksW4UjyGSS1+yXO+aBlCXuxCXCTbi3q33yDIawKJiDqTNAOUYEqCKgmuoguwDNsbsNkICqYFu+k/LQODsRSTeplB1LjSUqii50zEJVZwNO5STMFmNPjiPP0jl/7xa9JSYHOD+b0sZZc+o9a18pmlmHJpiGjDvl39B/gHf8Jp27Y/iyfhsD9O65J9V8vr7ZRavNd0EGntn5S1j8s8EWz/nATbpg7CIIuIKImMm3YbNjv8Kul40Qp1sQt1kZT28M0rg/9KGg37u/3mD0JDIr6CgohcR4IoCaasQCuqACsi41CqfsS6FM+o71n/GitH8l0+7ElM3GD9+GWvHRuHS6csxTMrV+KZpVMQKsYKrxXbFkjXOnl/4GvWQWQoIfcv/jDIIiJKJkYAVDbxSSx+Vk+35aLVmotktKxnsqRJYO0WNOhsIqLOZg+0og6wpDbotSfxrP7Fa/uzT5rPZFmM7+ZC1eZaApoNuO2cgBorIc3+5Aewr+tpYf0gZghcp/qRbdIkbL5tWtu+q522DZdgIm6CQ4v0ltS+R1g2UIj9g/VDn+W0KLapHTDIIiJKMqddOxO4ST9kLUJdtIIJdZGUwC3Wz2TJKyiqgNwU/44viIg6kwRVd911l0rR1WAZAYo0zx5mtgYoqB/s/wOX8R1rzDRbCvQahicnluFaCaZ05w5mywPgMXsveqddi5mDffNbrtMIOs45BxOtL/zWctq208znojZP0ttmJKvji5aMfd/gX9bXeUYIofZP5k0xW1eMe+gjK7PlNnVgwMUgi4go6cjFfYo5Gu6iHFQrL5JtkVOGhpI6I9DydeWuehfMKEKtblZYwAiMiBLFuFJvS4CVpaVmt+PGd7LZ/bjUEvlaCqy02l/7tSDQrQe8y8gqbctY65QyYuVi3ATfj2p+rHXY1qUETitBtk3K2vJLfxRiXQFlmwM/O8h4qP2z5q0sLg76OR3Z8UWK8YEePR4Te/bswYABA/RUaPPvWITiG6frKSJKJtH8+6+vr0fv3r31lD/rO0et7/qJOje+SXfk1tCXgMOHD9uSRw1l3qFDh3Dw4CEcOHgA+/cfwN69+3DfkgrMnbdArSdRLViwALfeequeIiKKH7Nnz8bMmTP1lL8xY8bosci98MILeqwNpJWA9EFkCyyisbKwF565tGMDDTeaO2cmrpqUi549e6B7924qdevWDampXZDaJdUYSurCmiwiIiIiokhJwBRtigl77U4rSE0PA6yOwyCLiIiIiIgohhhkERERERERxRCfySKiTtGRz2T1SRuJ3U1r9VR40ZYX0Swjz1n17ZeFnW/XRPxM1uCzLsa6tU+57pksIqJ4FeyZLEpuoZ/JWotX0goxGt9lkEVEnaMjg6x4I4GTNYw0yHJjxxdERESJJlyQlWoEWalGkMXmgkRERERERG12HrBzA/BuMYMsIiIiIiKiWGKQRUREREREFENJ90zWm+XlaHjkET3lDt2PPhpZd96JXhEe90RknDa47LTBOG0wTpvx70VnJBk+k8VnsoiIiBINX0YchARYu9es0VOJ77MdO7Dj6afx8rXXqpsxt5IAy0WnDcZpg3HaYJw2dXNNRERERO6RdDVZT40erYbfWb1aDRPdLiPyWK73adS992JwQYEadxu9i3DJaVMBo7VPxmmDS09bSKzJ6tiaLDlOySDY3wkREVEsRFqTxSArwVlB1jH9+2PvBx8gb9MmHJ2Wpue6h1uDLOO0wThtME4bXHjaQmKQ1fFBVqTfzYkq1N8JERFRLLC5YJIZXlyshmuuuUbdlFFi0KcNxmlTN9lE1DYSTDL5JyIi6ngMslxCaq9GLliAnatWqc49KDFI7ZVx2mCcNtW5BxG1jdRkMfkSERHF2Mc98OJvjkW4n7AYZLnIGfn5OGXsWKydOROfNTXpXIp3xmmDcdpgnDbwtBERERElPgZZLpKSkoIL7r9fjbPZYOIwThv0aWOzwXbSJ22kHotMtOVFtMv07ZelxyIzdESuHiMiIqJ4NWR4jhoyyHIZaTaYOW2aajb4/tq1OpfinTQbNE6bajbI0xZ7u5uiO6jRlhfRLrNrR60ei8zGdVV6jIiIiOLVpvXVasggy4X6jhmjhgf37VNDSgz6tIGnjeJCYymyU1JUDbmk7NJGPYOIiIjCYZBFREQBqlGQUYG8Bqt7+SpkbmnQ81xg+90Y16sXenlTIVbqWR1GtmHc3dgeOE5ERK7AIIuIiBxkYmC6HkUOyspyzNqt7FKoOi1V01VghGNqAqXZetyvBiwb3gowp3y1vgIUZFv5KSgwV9j+zrkNG5qb0SzpMWBSZwY5p12LlSuvxWl6koiIEh+DLCIiCpCDCfnlyJXAxx71pA9EZu0WSJ1W44oKZOYDlWp2A7ZgEDJUDdgWFKvaLyM15KFisgRlwfINtXUYtEznV+WjPNcK3DrQuEsx5bV6bNM1SncX2mq3/Gq9bHnjClE4zsrvhUKrKsyv/DjcLZFbi/Vux90FN+G1127CMKPcuPnz/Wu1ApdX2eN0npFY60VEFPcYZBERUQs5ZTrwmVBp1jKpYEuCrzpsNaKjhi2ZmDBjEOokymrcirrMgUiXIXRwJimjCLUSlAXLlw/KysN4q8YsZwLyjZKy/o60/e4FWHrOAPSXCSPwqb9UarhKMc4IhwqH3YTBj5k1Xhtu24xJVjT12mYMKLNqwqZg6SQJnqR8PWZaNWQbJuLJAh0Q+a33NFxbdhvO0bVpK3/wVbVKBFveCLwKbhqMx3T+Y4ONgFAvQURE8YlBFhERBZdTpp7Jyi+vVDVMGYOALQ3VqKwbhIz08cirM/IbtiBzgtllLbJK0GDVWKlUZoRmIfI7i65FkpqhYU9OxAaruZ4R+Ewbp0oY0VcDNtumT7tkIs5Z+owRChnOmYhLrPZ9UhOGzWh4ySiPpZhk1TgZAdprUkMmZezrDUY+z2n50zIwWOWbNWnjSiVQIyKieJa0Qdbll1+OnJycoOnTTz/VJYGPP/4YN998M84880wceeSROPbYYzFy5EgsXrwY+/fv16VMa9asUcs/9dRTOsff008/rea/8MILavrLL7/0+9zx48fjBz/4AX79619j48aNqgz5/PGPf8R5552n0ltvvaVzfe655x41rynKt/pu2bIF/fv3x1VXXaVziJKYPCtlbyYoNVFZ0hwQSB+fB8yfj7q88Ug3/pPJykpgkJopzQmLsDCwvV+w/EDVlSi312y1J/szWbF8Hsq+XpWiDIgclx+HUjV+KZ5RAZhutkhERHEraYOslStX4sUXX0R9fb1jOnTokConN/JDhgzBrbfeip49e2LKlCnqRvzDDz/E9OnTkZ2drcYtu3fvxrPPPhv0Jl/yZf6uXbvU9MGDB9X0K6+8gvfeew//+c9/VAC2YMECDB8+HGVlZaocmXbs2IGamhqVfvvb3+pcHzl+Mu9///ufzomMnO/PP/9cBb1ESU/VUOV6O6NIkZ4GlxUaIZXMGwjUAnk6EpLJ8rpBOjDKQVlDCepy9XKSVEcZwfINRvCVYeXlAlU1+nPigdQgvXYTFuuIZvuzT+K1KZe2DJpWPoOlUrN1vn/5sKxaLkvA53ltvxuF6uEsCbY24LZzNqOBD2UREXWO4/bhwt9+gt56Mpikbi54+umnY9u2bY7puOOOw759+/Dd735XBU7l5eVYt24d7r77bjW+detW3HDDDVi/fj1+8pOf6DW2XlZWFv79739j06ZNKtiSAPArX/kKpk2bhj179uhSZDnnnHNQUVGBzZs365y2kVpKOc5S00hE6SissTftq0GhN/IxAib7tDQntAdG6YWosTcLtOYFy/drRtjJTQhbMIKaDbdh8ySz+d4weS6qVIdYtuaGvSYBj6naMP/yKgXrpOK0azFzitk0cNxDH+nMIMsbwRduGqbzhuHJiWW4ll0REhHFNT6TFcJDDz2EN998E9dccw1++tOf6lxTamqqqm361re+hRUrVuBf//qXnhMbo0ePxve+9z3VHDHW63aDuXPnql++ZRgJCYqLi4vxox/9CL/85S9RXe3fbkkC6gceeAAvvfSSzjFJsCvBtJx/qTl77rnnvLWcFgmMZ82ahR/+8Idq3atWrdJziCguBesy3Slf8vya7ml+zfps+X7ljSTrC/J540rNMiuN7ybvfKflJfiy5a1khEVEFPcYZIXw2GOPqeG1116rhoHkJv/nP/+5Gn/88cfVMJa6du2qhkcccYQako/UQl599dX4+9//HvbZNQmepKZKguINGzao4Dk3N1c1+7QCpi+++AJTp05VtZQWOe9jxozB/fffj3/+859YuHAhLrnkEsyePVuXAO644w6cffbZWLp0qWoKKtszbtw49UwdxY8+aSP1WGSiLS+iXaZvvyw9FpmhI3L1mItI7VY8NQ8kIiJqoyHDzTYZSR1kyS+Cjz76aIsktRVCbsiPOuoo9UxWMPJMlpCysSTPaq1evVp1tCE38dTSb37zGxWIyjCYuro6/OxnP1PnUIIgaV4ozQIlgJLmhqWlpbqkv1dffVV1ojFp0iS8//77qmOM//73v3jwwQfRu7fZCreqqkrVYEktl6z7H//4B95++23VxFQCOlkHxYfdTWv1WGSiLS+iXWbXjlo9FpmN66r0GHW6IDVTREREm9abraWSOsiSThK+//3vt0g33nijej7go48+UjfUUmMVzMknn6yGH3zwgRq21t69e7Fz505s375dNVmTWhq5sZfmcF/72td0KbKT3gAnT56M5cuXq2fjnEigdODAAdx111046aSTVF63bt1QUlKizq30VujE6rnwggsuQPfu3dW4DKXnx6KiIjUtgdTXv/51tQ6rTI8ePXDLLbeo8SeffFINiYiIiCi5pDQ3N3v0eExILcGAAQP0VGjz71iE4hun66mO8dTo0Wr4vbVr0adPHyxZskRN20ntlfTsJzfj/fr1Q2Nj8DdjyrM80uugNEeTWpOHH35Y3YgvWrRIdVoRSG725bmdv/zlLypAkK7ipUv4QLJtv/vd79RzPqHsWrMGy419unz1avQ1AoJgeYlOnzYMG3Y9/vCHP6jOSU477TRVgyR/b9JET56Nk5olacInAao0KRw2bJjqLfKzzz5rESxLd/nPPPOM6thEgqOvfvWrKriV5oSvv/66qkGU8yA1ZRdddJH6W7BI4CZ/JwMHDlTP7NlJLeT111+vAnb5e3BinCK1T8YpMgK54HluFs2/fzmHVg1iIOs7R63v+ok6N77JjzjW0JeAw4cP25JHDWWeNGs9ePAQDhw8gP37D2Dv3n24b0kF5s5boNYTiWi+mxOV/J0QERFFKti9RShz58zEVZNyjfv/HujevZtKEjOkpnZBapdU1W+DjCd1kCXbGep5Hjnw0qW3BELBarPkJl9uvqWjCukk4ZFHHlE36tIMTbp4DyS1HhJ8LVu2THXCYAVZEqTJjbl0PT5jxgxVMyIdXmRkyMtngkv2IEv84he/UL0+rjXOaWVlpV+Q9Y1vfEOdOzlPgaSZnzxvJR1X9O3b1y/IEtLRhXTdLwGVkDLShf+cOXNUU1P5+5AeIGU5J/L8VrAu+BlkMciyhgyyiIiIOl6oe4tQIg2y2PFFCFKbJe9OkhqqYOSdTEJqTIQ8QyXsLzO2k5tzITfndlJjIjfw0pGG3PhLue985ztB10M+0hGFdA7i9GyW1DLKs1ROrGMbrGMRWZ+8l+u+++5T50aadErQ9atf/UoFweLiiy9WAZxT4jvOiIiIiJITg6wQrrzySjVcvHixGgaSX5il+Z+QDhLEqaeeqoYNDQ1qGOiNN95QQ6sWxol03S61WlIbIzUr8ms2BScBakFBgeqwRF7qbDdo0CAVKEuTwEByjiQIS0tL0zktybqlOeCf//xn9YuH1DpKhxfyvhqZ99prr/H8EBEREZEfBlkhSIAjTc6kC3ArmLLIczfSAYLUZMmzPd/85jdVvjT7k+aD0qW7vFzYTpomPvXUU6oJW2Zmps51Jk3exo4dq54ZsncZTs7kWSypHZQe/uys4FeaGNpJz43y3NXll1+uqngDPf/886oZoZ0EWPLsllVbKX8f77zzDm677TY1bSfv5ZJgjIiIiIiSD4OsEKSW44knnlDP4khnFUOHDlVdf8uzPPJsg3RuMWLECPWOJEuXLl1Uj3byDIV07y61UvKMVV5eHkaOHKlqPeT5IWmvGYrMl+7kJWCTDjCCdaBAphNPPBHXXXednvKRQEiel/v973+vaiblmTh5ubAEV8cff7wKZp3IS6ilCai8T0uaCEpPgrIe6c7d+hx5Nku6hpeXHI8aNUpNS0Asz2JJsL1u3TpVjoiIiIiSS9IGWdIb3XnnnaengpPmZlKjcdNNN6nASXoFlPcrnXDCCap2RF5SG9jxgdxkS7O1nJwcVWMinWDIUJ7fkfKXXnqpLmm+cFjKS7AWSNYrQZ4sJzVjwZ4tSiannHKKOlZSoxRIglkJZGW+BMhCgt6nn34ahYWF6hxIpyMSaEnAJLWQVvNOOQ+ynDV9xRVXqLLSZFOCKOnWX46/NBuU926Jo48+Wp1PCaykUwGp0ZKAWN6VJUG59DJJRERERMknaXsX/I504eYCyda7YFtPm3R2Ic0Kw9Uk2klwLcItY/USJ4FdOOxdkL0LWkNfYu+CREREHYW9CxLF0DHHHBNVgCXMfyzhl5Gu4iMJsIiIiIjIpXY8BJx8FoMsIiIiIiKiWGKQRUSu1ydtpB6LTLTlRbTL9O2XpcciM3RErh4jIiKieDXkuw8C777OIIuI3G9301o9Fploy4tol9m1o1aPRWbjOr4SgIiIKN5tWl+thgyyiIiIiIiIYohBFhERERERUZvUAGnnAKcMY8cXREREREREscYgi4iIiIiIqE2ygabXgJ0b2PEFERERERFRrDHIIiIiIiIiiqGU5uZmjx6PiT179mDAgAF6KrT5dyxC8Y3T9VTHeGr0aOxeswZ9LrhA5yS2z3bsUCln+XL0u+wylbfL2L/lxn5evno1+rpkP43dgbFbcMnuwDhlKhmnDfq0qf2T/TROm2v2M5Ro/v3X19ejd+/eesqf9Z2j1nf9RJ0b3zwe82tXhr4EHD582JY8aijzDh06hIMHD+HAwQPYv/8A9u7dh/uWVGDuvAVqPZGI5ruZiIjI7ULdW4Qyd85MXDUpFz179kD37t1U6tatG1JTuyC1y1qkphUiFd9NvpqsE4YNU8Mvdu9Ww0R3VFoaUnv0QN3ixepmzK30aYNLThuM0wbjtME4bermmoiIiIgS2U7gikI9noQ1WQe//BJ/GzIEKSkpyNu4EV2PPFLPSVyby8rw8s9+hlH33ovBBQWurMkyThuM02acN8A4bXDBaYNx2mCcNhinDcZpY01WCKzJYk0WERFRLMW+JmstUk/9FVKHX4/UFT9KvposCapGP/AAPt2+HWtnzdK5ie2M/HycMnYs1s6cic+amnSuu0hQZZw2GKcNLjltME4bjNMG47TBpaeNiIiIKCklZccXfUaNwpnXXYc37roLu19+WecmLqmVu+D++9X4mmuucW37M+O0wThtME4bXHDaVK2cPm1w8WmLC33SRuqxyERbXkS7TN9+WXosMkNH5OoxIiIiij/fAIYbg/W/B15M4t4FR95+O44+9VSsmTpVNSFMdEenpWHkggXYuWoV3iwv17nuY5w2GKcNxmlTTQgTnTybZZw2GKcNLj5tnW5301o9Fploy4tol9m1o1aPRWbjuio9RkRERPHnFGCafmzhB2clb5Dl5maDjY8+qnPcx83NBl182oiIiIjc74KbgJ2L1WjSdXwR6J/Tp6tmg99avBjHDR6scxPX501NeHHKFDV++Ysvoq/0pOBCxmlTzQaldz4XnDb1TJY+bTBOm+oAw+3Y8QU7viAiIuos7dOFe6oxlNSFQZbV2+Cn27bpHHeQ94CNvv9+HNO/v85xF6u3QZedNtWroDyn5dLT5odBFoMsIiKizsIgqwNIj3yfvv22nnKHo/v1wzFGcjOp/XHZaYOcMpefNi8GWQyy2sMTTzyhx4iIfK644go9RmSKfZC1FqmzjUBrwSgGWUTUeRhkMchqDxJkjRgxQk8REQHr1q1jkEUttEuQlczvySIiIiIiIoqtbOBqYyBduJ+cxL0LEhEREVFyk5rvaBNRULe/BvzVrDVlkEVERERESUuaE0aaiMIafTPw7usMsoiIiIiIYqaxFNnZpWjUk1Fpy7LtKV63K44xyCIiIvfasQQTJy7BDj1JRBStd955Bzk5OXjuued0ToQ6KzBJ9IDIvv1xvC97Knphjx53wiCLiFyvT9pIPRaZaMuLaJfp2y9Lj0Vm6IhcPdb+UlJSWqTs0gT//ZLBFhG1ggRY+fn56N+/P0aNGqVzI5ReiJqaQqTryQ7TWZ/bHuJyX1Lw9j29sel1PRlgyPAcNWSQRUSut7tprR6LTLTlRbTL7NpRq8cis3FdlR5rfzKVTQ8AAGX2SURBVKpL+YYSZGWVoEF3MV9TmOCX635T8eSTU5Ekr6EjcrVNmzbpsZZCzYuWPcBauHAhjjjiCD3HgdS4WD9MZRRBfcPbamEaS7N9P1xJnppXgIJsnWekgmpZyMdvmZRsmL91NaLUWMZXthoF3nma9bl6WFoQ/DNEi21TubJe23IvqUyscFqXfd+tbQnYv4Jqc7vtywXdv8nG8astQoaRn33zbO8xbLFNDvvSEd5ZewTefs8YOWsvnDqA37Te3DAGWUREFIbTRf1UnDosyA2C0wXXmx9wM9BRrJosPVwyKw1paWaatVqXIaK49/nnn+Ovf/0rnn/+eZ3jI3kyT8pEQ5oBSnNACaosUQVY8p1oBFaZVfq9h/IjlZ6jGN99k4syUaV/tKrK3IIGya+tw6BlepmqfJTnFhhr8kkvrDHnqfmZKFooc9NRWGyUrdQlqytRnl+MoL+DGcHKlgm2z5hvBSya47bJd34ujEzv55edb5R1XJfs+xYU63KehjxUTNafYe2f2rfJgDWutyHo/i3z/chXM+UEWZPBYZvMCqNOceL392Bc3l495YxBFhERheFwUb/qIpz8b6cbhBAX3HixYR4aL2pCU5ORll6NhxezGSFRojjqqKPwm9/8BitXrvQLtGRc8mSelImGNAOUYEqCKgmuoguwDI1bUWcEBTOC3fSnD0QmypGbYgZROWVlUEWz8jDeCo5yJiAfddjapKeF/Qer3HKgbqv5XSplyyvVuqory5E/IUS0Yd+ujEH+wZ9w2rbGFaiAw/44rUv2XS2vt1Nq8Wp1EGntn5S1j8s8EWz/nATbpk7w9ZFf4szT9UQIDLKIiCi8wIv6uEHONwgvhLjgStt6T03wX1w7yrA5KBitx09NxzA9SkSJITDQakuAJSSIkmDKCrSiCrAikoMy9cPTBFSq70b/GitHEoBkVCCvwfrByl47loMJ+eWorK5GZXk+QsVY4bVi2wLZmpabSQeRoYTcP3dgkBXP5A/Q2w6V4hbPEyWFgIu6NB0JpjUXXCKiKNgDrbYEWBZ7oBV1gCW1QbUVWKFvBBpXVJjPZFmM+4QC1U5aApoGlGQF1FgJaSEgP1yl6Wlh+yErcJ05M0pQl5uLupIZbft+ddo2jEceiqBa74Wj9j3CsoFC7B+sH+cs6VFsU5xIzCBLbmqtX0m9qRWRd6BY3yx3xM23/TM64vNiSZ9Hv17Lwu1De+xjRxw3+2d0xOcRtYOQF3XrBmFMiAuu/O131jNZROQ6VqDV1gDLIkHVXXfdpVJ0NVhGgCLPFGWY96STt2T618oYgYgxU9+vZqAibxkKJZjSnTuofHncyN6LXnohijN981uu0wg6srKQ521O0EpO25ZuPhdVl6u3zUhWxxctGfve4F/W13lGCKH2T+blmy0ispd+YGW23KY4D7gStyarPX4pjXU3kbFeXzgd/XmxkJWPzIrJkd90tcc+8jwRRSbwou54g9DKCy4RUStIcBWLAKvNcsq896Q1ZWXmdd57vZdaIt89q7e3Vr97WX0fa7tHyCmzLWOtU8qI6oUogq3Jtp21jsD7Dcf7jyDbJmVt+WVTQ6wroKwn8LODjIfaP2tezS23Bv2czuz4IhLuay6ofim1Lu66diuw5sCa1kOza0ujrL2c33rs3VHayks5G+fuOa1hiG4s7Z8rAqcNUXdzKevwlvc/DuG68uxYgzCj2OpRJkCIfTBPh0OXo37LOP9izvNEFAH7RdESeFF3ukEQARdCdcH15nfwM1lW1+2BQz3bO19PElHyGTFiRMQpXqhnY4sDvqMpriRukGX/BdV7g+rfhWZDSR1yw92dGusxu6O014SF6o7SqbzBuDF27J7TEqYby3Ci6+YyxHHwbn90n9+ucspQhdyAQCLMuXQ83hH0asbzRNRqvKgTkdusW7cu6hQTTj9kRUFqeuK9JifZuau5YEAXmunj85Cle8MKylbeK2R3lEG6j3TqAtOcY7Ie7gvWjWU49hqPsN1chjgO9u2P5vPbmXrWwx5IhDuXTsc71Hmz8DwRtZrfRb2NNwhERERu5r7mgrFi3OS2COL0LGdWm9Y2dIEZjNy4u7ybS7lhW5ZXgYUr9HRYQY532PPG80RERERE7SulubnZo8djYs+ePRgwYICeCm3+HYtQfON0PRUFuZmVllwtfkWtRoF6+tr8tVWej8nYUgzPjK3Gza80IzNvuFV+RR4algGT7evxrncgFtrW4xX0cw3GvIIV41GmHjaQZ3mMgvPzUFFslLd/jn0d1rjMD7V9AdvpnW+tw1rWu27/7fc7Drb1hNyfjtDi883zVy6BUrh9MI7JwsDjvawYWzIczpud8Zk8T/Ehmn//9fX16N27t57yZ33nqPVdP1Hn+uuTNhK7m9bqqfCiLS+iWUaC8L79srDzbVvzUuOb+PDhw7bkUUOZd+jQIQw+62KsW/sU9u8/gL179+G+JRWYO2+BXmN40Xw3J7InnnhCjxER+VxxxRV6jMgU6t4ilLlzZuKqSbno2bMHunfvplK3bt2QmtoFqV1Scfa547H59ecACbJimbZu3WrcE0Rm3u2leixKDSWerKwST4Oe9CPzjHsY4xgYKd9T5c3O0nnwZOXnm8sHrsc+7bceIzmV91PlybeVzyoxSlnlA9frMB5u+6rybeu25ss6bPOyZt/kv25d3nsc7J8tAqc7mtPnV+Wbx1rGQ+6Dw/G25tvyvevy4nmKF9H8+5fvFafvG0nWd45a3/6mhEiH9+1Q6dDetz0H/7fdc+DLbZ79X2zz7P2swfPlJ1s9n3+8xfPpR296mj94w/Px+3WeD9993fPeO+s977y91rNt6z88mzeu8hROy3c8HsFSNN/NREREbhfq3iJUkutv7T8qPf9+rVpdjxu2vOTZ0VijrtG7m17z7Nm5QV23E7Mmi4gSXkfWZMUb47vdO/Sl0DVZBw8ewoGDB1iTRUREFAPtVZOVmiqpC5/JIiIiIiIiiiUGWURERERERDHEIIuIiIiIiCiGGGQRERERERHFEIMsIiIiIiKiGGKQRUREREREFEMMsoiIiIiIiGKIQRYREREREVEMMcgiIiIiIiKKIQZZREREREREMcQgi4hcr0/aSD0WmWjLi2iX6dsvS49FZuiIXD1GRERE8WrI8Bw1ZJBFRK63u2mtHotMtOVFtMvs2lGrxyKzcV2VHiMiIqJ4tWl9tRoyyCIiIiIiIoohBllEREREREQxxCCLiIiIiIgohhhkERERERERxRCDLCIiIiIiohhikEVERERERBRDDLKIiIiIiIhiKKW5udmjx2Niz549GDBggJ4Kbf4di1B843Q91THKy4FHHtETLnH00cCdd8I47jrDhXje3Ceaf//19fXo3bu3nvJnfeeo9V0/UefGN4/H/NqVoS8Bhw8ftiWPGsq8Q4cO4eDBQzhw8AD27z+AvXv34b4lFZg7b4FaTySi+W4mIiJyu1D3FqHMnTMTV03KRc+ePdC9ezeVunXrhtTULkjtkmoMJXVJviBr9GhgzRrgggt0RoLbscNMY8YAK1caUXOKnuEyPG/uwyCLQVZ7WL9+vR4jIvIZPny4HiMyMciKMblZF6tXm8NEJ4GHtU/33gsUFJjjbsPz5j4MshhktQcJsngzRUR2/F4gJwyyYsytN+v9+wMffABs2gSkpemZLsLz5j4dGWT1SRuJ3U1r9VR40ZYX0SwjgVPfflnY+XZNxEHW4LMuxrq1TzHICsO6mfrkk090DhEls2OPPZZBFjlqryDr7HPHY/Prz7HjC7coLjaH11wjN3DmOMU/nreOEW3AFG15Ee0yu3bU6rHIbFxXpceIiChWJACLNhGFsml9tRoyyHIJqQVZsABYtcrsJIISA88bERFR55JarkgTUaQYZLlIfj4wdiwwcybQ1KQzKe7xvBEREbnI+6uxaNFqvK8no9KWZdtTvG5XHGOQ5SLSQ93995vjbH6WOHjeKKHF84X3oxosueMO3CFpeb3ObB8f1SwxP+eOJaj5SGcSUXLrrO/HRA+I7NufwPvCIMtlpPnZtGlm87O10T9WQp2E543iif8F7X2sXrQIqxP1an3CKPz0xhtx4+XS6Uc9lltB1x3Ljalg7OUiC5y+mj0VN974U4w6QWcQEZ04GtOnj8aJerLDdNbntocE3hcGWS4k714S+/aZQ0oMPG8UL4ZgEzZbQdX7m42pIRjsgqt1/fIngCuMgMsIun466gM8EbJ26wyjqFn2xhunIvurOpuIyInUuMyahVmSSp7He1ae/tHq/dWLzHmSJE/NexSPLtJ5Rnp0syzk47fMLOvHLvnhy152Mx71ztOsz9XD1Y8G/wzRYttUrqzXtlyjysRmp3XZ993aloD9e9S4qMh225cLun+PGMfvvedRYuQvWvG09xi22CaHfYknDLKIiMjP4CHAJivK+mCPEXUNVr8iOl8QNeuirif9pp0uwCrb4cKuygasOybq8dabZ+B03Yv9VwcOwgkffAhVQaWaFYaprZIyS5Zj+RKzdmt5/Ueo8Y7rMkSUpIybfyOw6v3D23H77UYquggn6TmK8b32yPO98UOZZ6Qf9t6DDyT/vT3o/X29zA+HYuODjxpr8jlx9HRznprfG8+/KHNPxOixRtk6XXJzHTYOHYvRwX4IM4KVPZm2z1hl+54WjtsmAdGDMDK9n/+9dKOs47pk3/dgrC53e9EQbHpEf4a1f2rfHgGscb0NQffv+8bxO+kiFBn50889StZkcNimwXpWnGKQRUREfk48sbdxbVS3AMb1eyN6n2hevZ0viOEEuQAHu+noKF/9mi/IcvQmntDNBZdY0dcHH+BrE27EjVecgTefqASs8X/UhFgPEbne++9jjxEUXBjspt/4Du2NjXhwlhlEDf7e96CKnmRrJTA4E0OxB+//V08L+w9UD24E9rxvBi9SdmOdWpd8Rw/NDBFt2LfrhN7+wZ9w2jbVgsFhf5zWJfuultfbKbV4RnClvs+t/ZOy9nGZJ4Ltn5Ng2xTHGGTZVFZW4itf+UpEadeuXWqZoUOHOs4PTNOmTcMPfvADx3nh0sMPP6w+i4ioQ3gv4MYFb89QeK/f0VwQLcEuwMFuOqT9/e3Tg/8q2x6+mo2pfk0CB+Byb1PBK3DCy5WoaTayTxiEgVJGAjT7uCxCRBTUYHxP/aCUiTr1XehfY+VIvm9LNmFIkfUDlb12bDAyh25E3ebNqNto+45ulVZsWyBd6+T9Ee52/X0eSsj9cwcGWTYHDx7El19+GVHy6C7g9u7d6zg/MB04cAD79+93nBcuyXYREXUcuYDvwfvGBXxT70zzYtmWC6LjBTgGF/a2+OhDfHDC1xD+Uauv4muMoogoFPnR6D3fs6zvb95kPpNlMb4/H1VtoOV7rwgXnRRQYyWk2Z/U9hyvp4WtpitwnYMvvAh7HnwQey660PyObi2nbTPGh+B5RNRYQe17hGUDhdg/aWro17rhxCi2KU4wyHLQpUsXVVMVKp188sm6tEl+oXUqZyVpclJeXu44b/Bg859HUVGR4/xJkyap+UREHWVwZm88/+Dz6G3/iTTUBVHYLore+cEuwE4XdpmUYK5dnskagNPPeBNv6eenPtq6xRZkmb0Jep+tql/uG/9oK7Z8cAK+1ktPExG1YHyPSRPqErPG/pE9Ac3yjO9BY6aaN2tWCTYN+T5GSzClO3cwWwcAP7T3onfiaIzt7Zvfcp1G0HHSSRhifSm3ltO2GXnyXNSeB/W2Gcnq+KIlY9+L/Mv6Os8IIdT+ybyhZguIRa9+bmW23KY4D7hSmpubY/pWnj179mDAAP1kcRjz71iE4hun66mOMXq0OVy92hzaPf744yqgkSDr0KFDOje0gQMHor6+Xv06K01LWuPss8/G66+/jjlz5uC3v/2tzo3MmjXmPsn+XHBB8LxE53TeLr/8clVDKLp27aqaVp566qkYNWoUxo0bp/LsbrjhBmP51bj33ntxzjnn6NzQ1hgH87jjjlPNQmMpWc5bKNH8+5d/Y71799ZT/qzvHLW+6yfqXH990kZid1PkfeNHW15Es4zUhPftl4Wdb9eocTMBhw8ftiWPGso8+T4afNbFWLf2KezffwB79+7DfUsqMHfeAr3G8KL5bjZJL051yLQ1+5BepaSVoDhJ/k0YF8Xvfx94RJ5nNm4OsHoRSp43Qy/vfLlpULVgurctITVb00/Ei8ZdhV6dkVWE6dJGUJWVGrPWNRlcv349hg8fjk8++cTsrEIenZqabQumnsCbalx6D7zcCL0MUu6+D/Ftv+mXvQHjGVfciMu/aluXfb1+nyGdYagJ9kZIFCeOPfZY7/eCk1DznERbPij5rtPfna0KkzY/ilmrehvfpS7pqr0ThLq3CGXunJm4alIuevbsge7du6nUrVs3pKZ2QWqXVJx97nhsfv05Bll2DLLil9N5O+KII5CSkqLOgTSp/PDDD/Hee+ZtnPwN/u1vf8NZZ52lpoU8E7d8+XKsWLEC559/vs4NrUePHrjwwgtRXV2tc2KDQVbHBlnxxmpu7AuwwgdZBw8ewoGD0uy4o4KsxBQ6yAqifjnueOt0/S6ttmCQRRRvIgmyohUPQZb86FWXGf897MWz9gqyUlMldWFzQUpsGRkZ+Pe//426ujq8++672Llzp6pC3rZtm6rR2rRpky4JPPTQQ/jss88iDrCIyAU+eBn3SS+BIfpZr3/rA4w6r20B1kc1S3DHHffh5Q7tIpGI2koCpmhTTLTxJbuDv8cAK94xyCJX6du3L2677TY8+uijKqD6yU9+oueYv1Y9+OCDKt/y8ccf4+6778Yvf/lLFZw98MADqkbsiy++UGWlJmH37t1qXNLTTz+tlwSam5uxePFi/PSnP8V1112nas4irQElog6geg3UvQSGqKUacHnba56+mj1V90bIWiwiIuIzWX6s5oKie/fuauhk5MiReOmll9S41VzQrBpMVXlOVq5cqWpWnLC5YHhO502aC8rf2saN1lMd/nJycvDss8/iX//6F84991zVsUhpaSkaGhqQnp6OLVu2qKaA8jfbr18/1VOk1IZJla+cU3m+K9AZZ5yBzZs3q9ozWf/777+vyklQJuuRvw1pWtirV+in5NlckM0FrSGbC8ZWzJ6XICLX4PcCOWnv5oIMsmzsQVYo2dnZeOWVV9S4FWSFIx0uXBDkzplBVnhO5y1ckCW9ORYUFKiaLamlCgyypOMMCYjkXEoQJt58803MnTtX1UpJ4HT88cer5oVPPvmkmi/P60mHGqeffrp65kOWl2XlRlg61Lj22msxZcoU/PnPf1blg2GQxSDLGvoSg6xYaM3zFUTkfgyyKBCDrBhzulm32Du+kBqNYORASo9zwgqybr75ZtXkLBgpL8s5YZAVntN5CxdkPffcc7jkkkvUeZFmfYFBlpw7CZTkXEsHGk6cOr74+9//jiuvvFJ1y//rX/9a55rGjh2Ll19+WXXAIQFaMAyyGGRZQwZZREREHa+9gyw+kxXEiSeeGDRZAZaddB/uVNZKwQIs6jxDhgxRN57S6+CLL76oaq4isXat2U33t771LTW0k1pO6Vaev6YTERERJS8GWeRa//nPf9Tw61//uhoGuvPOO1Wg9cgjj2DMmDHqOSoZWkFUMNIxhjjpJL/XAipWnlWGiIiIiJIPgyxyLXkflpAmg07S0tJUM015JuvWW2/Ft7/9bcizc/IiY6nhCubII49UQ/UengCffvqpGkpTRiIiIiJKTgyyyJXkpcPS3br06JiZmalzW5JnsaSJ30033aSaDEoXzJ9//jlqamq88wO7ZZdOL4T0Thho69ataii9EBIRERFRcmKQRa4iNVDz589XHVNI87/7779fz2lJaq8koLKzaqmOOeYYNZTOK6SjDHug9d3vfhfSxX9JSYnq9t0iL0CWzlPOOussdjBARERElMQYZFFCkwBIemc888wz0adPH5x88smql0YJcv75z38iIyNDl2xJehr8xje+gR//+MdqmcmTJ+OWW27BiBEjVLftYvz48dixYwfOO+88XHPNNfj+97+vPke6hZfOLaTsb37zG/zqV79S78iS3uDuuecetSwRERERJScGWZSw5NkpCYakswl5IbA0DbzhhhtQVVWFTZs2tWiyJ8385Pksq7bqoYcewsUXX6xeLL1o0SLVRFDec7Vq1Sr1LiwhtVWFhYWqhkye17JquK6//no8/PDDal0LFy7EAw88gKysLBXYSbBF8aVPWnTnJNryItpl+vbL0mORGToiV48RERFRvBoyPEcNGWTZSG2INDWbN2+ezglPbsBlGbnBb61f/OIXah3yPiaKnDx3Je+vkiTPXz366KNYsGABcnJy1LvOAsmLiaWs1ESJiy66SPUsKDVV0olFY2Mj/vCHP+DYY49V84V0zS+B1ttvv62aA5aVlek5ULVar776Kr788ks0Nzer7ZFaNYo/u5tC9xgZKNryItpldu2o1WOR2biuSo8RERFRvNq03ny3KoMsG6npkJcKz549W+eE9/Of/1wtI50ntJY0Q5N1WE3UiIiIiIgocTHIIiIiIiIiiiEGWURERERERDHEIIuIiIiIiCiGGGQRERERERHFEIMsIiIiIiKiGGKQRUREREREFEMMsoiIiIiIiGKIQRYREREREVEMMcgiIiIiIiKKoZTm5maPHo+JPXv2YMCAAXoqtPl3LELxjdP1VMcYPRpYswa44AKdkeB27DDT8uXAZZeZebJ/sp+rV7tnP3ne3Ceaf//19fXo3bu3nvJnfeeo9V0/Uef665M2Erub1uqp8KItL6JZxuPxoG+/LOx8u0aNmwk4fPiwLXnUUOYdOnQIg8+6GOvWPoX9+w9g7959uG9JBebOW6DXGF40381ERERuF+reIpS5c2biqkm56NmzB7p376ZSt27dkJraBaldUnH2ueOx+fXnkq8ma9gwc7h7tzlMdGlpQI8ewOLFcuOmM12I543aItqAKdryItpldu2o1WOR2biuSo8RERFRvNq0vloNk64m68svgSFDjB1PMW5aNgJHHqlnJLCyMuBnPwPuvRcoKHBnjQjPm/t0ZE1WvJHaKWsYaU3WwYOHcODgAdZkERERxUB71WSlpkrqknxBlnj5ZfNm9rrrgEWLdGYCk5uziy4CXn3ViJ43AW+/7c6bdZ43d2GQxSCrPcyePVuPERH53HrrrXqMyMQgq51MNz72rrvMG9pRo3RmAmtqMmt6zj0XuOkm4MIL3XmzzvPmHgyyGGS1BwmyeDNFRHb8XiAn7R1kJW3vgrffDpx6KjB1qtkULdHJMz4LjPutVauA8nKd6UI8b0REREQU75I2yJJneh54ANi+HZg1S2cmuPx8YOxY4NFHdYYL8bwRERFRrIwYMSLqRBSJpG0uaLGan0kvb4MH68wEJs3Ppkwxx1980XzGx4143hIfmwuyuWB7YLMgIgoU6ntBgqZ169bpqfCiLU/xi89ktTOr17pt23SGS8gzPfffD/TvrzNchuct8THIYpDVHhhkEVGgDg+yGkuRPRlYVlOIdJ0VsbYs257idbvagEFWB5BaBOnZzU369TOTm/G8JTYGWQyy2gODLCIK1NYg65133kF+fj4KCwvVuiIOspYBk6MNTGIRzLRHQNSRQZb9s9rxcxlkEZErMciK4yBLLmoZRbBel5xV0oCaQuPy1tqLXQdenP1vpqpRkJILs0+ZfFR5ypCjxokombQlyLICrP79+2PhwoX49re/zZosndVuOuiz2jvIStqOL4iIyFlBRgXyGqzgrwqZWxr0nMRSXZALI7JS+9FQUofcAvMt/EREkQgMsI444gg9x4EEBikpSJFk/UgledmlaFSj2eY8SZKn5hWgIFvnGSnwK8pvmZRslMqKjLWVGsv4ysqPSdY8zfpcPSwtCP4ZosW2qVxZr225l1QmVjity77v1rYE7F9Btbnd9uWC7t9k4/jVFiHDyM++ebb3GLbYJod9iScMsojI9fqkjdRjkYm2vIh2mb79svRYZIaOMAKGDpOJgd6fD3NQVib1PwEXPuNq6HiB9LuoFxiXxJbLmRfkgJuCmKtGZXk+Juiqq/Txeciq26ov1EREPs899xxycnJUUGWJKsCSm38jsMrUP+p4Gkrg9w1vfOdNLspElfrhyoOqzC1QP13V1mHQMr1MVT7Kc+U70ye9sMacp+ZnomihzE1HYbFRtlKXrK5EeX4xpLGBI+O7d8sE22fMtwIWzXHbJCDy/Uglqex8o6zjumTft6BYl/M05KFisv4Ma//UvknVlH25EPu3zDh+WSVoMPJrppwgazI4bFOcNk0YMtzcMAZZROR6u5vW6rHIRFteRLvMrh1WY7zIbFxXpcfa34T8cuRK4OT3M2HAhc+4ojtfIA3eC7E0z2u5XKdIH4jMWn1jQ0RkM2rUKBVMSVAlwVV0AZahcSvqjO+4GcFu+uX7B/K9agZROWW66XJWHsZbX4k5E5CPOmxt0tNC/SClf8jKLQesH4qkbHmlWld1ZTnyrV+TnNi3K2OQf/AnnLatcQUq4LA/TuuSfVfL6+2UWjzru9baPylrH5d5Itj+OQm2TXFo03rzWsggi4iI/OSU6cBpQqV58QvWJiPYBTLUzYZIL0SNpyb4L69ERB1IgigJpqxAK6oAKyI5KFM/SE1ApfrO9K+xciTfr/am2361Yznqx7DKav8a+9ZpxbYF0j+ieX90i+T515D75w4MsoiIyFlOmXHxq/L+Yuon0S6Q6pfmQcjQk0REdvZAK+oAS9WUV2CFroZpXFHh7ThIMb4vC1T7aAloGlCSFVBjJaTZn9T2pOlpYavpClxnzowS1OXmoq5kRviAJhSnbcN45KEIVuOEkNS+R1g2UIj9Q2DLg/QotilOMMgiIiI/2faaq8DgxH7hC3WBDGRfTgK0dn8my/ql15xS25c5sF17qiKixCZB1V133aVSdDVYRoAiTaYzzJr9yVsy/X90MgIRY6ZZ65+SgYq8ZSiUYEo/q2q2BgCq7L3ppReiONM3v+U6jaAjKwt51pdwazltW7rZzLsuV2+bkayOL1oy9r3Bv6yv84wQQu2fzNPN1rOXfmBlttymOA+42IU7EXUKduEev124Sw9QRd6IKQslDb6mfdUFKZCWgdKte/GWDDUusvLzgbpBQd8LY1+uZvwKXQsW+yaD7MKdiAK19T1ZdtGWD0p+bGpLN+XVBUiZPwgNHdGlukuxC3ciIupQhTX24M8/ELKe15IOLLzPbsl0WRlq5GIvz1s5XPTty3XcM1nWswaSGGARkTMJnCJN8UJ1eFHMACueMcgiIiIioqQktVLRppgI8oNUpOSHq3jtwpxMDLKIiIiIiIhiiEFWopK2vJE8WEjxg+eMiIiIKCkkZscXcrMqLzvTk+pB6lg17m/rg4gdpTXb2VH7FnB+RH6VrtYOtw2t3Ub7cu21n21dbyTLd8R+xAl2fBG/HV8kMnnAnYgoULCOLyh5tXfHFwkYZElvUfMxyNsrlTFdAJTFqmFqotzYxvN2Bm6bTBtBV6YVaIXS2v1KhPMWyTYmwn7ECIMsBllERESdhb0LOsrEQO8daI4ZYMnNaXYBCrId+s+XeTovxe/dLBKw2cs3onRyEWr1ewuyb56tmneVFsj8AlSrz7A197KmAz5brcc7rsvaNJZmez/Tuz16XeZn+S/rWN7L/Czf58g+mWX8lvNup7n9LeaZC7cPebhT3qEwP9w2BBx/cyds506/hdzvWEme83lT+xR2eTOFPU+yPmvb1TDE+bbKmatpOW1wPqftsx8E9EkbqcciE215Ee0yfftF9+reoSNy9RgRERHFqyHDzRqFBAyyzBdMygvKUgLvKGvrMGiZ/lW4Kh/luXIzagQdGVtQbP1a3JCHisly4yo3xvLmN51vpLIc80VnWVklaDCma6acoF4Ut2WCzA/T/a/12epzpSpCj0tgoYtY0gtrvJ/pkZfXWa+v9n6W/7JByyvGNhcbZa03bsobw/OLUYhSTC7KNHbPXK4q0/9FoEHntRf1RvBw2xBw/AsbjHNn1oBJmYaSOuRa59zvvDicN0XOfbjljeR0nsIdoyjOtxPnc9oO+0HK7qa1eiwy0ZYX0S6za0fIV/e2sHFdlR4jIiKieLVpvXmPlpA1Wd53s0yoNH/Bt244s/LgffF1zgTkow5bX9hq/L8OyiTJs0Jys9+4AhUowYxwzdeMG96wZYT12RmDjJtk27iaGcBeKyFv56zbat4Y2z/Lvmyw8hbZ1/JKVbuh3pswwViJBDVqv81aj5wyW5AYal5HiWQbGo1zZzsm6ePzkKX3M6LzEunyTucp3PZFc76dhDundm3ZDyIiIiLqcIndu2BOmRFsVXkDjKCMG1GpGfDWHHTmSynl5jqjAnkNelsaSkLfGEdU3qzdq6yuRmV5PiTGkjzzJZwTUKlu5s1gwRRqXjtRgcIgZOjJTtmGqLTj9kX7N0BERERECSXxgiy5QbU3E2xx865JszmpYRgjzdSK4NfCTqSPRx4c8oW9WVsg27zGFRV+PehFzKr5MES0jgjK58woQV1uLupKZhjhgcE4TgXqQR8JFhpQklWHrU0yw+A0L2g1Sizo5m72N5OH2gbrGKsmhr5zpPY9f4K5f04Cz1u0y9uFOn6RCPd3EuqcxnI/iIiIiKjDJV6QJcFRXa7ZzEqS1Ags0zfvxo2odBhgNsECqlQPbcZNsnS6kKvzJanOBMznX+z5KnZLL0SxfuYre+kHslYfY94yeR5Gl5+8JTP6GghZf6ZvO8OuI9LyclyyspBn3bkbN+YoytD7loGKvGUoTDNnOc7zRj8xYj8XqjfIgJ4Fg22D/fiXZviduwx5RipY94SO583/3IdcPlCo4xdOuL+TUOc01vtBRERERB0uMd+T5URquJKk62tH1QVImT8IDcm6/5Rw2IU7u3AnIiLqLOzCnSKiOrywN8cjIiIiIqJO4Z4gK70QNUlciyM9LrIFGRERERFR52NNFhERERERUQwxyCIiIiIiIoohBllEREREREQxxCCLiIiIiIgohhhkEZHr9UkbqcciE215Ee0yfftF95a9oSNy9RgRERHFqyHDzZ7oGGQRkevtblqrxyITbXkR7TK7dtTqschsXFelx4iIiChebVpfrYYMsoiIiIiIiGKIQRYREREREVEMMcgiIiIiIiKKIQZZREREREREMcQgi4iIiIiIKIYYZBEREREREcVQSnNzs0ePx8SePXswYMAAPRXa/DsWofjG6XqKiJJJNP/+6+vr0bt3bz3lz/rOUeu7fqLOjW8ej/m1K0NfAg4fPmxLHjWUeYcOHcLBg4dw4OAB7N9/AHv37sN9Syowd94CtZ5IRPPdnMhmz56tx4iIfG699VY9RmQKdW8Rytw5M3HVpFz07NkD3bt3U6lbt25ITe2C1C6pxlBSFwZZRNQ5GGQxyGoPEmTxZoqI7Pi9QE7aO8hic0EiIiIiIqIYYpBFRERERElpxIgRUSeiSDDIIiLX65M2Uo9FJtryItpl+vbL0mORGToiV48REVEsrVu3LuJEFM6Q4TlqmHTPZJWXA488oidc4uijgTvvhHHcdYYL8by5D5/J4jNZ7YHPXhBRoFDfC1IzFU3wFFH5xlJkTwaW1RQiXWdFrC3Ltqd43a424DNZMSY36mvW6AkX2LEDePpp4Npr5YZNZ7oQzxsRERF1hnfeeQc5OTl47rnndE6EJDDJLkWjnuwwnfW5sWLf/gTel6SryRo92hyuXm0OE50EHtY+3XsvUFBgjrsNz5v7sCYrjmuy5KKWUYRaPZlV0oCawnQzP85/yfT/xboaBSm5KNdTxp6gpKEGsitElDzaUpMlAVZ+fj769++PhQsX4tvf/jZrsnRWu+mgz2JNFkXE+LePmTOBpiadQQmB543iUUFGBfIarOCvCplbGvScRJSPKm8gywCLiCIXGGAdccQReo4DCQxSUpAiyfqRSvJ0LUxjabY5T5LkqXkFKMjWeUYqqJaFfPyWSclGqVm1g1JjGV9Z+THJmqdZn6uHpQXBP0O02DaVK+u1LfeSysQKp3XZ993aloD9K6g2t9u+XND9m2wcv9oiZBj52TfP9h7DFtvksC/xhEGWSxQXm8NrrmHzs0TC80bxKRMDvcFIDsrK5CHegAufXA39LqwFxuVPivlfWP0uhKp8wM1AR4vgwk9EyUWaAUpzQAmqLFEFWHLzbwRWmVX6B52GEvh1bWR870wuyvT+4FOVuQXqp6vaOgxappepykd5rv4e1dILa8x5an4mihbK3HQUFhtlK3XJ6kqU5xcH/wHJ+M7eMsH2GfOtgEVz3Db5XsyFken9/LLzjbKO65J934JiXc7TkIeKyfozrP1T+yZVU/blQuzfMuP4ZZWgwcivmXKCrMngsE1m/xJxi0GWS6SlAQsWAKtWmZ1EUGLgeaN4NCG/HLkSIPlFHQEXvsIGv5uKhpI65Frlw9w4dCy9L0ZSgaEIc+EnouQyatQoFUxJUCXBVXQBlqFxK+qM78YZwW760wciU30Xmd+FOWVlUEWz8jDeCo5yJiAfddhqb9mifpgyv79Sco2bhLqt5neUlC2vVOuqrixH/oQQ0YZ9uzIG+Qd/wmnbGlegAg7747Qu2Xfb96yqxavVQaS1f1LWPi7zRLD9cxJsm+IYgywXMb4PMHYsm58lGp43ijc5ZTpAmlBpXvycqngCbirSx+chS1/0HW8czJ8tUdOhTfZyUCb7oVIVMosmo1T+jYW78BNRUpEgSoIpK9CKKsCKiPVdNAGVKqiI4IcnCUDsTbf9asdy1I9hldXVqCzPR6gYK7xWbFsg/eOb+V0rSQeRoYTcP3dgkOUixr8N3H+/Oc7mZ4mD543iVk6Z8fdY5f3FNLFlYBCjKCIKwh5oRR1gSW1QbQVW6GqYxhUV3o6DFCOgKFA16RLQNKAkK6DGSkizP/nRJ01PC9sPVoHrzJlRgrrcXNSVzAgf0ITitG0YjzwUQbXeC0fte4RlA4XYP1i1YZb0KLYpTjDIchlpfjZtmtn8bO1anUlxj+eN4km2veZK1VgNMkIUzbrwBVxY1QUyf0LLi7114yAXUtU0pAOfyaousD0PtgIVtZkYaL+BISKykaDqrrvuUim6GiwjQJFnijLMpm+Tt2T618oY35fGTDUvJSUDFXnLUCjfRfoZV7O5HFBl700vvRDFmb75LddpBB1ZWcizopTWctq2dLN5eF2u3jYjWR1ftGTse4N/WV/nGSGE2j+Zp5utZy/9wMpsuU1xHnAxyHKhMWPM4b595pASA88bxYu8ulzfxVKacyzTF377ha80w+/CmiEPTltPIYe6cehIGYN8F2T1/FgETViIiFpD1fybTd9qyspQI9970kRaff9ZTfL0fKvNtF8zO/395F1GVmlbxlqnlBHVC1EEX02QH2sdtnUpgdNKkG2Tsrb8sqkh1hVQ1hP42UHGQ+2fNa/mlluDfg47viAiooRSWOO7iAV2e+698Emm3wXPFsA43TgIVb4Dn8lyuiDbLvBBx4koqci7siJN8UJ1eFHM76x4xiCLiFyvT9pIPRaZaMuLaJfp2y+6B4SGjsjVY0REFCvyYuFoU0y08Ycd+cEr3mtyktWQ4eaJYZBFrlVZWYmvfOUrfqlXr15IS0vDxRdfjD/+8Y/48ssvdWnThRde2GKZYOmiiy7SS1G8290U3YNu0ZYX0S6za4ffI75hbVxXpcfiHGuEiIgoiW1abz4sxiCLXOvgwYMqiLKnTz75BP/5z3/w/PPPY9q0aTjzzDOxZcsWvYQ8D7WvxTLBkpQlIiIiIgqU0tzcHNMOo/fs2YMBAwboqdDm37EIxTdO11MdY/Roc7h6tTnsaE8//bSqTfn2t7+tc9pmzRpzn2R/LrggeF6ia815e/zxxzFp0iR06dIFX3zxhcr7/PPP1d+ovN193rx5KuiSrlo3btyoaqc+/PBD7N+/X5V18sYbb+DSSy9VAZwsX1xcrOdEJ1nOWyjR/Puvr69H79699ZQ/6ztHre/6iTo3vsnzQdbQl4DDhw/bkkcNZd6hQ4eMv7lDOHDwgPH3eQB79+7DfUsqMHfeArWeSETz3ZzIZs+erceIiHxuvfVWPUZkCnVvEcrcOTNx1aRc9OzZA927d1OpW7duSE3tgtQuqcZQUhcGWXbV1dUoLy9X7W0/++wznHjiiTj33HPxgx/8AJdcconqoaqtjj32WAwbNsz4/CiihRAYZAVnD7LkJjXQyy+/jPPPP1+NP/DAA/jJT36ixoORmiv5e9i0aROys7PV8vIPqTUYZDHIsoYMsoiIiDpeewdZbC5okBuYa665Brm5uXjhhReQlZWFq666Cv369UNFRYXKl+d3yF1GjRqFQYMGqfHa2vDPx8yaNUsFWMcccwwefPDBVgdYRERERORuDLIMUoW8ZMkSVavR2NioAquysjL13E5TUxOuvPJK7N27V5cmN7F+wfj000/VMJhVq1Zh0aJFalxeUnjqqaeqcSIiIiKiQEkfZH3wwQe4/fbb1c32k08+qZoI2p188sl47LHHVJNByzvvvKOWmTp1KoqKitTzPU5k3QsWLFC1ZPKcwPr16/Ucf9IcaPny5Zg+fbpa5x133IH33ntPz6X2Isd927Ztavwb3/iGGjr573//iylTpqimW9/73vfwox/9SM8hIiIiImop6YOsv//976qWSoKb4447Tue21LdvXzWUjitOP/101eHBP//5TyxdulQ9ryXP/khnCBYJqM444wz8+te/VjVjCxcuVC+xC6wxkWe/xo4diwkTJqiminV1dZg7dy4GDx6Mf//737oUtYe//vWvKmAW3/nOd9TQSX5+Pnbt2qW6fr/nnnt0LhERERGRs6QPsl577TU1HG31rBDC7t27VY3WKaecgoaGBmzduhXvv/++qs2SThZ+//vfq3LSQYIEXTJ85plnVGAlgdyaNWvQs2dPVcZSWFiogjWpyZKe61599VVs2LBBdbIhNWAUO1JzJb0Mbt68WQXJ1vGVAPe8885T44H+/Oc/q0Bcnr9atmyZ6hmSiIiIiCgUNhf84AM1lMApHOmBTmqeJJiynsmR3kSklkqam1mdYzzxxBN4++23cfPNN6tOM4T0cCfPfHXv3l1Ni3fffVfduP/85z/H+PHjdS5UDZg0T5NgS97pRG0jzfwkaJVzcNRRR6l3Y91yyy04cOCAOu5yDpxs375dNeEUUiMpHWUQEREREYWT9EGW1G5EyuqBLrDWQ2o5pGtvaVImSbr2FpdddpkaBvPKK6+oJobybqY//OEPfkmCNLFjxw41pLbp2rWrSkcffTROO+001XvkihUrVPNPyQskPU7+8Ic/VEH1Oeeco5pwEhERERFFIumDrBNOOEENJTgKR4IhqYlyenbrpJNOUkMpI++jEdJpRihWOWlGKL0Z2pM0HZR32rCb8LaTGiyptZIkTTels4tHH31UvVQ4GOlxUoJqqfl66KGHVI0lEREREVEkkj7Iks4oxIsvvqiGoRx55JHqRv1///ufzvH55JNP1PCII47wNgmUWpBQpKyQ5ofyfJdTCvasELWftWvXYv78+Wq8tLQUGRkZapwSV5+0kXosMtGWF9Eu07dflh6LzNARZtNjIiIiil9DhueoYdIHWRMnTlRB0X333YePPvpI57YknV7Is1LSvFCCn0CSJ51ayAuMree13nzzTTUMRp4NEjU1NWpIne/zzz9XXbRLM84rrrhC9TpJiW9301o9Fploy4tol9m1I/wLsO02rqvSY0RERBSvNq2vVsOkD7KkSd8vf/lL1QGG9DJnNeGzSDNCeTfSgw8+qIbitttu83uWS2rBpJdC6QZcAraLLrpI5UtHGNLpgpDy0nHGl19+qaaF1KINGjQI999/v/d5L4vUmMnyVg0ZdQzp6EJeSC1d9kvgTUREREQUraQPsoQETVdeeaXqSj09PV3VbkkNxgUXXKBqpv72t7/hK1/5Cr797W+rbr/l5cTS09y8efPws5/9TPVQJy8zlhcPC+kOfsyYMar79rPPPlt1+y61VlZPdRZ5Vugvf/mLCsxkfRKk3XDDDaom5etf/zqmTZumgi3qGG+99ZYKhIW8E+s3v/mNCsCDJTk/RERERESBGGQZJMiRFwbL+5AkQJJaKemGXbpY//GPf4yXXnoJv/jFL1RZ6ZRCev/7+OOPVXAm5SRAk+d4pBt3i6xLAjJ52a28A0uCt3/961+4/PLLVU+EFum5Tl46LC+8ra+vVzf50juhBHSyTccff7wuSe3NXssoTTjvuuuukOlPf/qTLk1ERERE5JPS3NwceR/mEZDmdtIrXiTm37EIxTf61+60N+udw6tXm8NEt2aNuU+yPxdcEDwv0bXmvEnNlLwkWt6RNXv2bJ0b3HvvvaeabkYq0vU6SZbzFko0//7lBwipLXZifeeo9V0/UefGN6u5sQx9yXynmy951FDmySsFDh48hAMHD2D//gPYu3cf7ltSgbnzzNrzSETz3UxEROR2oe4tQpk7ZyaumpSLnj17oHv3bipJL9SpqV2Q2iVV9Qwu46zJItc6/fTT1QuhIw2EpBt+KR9pam2ARURERETuxiCLiIiIiIgohhhkERERERERxRCDLCIiIiIiohhikEVERERERBRDDLKIiIiIiIhiiEEWEblen7SReiwy0ZYX0S7Tt1+WHovM0BG5eoyIiIg6y8dvf4b6Fe/gP//co3P8DRmeo4Z8T1aC43uyEhPfk8X3ZFlDvicrtvhqBSJycuutt+oxIlNr35P109yf4Jzjz8IJ/Y7DuT89I+h7shhkJTgGWYmJQRaDLGvIICu2JMjizRQR2fF7gZzwZcREREREREQJJClrsqTGwC01BTt2mGn5cuCyy8w8t9Zk8by5C2uyWJPVHviLNREF4vcCOWFNVowNG2YOd+82h4kuLQ3o0QNYvFhu2HSmC/G8EREREVGiSLqarC+/BIYMMXY8Bdi4ETjySD0jgZWVAT/7GXDvvUBBgTtrRHje3Ic1WazJag/8xZqIAvF7gZywJivG5Ob8gQeA7duBWbN0ZoLLzwfGjgVmzgSamnSmy/C8EREREVGiSMqOL0aNAq67DrjrLuDll3VmApPanfvvN8evuca9zc943og6SGMpso0/0BSdsksbffnZpdBTCaQaBYHbXV3Qcv8CNJZme8t4U0F16OPjlG9TXWDMS8hjSERE0Uja3gVvvx049VRg6lSzKVqik2d8FiwAVq0Cyst1pgvxvBG1v4KMCuQ1WM0Yq5C5pUHPSTxmoJQLv39eEmDlAlVq/zyoKUzXM/ylF9boY2Cmqnwga1AG0LAFmVW241M0GSqeCpavSYA1H/mI7jXURESUiJI2yHJz87NHH9UZLsTzRtQRMjHQG3fkoKxM3l7fiNLJRaitLUKGVUvjV3OTbQYUqrarAAXZvhodqfxRVHldroOoQKmhxC+wqa6sQ0lDmbFnUTC2fX55PoolIMspgzokSgYGWSsPlm+QYG/+oAbUzBhkZfjXCgZOExFRXDp48DC+/PIgvvhC0iEzfX4Qn39+CJ8beSoZ40nX8UWg6cbHS/Mz6eVt8GCdmcDk2Z4pU8zxF180O1JwI563xMeOL+K34wupccmVqp/8Knh8UYMZCEwGltUUIl2a4KVUYoJHByvWvGXAZFUTVgNVQeStNTLKSRn7vHbg+IB7i+32r9nKr/LYgiNnqhZKgqTADfdbt40tH0aANRnLzGXtx8m+XLD1EFGbseMLctLaji8GDZqEd99NM8a6GilVJ6m3kpTiHSZ9kGX1Wrdtm85wCemdTp736d9fZ7gMz1vi68ggq0/aSOxuWqunwou2vIhmGQmc+vbLws637c3RQgdZg8+6GOvWPtWxvQuqAMkIR6xgyx4IyHhGEWp1UVM+qhoGYb5fsCBBzXwMasfAyi6yICsgOMzYgmJr2knQMsH2zZ7faMRYGSjyP1DA2RNwds/zUcEgi6jdMcgiJwyyOoDUIrz9tp5wiX79zORmPG+JrSODrHgjgZM1jDTI6rwu3G1BiT0QCBYUtMiP8yBLmkGaM4Nun3MtViQBls6ys7aFNVlEHYZBFjlpbZD1ox/+DGcMykK3bt3RNbUrUrtK9+2p6NLFSCldjKGZGGQRUadgkBW/QVZ2QTVqrPZz9pt/GffW6EgwodoB+je1CwwWpDZs/iA0eJfv7OaCAUGTfZ/89k8LmuewH8Hy7aSMbItqVulbrzyzlVGRZx4nsyQRxQiDLHLS2iCL78kiIqJWyavL9XZakSJBwzJ9459eiOL8cuQa+dmlGShrKEFdri4nyeq4QXeOofIkDuvEwEH1LijNGvU2SSccOWUNyKvI8O1f0E4wzM4+UDLDb37jigrUGv8VZeh9NJJ0BBIs35FxLJeV1KljKeUmb8lkr4NERC7CIIuIiPwU1thr2PxrZXLKzHxVC2QECjXeckaygqmsEjR4820BjCrffrVYTgK7YTdr3dJt+2jbHrV99oDLLBfY2UXgOiVJmWD5fuQz9HGyl68pK/PmExFR4mOQRUREREREFEMMsoiIKHZsNTVERETJikEWERERERFRDLF3QSLqFOxdMFG6cE8s0osYEVEg9i5Igdq7d0EGWUTUKRhkMcgiIiLqLOzCnYiIiIiIKIEwyCIiIiIiIoohBllE5Hp90kbqschEW15Eu0zfftG9enboiFw9RkRERPFqyHDzbYsMsqjzNZYiO7sUjXrStZJlP+PQ7qa1eiwy0ZYX0S6za0etHovMxnVVeoyIiIji1ab11Wro3iBLbmhTUpBdaruljeQmN95vhBNhH/SxT/GmAph/brHSiNJs+/olZcN+qttFRxxX+2d09nkkIiIiolZxd01WVj4yKya3/813R0qUF31mlaDB6jWtCsiNabCQjsIaW69sVfnG5+VhfHsflI4+9nypKxEREVFCcnlzwUGYUZyJooUB9SiBNQTe6UaUTi5CbW0RMlJSkH3zbCO/AAW61qSg2leDUmCtUpZ1qk3xyzeSQ5DRWJrtML8aBbblCpaY21ZaINMFqLa2VQ1926bKqm0K2Id4iDBzJiC/dgsaZNzvuDjUcAU7nkEZxyu3DiXLdDDitLw+Zt5j2KKcc01bi/Oj1xN47Fv8XVjlzNW0nDb4rdu7n05/f3o5p+3V6zX3y0zev0siIiIi6jTufyYrpwxVyI3w5jMdhctKkKVrYWqmnADU1mHQMrO2pDx3MmCNz5ebX+MGP2MLiq0alYY8VEy28ouQWWXlG+vUn+Bl3CBPLspElV62KlOCELlZz4WR6a2lKTvfKGvcdG+ZINNlMB+l06xtk7Jq++TmO2AfCju/HqSxdD7KswYhI+C4NJTUIdfvxAQ7nsFVF+SirmQZzN0MsbzfMQy3HQbH82MT8u8ivPTCGnMbJVVZPwQ4/P0pIbbXu1/RfT4RERERtZ+k6PgiZ0YJ6lp782k1Q8sYZNz82sZlXuNW1KEcuVYNg3EjXCs1NpJv3CjP8IuIAqQPRKZa1qyVyCkzbv4bV6ACDssFW5e9iZzUFhlbszVe7rB1bYwcl4yKPDRIs7eA45I+Pg9Z5ZVq/5Vgx1Nm2Wp+vLVz1QXIrSvBMiuQDLG83zEMtx3C6fyYc0yh/i4iYa+Zyi0H6rYG//sMtb32/Yrm84mIiIio3SRFkCXPtizLq8DCFXo6loybXO+zRyoZN+MNWxC+37AclKnyE1Cpbradm6wlLPtxiea5IqfjaWTba37M2rlq/2aCliDLR68dz48EWBkVyGvQ2+hU00lERERECSs5gixDemExUFTkC36sGg5D44oK/6DINi8kqe2oLULgI1/mM0gVWBGqVsm40S5QNTJyM9+Akqw6bMV45MFhfZGorkS5vWYr0n3oSAHHSx33/Am+ICjY8XTg30xQi3T5cNshnM5PkzkrIqH+voTtXIX9+4tke4mIiIgobiRNkKVulqvyzVGp2ZLnWnRzrclbMn01Cca84nyzyVn20g90ZjDGOhtKUJerm31JUh0VyGdloihD50mzNb2El3HjbBTQy2WgIk8CBvOZHPv6Cl7S5Z0YN95Wk7wUeZTLqjGy74PVtC4u+B+vDHnmqcweKgQ7noGqUVkuu28dP0lS0xTp8uG2w+B0ftL0vHBC/X0JOT+ZvnMX/u8vgu0lIiIioriR0tzc7NHjMbFnzx4MGDBAT4U2/45FKL5xup5yseoCpFROgCeWN8bS5Ez6W2AX35Sgovn3X19fj969e+spf9Z3jlrf9RN1bnyTZqLW0JeAw4cP25JHDWXeoUOHcPDgIRw4eAD79x/A3r37cN+SCsydt0CtJxLRfDcTERG5Xah7i1DmzpmJqyblomfPHujevZtK3bp1Q2pqF6R2STWGkrokU01Wx6q2dautaplY80BERERElBQYZLWTnDL7L9St7XwhhHS+qJaIiIiIKB4xyCIi1+uTNlKPRSba8iLaZfr2i65PyaEjcvUYERERxashw82qFQZZROR6u5vW6rHIRFteRLvMrh0tusMJaeO6Kj1GRERE8WrTerM7aAZZREREREREMcQgi4iIiIiIKIYYZBEREREREcUQgywiIiIiIqIY4suIiahT8GXEfBlxe5g9e7YeIyLyufXWW/UYkam9X0bMIIuIOgWDLAZZ7UGCLN5MEZEdvxfISXsHWWwuSEREREREFEMMsoiIiIgoKY0YMSLqRBQJBllERERElLTWrVsXcSKKFIMsIiIiIqJYaSxFdnYpGvVkVNqybHuK1+2KYwyyiMj1+qSN1GORiba8iHaZvv2y9Fhkho7I1WMJiBdnIkpGnfXdl+jfufbtT8B9GTI8Rw0ZZBGR6+1uWqvHIhNteRHtMrt21OqxyGxcV6XH2l92SgqyS22XtIS9YFejwNiXFCsVVDvkFxhTlmD5REStkF6ImppCpOvJDtNZn9seEnBfNq03rx4MsoiIyF9WPjIrJsMeZyWk6kqgyuoivwEldfPVPlUX5HrzG0rqkKuDr2D5RERhyY9R1o80GUVQP6PZfqBqLM3WP+AYSfLUvAIUZOs8IwV+5fgtk5Ktv5MbUWos4ysrPw5Z8zTrc/WwtCD4Z4gW26Zy/X+kKnhJZWKF07rs+25tS8D+FVSb221fLuj+TTaOX20RMoz87Jtne49hi21y2Jd4wiCLiIgCDMKM4kwULQy4glkXbj3pnY7gYgpswUKd57uYGoJenK0bA12jpMoF3EiEk1OGMrPVhqEBW2ozMTC9GpXl+Zig89PH5yGrbquxT8HyiYjCMW7+jcAq0/pRp6EEfg3Cje+vyUWZqFI/+HhQlbnF+EYy1NZh0DK9TFU+ynP9a9DTC2vMeWq+9Z2cjsJio2ylLlldifL8YhQGq+oxgpUtE2yfMd/2HS4ct02+w30/OkkqO98o67gu2fctKNblPA15qJisP8PaP7VvkwFrXG9D0P1bZhy/rBI0GPk1U06QNRkctsn7/R6fGGQREVFLRoBShdzIfykMczG130wY9x8oUhfhUBdn62JehrZdR62ArxITnNaVPhCZtfqGxy5YPhFRoMatqDOCghnBvqzk+wTlyNU/GuWU6e+irDyMt4KjnAnIRx22NulpYf8RKrccsH74kbLllWpd1ZXlyLd+HXJi366MQf7Bn3DatsYVqIDD/jitS/ZdLa+3U2rxrO9Oa/+krH1c5olg++ck2DbFsaQLssqNczh6tLvS5ZfLW6v1DroUzxtRx8uZUYK6wF89gwl3MbXdTKhaIrkIh7w4B1xMpV2+pyb4r7VBpaOwRoK1CaiMtiaMiCgmclCmfkyS7yH5vovgmU8JQDIqkNdg/Qhlrx3LwYT8clRW+9fAt04rti2QrnWyapgi+nEs5P65Q9IFWY88AqxZoydcYMcO4OmngWuvhfFHqjNdiOeNqBMYgc2yvAosXKGn20NrLs6tIjcltdgSWDWlfoEehAw96RUsn4gokKr5rsAK/SNO44oK85ksixFQFKhfeCSgaUBJVkCNlZBmf/JjVJqeFrYfpwLXqX4Ey81FXcmMtn1nOm0bxiMPRQhsMe5I7XuEZQOF2D8EtiRIj2Kb4kRSNhe84AJg9Wp3pD//2dynF14wa3vcjOeNqOOlFxYDRfohbmG78LW4KEZILZc/ATnRXJxVs5LoaqIaSwts5eUX3ywMyrB+ATZz1bZkDkS6CsKc8omIwjECFHmmKMOslZ+8JdO/Vsb4rjNmmjX2KRmoyFuGQgmmjO8/6dzBbC4HVNl70UsvRHGmb37LdRpBR1YW8qwopbWcti3dfC6qLldvm5Gsji9aMva9wb+sr/OMEELtn8wzvo+llUP20g+szJbbFOcBF5/Jcon+/YGZM4GmwF9GKK7xvFH8k5uHfHNUarak1z2ni2I4tpuJjIo8NKgnllt5cY6Qee9grVvdwajmhjllVTB2wtwWeeBbPz0dLJ+IKKycMm+NfE1ZmdntuPGdaXY/LrVEvhr7Gqvds19Nvq7F9y4jq7QtY61TyojqhSiCrybIj7UO27qUwGklyLZJWVt+2dQQ6woo6wn87CDjofbPmldzy61BP4cdX1CHKC42h9dcw+ZniYTnjeKR/UKnyM2DzrP3BtXyRkIVaDkecGG01qU4zbOvw6LKRflMlu2mR5Lvgmy/qbA3TwyWT0RuNmLEiIhTvFAdXhQHfE9SXGGQ5RJpacCCBcCqVWx+lkh43oiIiDrPunXrok4x4fRjUhSkpoeV7fGNQZaL5OcDY8ey+Vmi4XkjIiIichcGWS6SkgLcf785ngzNzx588EGMGjUKX/va13DcccfhjDPOMAKWfLz44ou6BPCb3/wGOTk5QZPMF5s2bfLmVVRUqDy7tWvXqnn2dQspO3r0aO82DBo0CFOnTsXzzz+vS4SXbOetM/RJG6nHIhNteRHtMn37RddZ7dARuXqMiIiI4tWQ4WYVY0pzc3NMb+n27NmDAQMG6KnQ5t+xCMU3TtdTHUPeTySkhzc3kG7NZZ9kf6T3PSHP+dxyizxXAWRFdx8XtwLP289//nPce++9OOGEEzBmzBgcccQReOONN1Q1fmpqKg4cOKDKXXbZZVixYgXS0tJUfiAJkO43Ipw1xoGUcfGNb3wDDQ0N6N69u5oWy5cvx3e+8x389a9/xQ9/+EOVd/311+MPf/gDjj/+eIwdOxZHHXUUNm/ejNdeew2HDx/Gvn37/NZhlyznLZRo/v3X19ejd+/eesqf9Z2j1nf9RJ0b3+SZH2voS1B/N77kUUOZd+jQIRw8eAgHDh7A/v0HsHfvPty3pAJz5y1Q64lENN/NiWz27Nl6jIjI59Zbb9VjRKZQ9xahzJ0zE1dNykXPnj2M+7xuKnXr1s24z+yC1C6p6n5TxhlkJTinm3WnvERnP2//+Mc/VA3WN7/5TaxatUoFN5a6ujr88pe/VEGTsIIs+bs88cQTVZ4TK8g666yz8Prrr+NPf/oTrpWXWGmBQdb69etxzjnnqPKrjY069thjdUlgy5Yt+MUvfoFnn302qiDLjectFAZZDLKIiIg6S3sHWWwuSAlHghpRUFDgF2CJzMxM7/zW+PGPf4z+/fvjtttuM25k9+rcluQz5Ob3Jz/5iV+AJaTJ4AsvvBA0wCIiIiIid2OQRQlHfi0QO3bsUMNA8o6b1uratSvmzJmDXbt2oTxEd3/WNvznP/9Rw0Bt2QYiIiIiSmwMsijhSLM9CYYWLlyIBQsWYPfu3XpOcPL8ljw/FZh27typS/j84Ac/wOmnn4477rgD//vf/3Suv/Hjx6NHjx5YvHixauf9zjvv6DlERERElOwYZFHCkV4E77rrLvWcyq9//Wv07dsXAwcOVM9QSacTTqQXQemoIjA1NjbqEj7Slnbu3Ll49913cc899+hcf9KkUGq6pOzNN9+sOstIT09XTRhra2t1KSIiIiJKRgyyKCFJMCMBktQ2XXTRRapGSgKic889FzNmzNClfKQLdukxMDBJ5xlOJk2apJ7v+t3vfocvvvhC5/qbPHmy2oY777wTl1xyiepYQAKv7Oxs1fEFERERESUnBlkGt7xvKdl8/etfVzVZzz33HP773//ikUceUcdOgp5//etfupTp1FNPVTVNgUm6fnfSpUsX/Pa3v8X777+vehoMpk+fPqpGrLq6Gh999BH+/ve/q27l7777bm8Ph0RERESUXJI+yJL3Lf3oRz/CW2+9hXHjxmHixImqxzp5d9LFF1+sSwEbNmxQXXJL99zS5WNgko4ShNzsSzlJUqOyf/9+lW+Rm3aZZ3+OSG7Sr7rqKhWgyTufrrjiCtVj3dKlS9U2BK6DWpLno773ve+pYyn++c9/qmFbTJgwAcOHD1fPfn322Wc6NzjpTVDO3axZs9S0dDVPRERERMknqYMsuQmWDhGkydj27dtVTcgDDzyAV199FRs3blTNvgLJvG3btrVIEpTZyfuTpOe5wPxA8r6lkpISnH322Wob/va3v2HJkiWqxktermu9IJd8rIDWyTHHHKOG0jFGW0kPgVKb9eGHH+KPf/yjzjWF2garS/dYbAMRERERJZ6kDrL4vqXEdNNNN+G6665TtYJ2UotodUaRm5urc9vm0ksvRVZWVovmh7fccotqUiqdY9h98sknqnmhBGjSAyERERERJZ+kDrLCvW9JnstpLb5vqf3IeZFARp7JkuaVP/3pT1UzvdNOO03V/kntU0ZGhi5tkg4xJOgNTNdcc40uEdy8efP0mI9sw3333Ye0tDRccMEFaj1XXnml2gZpWiqBoATqRERERJR8kjrI4vuWEpP0IvjQQw+pDkSkieVjjz2Gmpoa1exzxYoVmD17ti4JDBs2TPX8J7WCAwYMaJGk+3dx/PHHq3ISNAUaO3asqu2U+dLRhZBzLk07L7vsMhUgP/7446r5qTT7fPLJJ1VNF8WPPmkj9Vhkoi0vol2mb78sPRaZoSNiUztLRERE7WfI8Bw1TOogi+9bSkw9e/bE1VdfjcrKSrz99ttobm7Ge++9p3oZlOZ9dlKrJT3/BUsyXwwZMkRNS9DkRIJrmX/hhReqaQmM8/LyVG+CEujJNkgX7qtWrVIdZlB82d20Vo9FJtryItpldu2I7t/3xnVVeoyIiIji1ab11WqY1EGWsL9vSWosOvt9S9KboAQMfN8SEREREVFiSvogS1jvW1q5cmWnv29JuneXbZDmZ/LOLL5vKfYkiJVgWXqQDEc6spAaM2nOKbVZUlP15Zdf6rlERERERC0xyApgvW/pV7/6lZrurPctffe73+X7ltrJzJkzVY+B55xzjnqBsBPp8VGekZPgV96dNn36dPVONXmX2kknneT9+yAiIiIiCpTUQVZHveuote9b6tWrlxryfUuxs2/fPixfvhxHH300Dhw4oDqpcCLP5ckzclJLKWWkU5StW7fiL3/5i+pBMFStJBERERElt6QOshLlfUuBnTlQ60lzTDm28+fPVzWGFRUVeo5PVVWVahootY/Sa6HURJ588smqN0J5fm7dunWqNoyIiIiIyElSB1nh3rckPQN29vuWpMmg9HxHsSFBlbybTIIlOefyMugPPvhAzzVJ9+xi0aJF+MpXvqLG7aRmUYI0IiIiIiInSR1khXvfkjQXs3TW+5bkuSCKDXlX2dNPP62CK+nYRJ57O3jwIJ544gldwiwjx18C7/POO0/nEhERERFFLqmDLL5vKbnIcZeOR6S2UsjxlVope5NBeRn0/v37Vbf7REREREStkdRBFiUXCabkOTsreP3qV7+K0aNH46WXXlKBrbB6fzzmmGPUkIiIiIgoWgyyKCnIu62eeeYZjBw5Uj2TJTWGkuTlz4cOHVI1ieKoo45Sw88//1wNiYiIiIiixSCLkoIEWBI4vfLKK+p5LCvdcMMNar7VZFCexZIgLJIXFVPi6JM2Uo9FJtryItpl+vbL0mORGToiNj2dEhERUfsZMjxHDRlkUVKQTk2kJ0fpSOR3v/udXzrzzDNVZxfSjf6RRx6parvk2Sy+BNo9djet1WORiba8iHaZXTtq9VhkNq6r0mNEREQUrzatr1ZDBlnkel988YWqycrOzlbvRpN3XNmTdN1/+PBh1bOjmDZtmhr+8pe/9D6jZSc9ElodnRARERERBWKQRa4n3bbLM1lWr4KBJF9e+mw1GZT3lF111VWqyaC8QFqCr6amJtTV1WHJkiUYMWIEbrvtNlWWiIiIiCgQgyxyPWkqKEGUvBfLySmnnKLejSbvSNu1a5fKe/DBB/HrX/8a27Ztw6RJk9CvXz/VPb+8LHrnzp24/vrrVTkiIiIiokApzc3NHj0eE9IVtrycNxLz71iE4hun66mOMXq0OVy92hwmujVrzH2S/bngguB5ia4t5+3f//63ag44fPhwndPSjh071DvSBg4cqDrEsHz88cfGZ65WgZW800zmS7PD7t276xKtkyznLZRo/v3X19ejd+/eesqf9Z2j1nf9RJ0b3zwe82tXhr4E9XfqSx41lHnSA+bBg4dw4OAB7N9/AHv37sN9Syowd94CtZ5IWK8pICIiIlOwe4tQ5s6Ziasm5aJnzx7G/WA3laTTtNTULkjtkqpeFyTjDLISHIOsxMQgi0GWNeyoIIuIiIjaLtIgi80FiYiIiIiIYigpa7KkxsAtNQU7dphp+XLgssvMPLfWZPG8uQtrsliTRURElGhYkxXEsGHmcPduc5jo0tKAHj2AxYvlhk1nuhDPGxEREREliqSryfryS2DIEGPHU4CNG4Ejj9QzElhZGfCznwH33gsUFLizRoTnzX1Yk8WaLCIiokTDmqwg5Ob8gQeA7duBWbN0ZoLLzwfGjgVmzgSamnSmy/C8EREREVGiSMqOL0aNAq67DrjrLuDll3VmApPanfvvN8evuca9zc943qi1+qSN1GORiba8iHaZvv2y9Fhkho7I1WNEREQUr4YMz1HDpO1d8PbbgVNPBaZONZuiJTp5xmfBAmDVKqC8XGe6EM8btcbuprV6LDLRlhfRLrNrR60ei8zGdVV6jIiIiOLVpvXVaph0z2TZSW2IPAMjtSOLFunMBCY1IRddZN6wC7c+28Pz5g58Jssc8pksInfqdce7eoyCab7xZD3m7IUXXtBjFMyYMWP0mDMew/DCHcNAfBlxhKYbHy/Nz6SXt8GDdWYCk2d7pkwxx1980QxG3IjnLfExyGKQReRmDLLCiyTIGjFihJ6iQOvWrYsoyOIxDC6SYxiIQVaErF7rtm3TGS4hNSHyvE///jrDZXjeEh+DLAZZRG5mBVlNP3dBd7gxlnaP2d6fQVbbMMhqOwZZ7UxqEd5+W0+4RL9+ZnIznrfExiCLQRaRmzHICo5BVmwwyGo7BllE5DoMshhkEbkZg6zgGGTFBoOstmvPICtpexckIiIiIiJqDwyyiIiIiIjaw44lmDhxCXboSXLg0mPEIIuIiIjIJXYsmYi0tDRvmrhE37oG3siunqXmz1qtp5OF3m9vSroDEGs7sGSicRwZSLbAIIuIiIjIBSTAOn/FeLzU1IQmlZbi9Hnn+wItiwRcU97CnJeacHsSvDLEogLQKcBS7/FpwlI8D4ZZbbDjBazA1cZ/K/ACoyw/DLKIiIiIEt5qlM0D5pRMha+T2tG4/aU5wIoXfLUMEmCdvwLjX3oSU5OkN1vTDrywwjg+L91uHBWf0beb0/41gBOh4lJd+7dklpVvr/lbjVne8jpfynvz9Dpcbocc1PEFuOj0Dcafmd5hddxmYZbUcAUeH6d8L7NWzP8YJ+5xZJBFRK7XJ22kHotMtOVFtMv07ZelxyIzdESuHiMicrBjO94aNh5jAgOnfqfh9A2NMN94sgJFSRlgGaTGZcPpOC3Ifveb+qS3dqtp6emYV6bv9DfMQ+NFVv7VeHixNIuTYEBViXmXuX20ERCc34hp1jpeGo8VRW5vQmcGruONP7rRF12NDfZgfsNbSC/Rx0KO25RZZo1hsHylH6ZOM/Ke1zmrn8fDV09LuL/VIcNz1JBBFhG53u6mtXosMtGWF9Eus2tHrR6LzMZ1VXqMiKiVNhg3xHOMAML1N/9BDEvHqXq0BXst1JSHgbe2m8do2BwUWFVfp6ZjmAxVEzlbvpAgFw9jirWO8+dhgze4dSl1HHRgP/oiXL3B1mTQHvDLPOPobN9pjAfLt0jew2YTztXPP4yrL0q89qyb1lerIYMsIiIiokSnaqwcnotRNVw6uJAb3Km346XxK3C+fzst9wt2fIQEWKqGT9ewvDTHDKaiZQRkvufhJPk3TXQbaSq4YcM8nK8CyylGiGlrMthqo3HR1Q/j+dWr8fzDVyMBYywvBllERERECW80CuYgoJZKmrDNk/Zctue0pGlcCea8NaVlhxiupo/P+fbmacYRmqWnbTUsKngwR531G4PxmAerRaGigriAPFeTpoIbcLWtyaQ0//NrMmiRZn9yfE/R05Yg+aONE/XWlCl4a05BQgepDLKIiIiIXECeK1K1VFaTNbMrPTzZ4qGWfpj6ZJCeB11MHZ85b/ma9BlpCi7C6H5TMe10q0YmDUWNp4epyTKOX4kEAr71zFptdjJiz3N1t+ZOTSatJoPS/M9bw2Uk+TN8UnfIEizfToLYYcPUs16JLKW5udmjx2Niz549GDBggJ4Kbf4di1B843Q9RUTJJJp///X19ejdu7ee8md956j1XT9R58Y3j8f82pWhLwGHDx+2JY8ayrxDhw7h4MFDOHDwAPbvP4C9e/fhviUVmDtvgVoPEcWfXne8q4ZNPz9SDckn7Z4v1bD5xpPVMJgXXngBI0aM0FMUaN26dRgzZoyectYpx1CaXxYBJYEBVLD8QPIus8XpeClcuRiI5BgGmjtnJq6alIuePXuge/duKnXr1g2pqV2Q2iXVGErqkiA1WY2lyE5JQYotFZjPlPlUF/jNT2lRoJ3ItmWXojHUuJNoykYiFutoN40ozTbOidP28by1fR1ERERELqE6vJjW/gFWe0uc5oJZJWiwfvFtKEFdri/QaizNRkouUGXNN1IVKtEht+vphaipKUS6nvQKlm8JNz9asV5fLDWuQAXyjf8qsMIWTfC8GeL5vBERERFFq99UPOnYDDBIfoDRt7vjJdmJ+UyW3JhKoDVfagAasaICKGkog9krvSmnzH9aqJt6q8bEXhvhrUnJRqlk6tqF0gIrPyCgs8rLOrw1EY0onVyE2toiZBjzsm+ebear9RfYAodqFMh0sOVKX1C1Pr4KHSmvt8sm6HaoYQEKpObImFdQrWuR1LheuIM1ygnKm4EJmbWo8EZZPG/xft6IiIiIqHUSt+OL9IHIrN2CBqklqc3EwHBVAcZN7OSiTG+tSVWmsazcCGdsQbFVk9KQh4rJcgNtMG6et0zQ+VX5KJeAznEdlnQULitBlq5xq5lygs4uRHF+OSqtG+XqSpTnT7AFEgHLFY5BYbHxedYCqnwxCu37F3I7DLV1GLRMb3fuZMAaV0FpRzODqbzx6ciZkI/aihXmNvC8xfl5IyKiWJDnj5j8E1EySIyOL4yb02y55/RrViU1BZWY0DAI81vMcyLlc1GOfOMmV9eWyHoziuD/SlBjfuA6vZ8/EAud1mGVDTYuzx1VToCnLAfVBdnYOqMGhQhSVtZp7ZvxGcYIKo2gwVjUJsi+yDqWAZOd1tviMzqI3+fKds/HoIaA/ddFnfG8+X+Ge7DjC3Z8QeRmvXTHFxRcJB1fUGiRdHxBobVXxxeJG2R58+QGWt+4R3QXarvRDRagBX5ei88Psg57Ob9lpOnXQgysmYDK7K2YEbKsqVrdpFcBueZNu9+9upfDdsTZzbo0j8so8g+HskoaUFPYYGw7z1u8nreOwCCr9UHW//63F/c/8BiDLCIiog4WGGR169ZVBVlduxrBVcL1LtiCcZOaUYTMYrnxzMGMEqAow/78jNzs+k/LDXeBekAmB2WeBpRk1WErpMlhERb6FQzBaR1N5iwvacKoR33SMT6vDpUFlajLG+98sxywXI6xU3W5uagrmdHyRj2S7YgL0lSwFvlVthvJKqvJIM9b/J43imfy74iIiIg6j/e+1nZNDrw+J06QpTsYMDsNkBoQX1Os9MIaNJTUIdc7PwW5sD8/Y0gfKHf0en4GKvKWoTDduNnVPRVay3k7VnDitI40PU/o53hkO7KXfqAzTenj81BXDhQ7VdvYl1M34ZI3HnlZWepZphbCbUdYUpNiBTPBxmNA9SpYghn2E5EzAfm1Zi+DPG9xet5cqE/aSD0WmWjLi2iX6dsvS4+FZn1pDx2Rq4ZEREQUv4YMz1HXbr6MOF7J80DzB6HBhc3EXI3nLWJsLuj/S5hkRdJccN++/eqZLDYXJCIi6njSXDDvyhzHZ7K6pnZN9OaC7lddWY581RySEgnPG7U3qQklIiKizuNtSWW7JgdenxlkxamcssCe6SgR8LxRR2CgRUREFB8Cgy0LgywiojhifVnL97X1pR3sC5yIiIg6nnWNtl+ffdNqkkEWEVE8s7687ZzyiIiIqGNYwZQvsPK/Lss0gywiojgR+CVtMb/Ag3+ZExERUcfp0qWL3zVZLsv2aVVG/T8REcUN+xe19WUtZNz6YiciIqLO4btG28blP8nQ8xlkERF1MOtLWFhfzhb7uEV9WRvBVZcUM8Dq0qVlGSIiIuoYck02u2pP9V7HzeS7jjPIIiKKA/o72cv+ZW1PEmDJlzsRERF1DvUeLN2yRF2X9Y+gfokvIyaizpDMLyMWoV5ILOPWS4klT6bNFxIfVC8l3n/gAEoXL1XLExFRx/j00/2ofm6XGh/17ZNw8klHqPH28z7WPfYvbEMaRk0agpN1rt3nDf/EM69/jK+edSHGZnxF57ajz7djVfVmfPTVwbj0wtNwlM5WQs3DF6h/8UX8+6PjcHbOtzDAf6afd9c/jZe3O5R7bxP+9o+mlvva4nOt4ybCf15r/HRqHrp166peQty1a6p+CbEZeFmJQRYRdQoGWc5BljVuBVmHD/umrSDr4KGDOHBA0gEj+DqsAjAZ+gIzs7w5tK8/pl/3RERJZUfT5/jRlJfV+MI7zsHIb56gxtvPBiwcfRuWYxwWri7ASJ1rt/Pxm/D9P9XjzF/chXuuPEnntqNdK/DzHy7FG4On4JG7xuMUnW3S2+s47z1UXHcd/rh5AH754G3I66uzHaz9/ZWYscKh3L/K8O0bV7bcV6dtsvJUAZ9IjpO9NkpqqcyhGThJ80AJqiTA6trVSqlI7SJNB/2DLLY5ISLX65PmdGkKLtryItpl+vbL0mPBmV/y5vigIeP0F3wX9YuZfMF3797dSN3Qo0d3b+rZs4caXvqdqcbQHJe8SNLEST9zzA+W2ru8pHjbJjfsg6R42yY37IOkeNsmN+yDpHjZph7Gdy7QVaXu3Z3LBEut26ZuSFVXgFR0dygjqUdX81Z+69Jix/ne9MGzuHb0lfh2JGlRneM61DZ17wp1WerSFT1alNHbu/k9vG+V9877ADs3y8zTkN7fvowvWeWNjzB0QbfAY9zdPBopXX3XtaDb1P+7+HPt03hNpXL8KlMtijf+dB3+8G9dJkyS6+f4Cdf4XUtlKNddK8BSgVWKBFW+wEyu14I1WUTUKViT5V+T5Rv3NRmUZNZO2cd9NVeHDh/S04G1WPaarMO2dbMmi4iotbZv/8y4qX9Rjf9pcRa+dd6Jarz9vIb5w4vxOHLxp/XT8C2da/efh4tw2e+3YOj1D2DZ1X10roP/PInJE8uwUU+GdMV8bJx9jp4IYK1nSAGe/vNEfENnW/556yX4xRPAlYufRfF5OlO8shhDp1WFXrdmrmMQZjxZgh/aP0Cvo8W+htkmrwi3wQqWhPy4KePWj5y+cV1z9f/tnb9rU1EUx09M+m+oYBcHMc6i5CXFLhU3gwUHRXQpnStOIi5FcCmdRPEnYp3EwUlcAjpZERQaoQ4OWe1f4Dn33JN778tNNKE2Ur+f8OXed3+91w73vO+77yZssCRv+6VNrp0bAQAAwNSwydyQYyvTfCizCdxWtJz8qwv6briucpnkiZuUi3TlC4IgCJpEMo/KqpKoVtuLObXmb9R5vs/Ws6o+VlR/cz2zbXr++S19/RPdPJkfQzRT1VWjSjVb35xbcNfzcnmN3vfLP9JtMTfM+bkRY3vp4lyFajOlOr9qN/C3lq/pwxodv/yKenEbVu/Hd9e/Pns4KbcYaXEy5CUN8TR5PZBjsL4imBosi9USt2GyAABgishkPIzYWLkJ20/g+gTNT/Kcls2WGq0QNEKA0HfJIQiCoPEl863eOvu5N9Nmd8U37hoNqJqt52viG3xhc/UiHT3WzOgudTL9xlXnlh9vYZ025YSf1mnen2PxaS+0LRbpRl0avKZr/Wu4Ti+kqL5EV4t03Jw4tDEc+8p1ZijZ3CTl/H9yNbKqZO2i6zPNr37hRmdp6dLBpL/FSIuT4TjEUTNXThxvxWCpsUoNlqYar2GyAADgH0FNlaU5BaNlk7oaLZ+Xp2p+822Q3hiEJ3AQBEHQJKqyUpOVb7d78is0cr5sPcubrOGM6DuGvL/JoqbH2h6iKxsdetD2lUb7Dm1vXKAj0ZjDpOfiOOceHkbimOZqkvNpuXY5oMfNFdq+d861TTixTO+6K9SK+w6Rxc4knvoYW469IovLEqf7MRt7sgAA0+B/35Ml2B6pOA35cCyyPVaqwX1bIW9tWPLhVMfTFAAAwGR0uzvUPPPG5R/dP01FsQff5gf+OnF8FHNUTt3HG6f4Cy7MXIV8MFjuGCYLADANYLLSid2ZosgQSdbKcip/NfugBscEAAAwOVvfdqjR0r1FTx42qNmAydqviFGyVBXnBxWbr75gsgAA0wAmKzU+ZTMkqWQ1HabR9TaOpi4BAAAwIVvdn3SqUJP17HGDWkXu54HBfoA9kk/LZiunXH2FfgFsSTPLK+F49gAAAABJRU5ErkJggg==;" vertex="1" parent="WIyWlLk6GJQsqaUBKTNV-1">
          <mxGeometry x="80" y="70" width="667" height="624.19" as="geometry" />
        </mxCell>
        <mxCell id="2Djhh7RtMC3YNrcOC2Sl-5" style="edgeStyle=orthogonalEdgeStyle;rounded=0;orthogonalLoop=1;jettySize=auto;html=1;exitX=0;exitY=0;exitDx=60;exitDy=145;exitPerimeter=0;entryX=0.5;entryY=0;entryDx=0;entryDy=0;fillColor=#d5e8d4;strokeColor=#00FF00;strokeWidth=6;" edge="1" parent="WIyWlLk6GJQsqaUBKTNV-1" source="2Djhh7RtMC3YNrcOC2Sl-1" target="2Djhh7RtMC3YNrcOC2Sl-4">
          <mxGeometry relative="1" as="geometry" />
        </mxCell>
        <mxCell id="2Djhh7RtMC3YNrcOC2Sl-1" value="After placing a component, double-click it to configure the simulation&#39;s properties." style="shape=callout;whiteSpace=wrap;html=1;perimeter=calloutPerimeter;direction=south;size=30;position=0.33;fontSize=14;fillColor=#d5e8d4;strokeColor=#82b366;" vertex="1" parent="WIyWlLk6GJQsqaUBKTNV-1">
          <mxGeometry x="480" y="200" width="320" height="60" as="geometry" />
        </mxCell>
        <mxCell id="2Djhh7RtMC3YNrcOC2Sl-2" value="" style="rounded=0;whiteSpace=wrap;html=1;fillColor=none;strokeColor=#FF0000;strokeWidth=6;" vertex="1" parent="WIyWlLk6GJQsqaUBKTNV-1">
          <mxGeometry x="100" y="150" width="210" height="550" as="geometry" />
        </mxCell>
        <mxCell id="2Djhh7RtMC3YNrcOC2Sl-3" value="Simulation components can be placed onto your schematic page using the &quot;Simulations&quot; category of the Components tab, in the main navigation dock at the left of the Qucs-S window." style="shape=callout;whiteSpace=wrap;html=1;perimeter=calloutPerimeter;fillColor=#f8cecc;strokeColor=#b85450;direction=west;position2=0.75;base=30;size=30;position=0.68;fontSize=14;" vertex="1" parent="WIyWlLk6GJQsqaUBKTNV-1">
          <mxGeometry x="100" y="700" width="550" height="110" as="geometry" />
        </mxCell>
        <mxCell id="2Djhh7RtMC3YNrcOC2Sl-4" value="" style="rounded=0;whiteSpace=wrap;html=1;fillColor=none;strokeWidth=6;strokeColor=#00FF00;" vertex="1" parent="WIyWlLk6GJQsqaUBKTNV-1">
          <mxGeometry x="354" y="352" width="396" height="348" as="geometry" />
        </mxCell>
      </root>
    </mxGraphModel>
  </diagram>
</mxfile>
